TH Mali Grade 6
<glyph name="exclam" format="2">
  <advance width="317"/>
  <unicode hex="0021"/>
  <outline>
    <contour>
      <point x="178" y="199" type="line"/>
      <point x="173" y="181"/>
      <point x="152" y="181" type="qcurve" smooth="yes"/>
      <point x="137" y="181"/>
      <point x="133" y="199" type="qcurve"/>
      <point x="104" y="801" type="line"/>
      <point x="105" y="824"/>
      <point x="135" y="846"/>
      <point x="153" y="846" type="qcurve" smooth="yes"/>
      <point x="172" y="846"/>
      <point x="205" y="823"/>
      <point x="207" y="801" type="qcurve"/>
    </contour>
    <contour>
      <point x="211" y="63" type="qcurve"/>
      <point x="209" y="41"/>
      <point x="180" y="10"/>
      <point x="158" y="10" type="qcurve" smooth="yes"/>
      <point x="131" y="10"/>
      <point x="100" y="45"/>
      <point x="100" y="68" type="qcurve" smooth="yes"/>
      <point x="100" y="90"/>
      <point x="131" y="121"/>
      <point x="158" y="121" type="qcurve" smooth="yes"/>
      <point x="186" y="121"/>
      <point x="211" y="84"/>
    </contour>
  </outline>
</glyph>
<glyph name="quotedbl" format="2">
  <advance width="444"/>
  <unicode hex="0022"/>
  <outline>
    <contour>
      <point x="150" y="727" type="line"/>
      <point x="145" y="711"/>
      <point x="117" y="709"/>
      <point x="113" y="727" type="qcurve"/>
      <point x="102" y="961" type="line" smooth="yes"/>
      <point x="102" y="973"/>
      <point x="123" y="985"/>
      <point x="143" y="985"/>
      <point x="162" y="973"/>
      <point x="162" y="961" type="qcurve"/>
    </contour>
    <contour>
      <point x="311" y="727" type="line"/>
      <point x="308" y="709"/>
      <point x="279" y="709"/>
      <point x="274" y="727" type="qcurve"/>
      <point x="264" y="961" type="line" smooth="yes"/>
      <point x="264" y="973"/>
      <point x="285" y="985"/>
      <point x="305" y="985"/>
      <point x="324" y="973"/>
      <point x="324" y="961" type="qcurve"/>
    </contour>
  </outline>
</glyph>
<glyph name="numbersign" format="2">
  <advance width="737"/>
  <unicode hex="0023"/>
  <outline>
    <contour>
      <point x="444" y="371" type="line"/>
      <point x="475" y="532" type="line"/>
      <point x="305" y="532" type="line"/>
      <point x="283" y="369" type="line"/>
    </contour>
    <contour>
      <point x="238" y="369" type="line"/>
      <point x="262" y="535" type="line"/>
      <point x="201" y="535" type="line"/>
      <point x="180" y="539"/>
      <point x="179" y="560" type="qcurve" smooth="yes"/>
      <point x="178" y="582"/>
      <point x="199" y="582" type="qcurve" smooth="yes"/>
      <point x="268" y="582" type="line"/>
      <point x="291" y="731" type="line" smooth="yes"/>
      <point x="295" y="757"/>
      <point x="316" y="756" type="qcurve" smooth="yes"/>
      <point x="338" y="754"/>
      <point x="334" y="729" type="qcurve" smooth="yes"/>
      <point x="311" y="580" type="line"/>
      <point x="479" y="580" type="line"/>
      <point x="508" y="743" type="line" smooth="yes"/>
      <point x="510" y="754"/>
      <point x="527" y="761"/>
      <point x="545" y="758"/>
      <point x="557" y="745"/>
      <point x="555" y="737" type="qcurve"/>
      <point x="524" y="578" type="line"/>
      <point x="594" y="578" type="line"/>
      <point x="616" y="574"/>
      <point x="616" y="552" type="qcurve" smooth="yes"/>
      <point x="616" y="532"/>
      <point x="594" y="532" type="qcurve" smooth="yes"/>
      <point x="518" y="532" type="line"/>
      <point x="489" y="371" type="line"/>
      <point x="580" y="371" type="line"/>
      <point x="590" y="370"/>
      <point x="600" y="355"/>
      <point x="600" y="338"/>
      <point x="590" y="324"/>
      <point x="580" y="324" type="qcurve" smooth="yes"/>
      <point x="483" y="324" type="line"/>
      <point x="459" y="166" type="line"/>
      <point x="455" y="156"/>
      <point x="440" y="150"/>
      <point x="432" y="151" type="qcurve"/>
      <point x="423" y="153"/>
      <point x="419" y="158" type="qcurve" smooth="yes"/>
      <point x="414" y="164"/>
      <point x="438" y="324" type="qcurve"/>
      <point x="276" y="324" type="line"/>
      <point x="254" y="166" type="line" smooth="yes"/>
      <point x="252" y="155"/>
      <point x="237" y="146"/>
      <point x="220" y="148"/>
      <point x="208" y="161"/>
      <point x="209" y="172" type="qcurve"/>
      <point x="233" y="324" type="line"/>
      <point x="158" y="324" type="line" smooth="yes"/>
      <point x="147" y="324"/>
      <point x="135" y="338"/>
      <point x="135" y="355"/>
      <point x="147" y="369"/>
      <point x="158" y="369" type="qcurve" smooth="yes"/>
    </contour>
  </outline>
</glyph>
<glyph name="dollar" format="2">
  <advance width="782"/>
  <unicode hex="0024"/>
  <outline>
    <contour>
      <point x="377" y="954" type="line" smooth="yes"/>
      <point x="377" y="967"/>
      <point x="391" y="981"/>
      <point x="410" y="981"/>
      <point x="426" y="967"/>
      <point x="426" y="954" type="qcurve" smooth="yes"/>
      <point x="426" y="862" type="line"/>
      <point x="506" y="852"/>
      <point x="608" y="743"/>
      <point x="610" y="651" type="qcurve"/>
      <point x="606" y="629"/>
      <point x="575" y="625"/>
      <point x="573" y="645" type="qcurve" smooth="yes"/>
      <point x="571" y="672"/>
      <point x="553" y="731"/>
      <point x="516" y="780"/>
      <point x="463" y="819"/>
      <point x="426" y="825" type="qcurve"/>
      <point x="426" y="459" type="line"/>
      <point x="492" y="446"/>
      <point x="569" y="393"/>
      <point x="608" y="328"/>
      <point x="621" y="252"/>
      <point x="618" y="219" type="qcurve" smooth="yes"/>
      <point x="614" y="156"/>
      <point x="524" y="49"/>
      <point x="426" y="41" type="qcurve"/>
      <point x="426" y="-53" type="line" smooth="yes"/>
      <point x="426" y="-66"/>
      <point x="410" y="-80"/>
      <point x="391" y="-80"/>
      <point x="377" y="-66"/>
      <point x="377" y="-53" type="qcurve" smooth="yes"/>
      <point x="377" y="41" type="line"/>
      <point x="274" y="45"/>
      <point x="131" y="143"/>
      <point x="115" y="236" type="qcurve" smooth="yes"/>
      <point x="111" y="256"/>
      <point x="150" y="254"/>
      <point x="152" y="238" type="qcurve"/>
      <point x="166" y="172"/>
      <point x="276" y="82"/>
      <point x="377" y="78" type="qcurve"/>
      <point x="377" y="426" type="line"/>
      <point x="373" y="426"/>
      <point x="371" y="428"/>
      <point x="369" y="428" type="qcurve"/>
      <point x="268" y="438"/>
      <point x="152" y="545"/>
      <point x="143" y="633" type="qcurve" smooth="yes"/>
      <point x="139" y="680"/>
      <point x="170" y="764"/>
      <point x="231" y="827"/>
      <point x="322" y="864"/>
      <point x="377" y="866" type="qcurve"/>
    </contour>
    <contour>
      <point x="184" y="633" type="qcurve" smooth="yes"/>
      <point x="186" y="608"/>
      <point x="203" y="557"/>
      <point x="246" y="512"/>
      <point x="317" y="473"/>
      <point x="377" y="465" type="qcurve"/>
      <point x="377" y="829" type="line"/>
      <point x="281" y="825"/>
      <point x="180" y="711"/>
    </contour>
    <contour>
      <point x="582" y="219" type="qcurve" smooth="yes"/>
      <point x="584" y="309"/>
      <point x="508" y="403"/>
      <point x="426" y="420" type="qcurve"/>
      <point x="426" y="78" type="line"/>
      <point x="477" y="82"/>
      <point x="537" y="117"/>
      <point x="569" y="160"/>
      <point x="582" y="205"/>
    </contour>
  </outline>
</glyph>
<glyph name="percent" format="2">
  <advance width="985"/>
  <unicode hex="0025"/>
  <outline>
    <contour>
      <point x="338" y="16" type="line"/>
      <point x="319" y="-6"/>
      <point x="281" y="2"/>
      <point x="291" y="29" type="qcurve" smooth="yes"/>
      <point x="639" y="879" type="line"/>
      <point x="645" y="891"/>
      <point x="666" y="897"/>
      <point x="682" y="889"/>
      <point x="688" y="868"/>
      <point x="680" y="856" type="qcurve"/>
    </contour>
    <contour>
      <point x="440" y="678" type="qcurve" smooth="yes"/>
      <point x="440" y="627"/>
      <point x="373" y="535"/>
      <point x="303" y="535" type="qcurve" smooth="yes"/>
      <point x="231" y="535"/>
      <point x="154" y="629"/>
      <point x="154" y="682" type="qcurve" smooth="yes"/>
      <point x="154" y="735"/>
      <point x="229" y="827"/>
      <point x="303" y="827" type="qcurve" smooth="yes"/>
      <point x="340" y="827"/>
      <point x="391" y="799"/>
      <point x="424" y="756"/>
      <point x="440" y="702"/>
    </contour>
    <contour>
      <point x="403" y="676" type="qcurve"/>
      <point x="403" y="713"/>
      <point x="354" y="782"/>
      <point x="305" y="782" type="qcurve" smooth="yes"/>
      <point x="258" y="782"/>
      <point x="199" y="725"/>
      <point x="199" y="684" type="qcurve" smooth="yes"/>
      <point x="199" y="641"/>
      <point x="256" y="578"/>
      <point x="305" y="578" type="qcurve" smooth="yes"/>
      <point x="346" y="578"/>
      <point x="399" y="635"/>
    </contour>
    <contour>
      <point x="829" y="203" type="qcurve" smooth="yes"/>
      <point x="829" y="152"/>
      <point x="762" y="59"/>
      <point x="692" y="59" type="qcurve" smooth="yes"/>
      <point x="621" y="59"/>
      <point x="543" y="154"/>
      <point x="543" y="207" type="qcurve" smooth="yes"/>
      <point x="543" y="260"/>
      <point x="618" y="352"/>
      <point x="692" y="352" type="qcurve" smooth="yes"/>
      <point x="729" y="352"/>
      <point x="780" y="324"/>
      <point x="813" y="281"/>
      <point x="829" y="227"/>
    </contour>
    <contour>
      <point x="793" y="201" type="qcurve"/>
      <point x="793" y="238"/>
      <point x="743" y="307"/>
      <point x="694" y="307" type="qcurve" smooth="yes"/>
      <point x="647" y="307"/>
      <point x="588" y="250"/>
      <point x="588" y="209" type="qcurve" smooth="yes"/>
      <point x="588" y="166"/>
      <point x="645" y="102"/>
      <point x="694" y="102" type="qcurve" smooth="yes"/>
      <point x="735" y="102"/>
      <point x="788" y="160"/>
    </contour>
  </outline>
</glyph>
<glyph name="ampersand" format="2">
  <advance width="829"/>
  <unicode hex="0026"/>
  <outline>
    <contour>
      <point x="528" y="131" type="qcurve"/>
      <point x="442" y="182"/>
      <point x="322" y="338"/>
      <point x="281" y="432" type="qcurve"/>
      <point x="244" y="428"/>
      <point x="190" y="371"/>
      <point x="162" y="289"/>
      <point x="164" y="195"/>
      <point x="203" y="117"/>
      <point x="283" y="61"/>
      <point x="348" y="61" type="qcurve" smooth="yes"/>
      <point x="406" y="59"/>
      <point x="500" y="98"/>
    </contour>
    <contour>
      <point x="309" y="506" type="qcurve"/>
      <point x="375" y="512"/>
      <point x="438" y="594"/>
      <point x="438" y="686"/>
      <point x="379" y="764"/>
      <point x="322" y="768" type="qcurve" smooth="yes"/>
      <point x="250" y="774"/>
      <point x="178" y="700"/>
      <point x="174" y="602"/>
      <point x="240" y="514"/>
    </contour>
    <contour>
      <point x="653" y="408" type="qcurve" smooth="yes"/>
      <point x="666" y="383"/>
      <point x="680" y="322"/>
      <point x="678" y="252"/>
      <point x="655" y="180"/>
      <point x="629" y="145" type="qcurve"/>
      <point x="647" y="129"/>
      <point x="676" y="111"/>
      <point x="702" y="96"/>
      <point x="733" y="82"/>
      <point x="756" y="72" type="qcurve"/>
      <point x="766" y="66"/>
      <point x="770" y="49"/>
      <point x="760" y="35"/>
      <point x="743" y="27"/>
      <point x="735" y="31" type="qcurve"/>
      <point x="688" y="47"/>
      <point x="631" y="82"/>
      <point x="596" y="115" type="qcurve"/>
      <point x="541" y="70"/>
      <point x="422" y="16"/>
      <point x="356" y="14" type="qcurve" smooth="yes"/>
      <point x="279" y="12"/>
      <point x="174" y="70"/>
      <point x="115" y="164"/>
      <point x="102" y="276"/>
      <point x="131" y="381"/>
      <point x="205" y="461"/>
      <point x="260" y="475" type="qcurve"/>
      <point x="188" y="487"/>
      <point x="121" y="602"/>
      <point x="133" y="727"/>
      <point x="233" y="821"/>
      <point x="330" y="815" type="qcurve" smooth="yes"/>
      <point x="401" y="813"/>
      <point x="483" y="711"/>
      <point x="492" y="586"/>
      <point x="414" y="473"/>
      <point x="326" y="461" type="qcurve"/>
      <point x="369" y="362"/>
      <point x="479" y="223"/>
      <point x="571" y="164" type="qcurve"/>
      <point x="623" y="213"/>
      <point x="629" y="336"/>
      <point x="606" y="401" type="qcurve"/>
      <point x="600" y="410"/>
      <point x="610" y="424"/>
      <point x="627" y="428"/>
      <point x="647" y="420"/>
    </contour>
  </outline>
</glyph>
<glyph name="quotesingle" format="2">
  <advance width="236"/>
  <unicode hex="0027"/>
  <outline>
    <contour>
      <point x="135" y="582" type="line"/>
      <point x="131" y="565"/>
      <point x="102" y="563"/>
      <point x="98" y="582" type="qcurve"/>
      <point x="88" y="815" type="line" smooth="yes"/>
      <point x="88" y="827"/>
      <point x="109" y="840"/>
      <point x="129" y="840"/>
      <point x="147" y="827"/>
      <point x="147" y="815" type="qcurve"/>
    </contour>
  </outline>
</glyph>
<glyph name="parenleft" format="2">
  <advance width="489"/>
  <unicode hex="0028"/>
  <outline>
    <contour>
      <point x="324" y="-98" type="qcurve" smooth="yes"/>
      <point x="336" y="-111"/>
      <point x="340" y="-135"/>
      <point x="328" y="-154"/>
      <point x="303" y="-158"/>
      <point x="289" y="-147" type="qcurve"/>
      <point x="184" y="-39"/>
      <point x="78" y="209"/>
      <point x="78" y="358" type="qcurve" smooth="yes"/>
      <point x="78" y="506"/>
      <point x="190" y="770"/>
      <point x="297" y="877" type="qcurve"/>
      <point x="309" y="885"/>
      <point x="330" y="874"/>
      <point x="340" y="854"/>
      <point x="338" y="825"/>
      <point x="326" y="817" type="qcurve"/>
      <point x="233" y="723"/>
      <point x="133" y="489"/>
      <point x="133" y="358" type="qcurve" smooth="yes"/>
      <point x="133" y="225"/>
      <point x="231" y="-2"/>
    </contour>
  </outline>
</glyph>
<glyph name="parenright" format="2">
  <advance width="489"/>
  <unicode hex="0029"/>
  <outline>
    <contour>
      <point x="152" y="-98" type="qcurve" smooth="yes"/>
      <point x="244" y="-2"/>
      <point x="342" y="225"/>
      <point x="342" y="358" type="qcurve" smooth="yes"/>
      <point x="342" y="489"/>
      <point x="242" y="723"/>
      <point x="150" y="817" type="qcurve"/>
      <point x="137" y="825"/>
      <point x="135" y="854"/>
      <point x="145" y="874"/>
      <point x="166" y="885"/>
      <point x="178" y="877" type="qcurve"/>
      <point x="285" y="770"/>
      <point x="397" y="506"/>
      <point x="397" y="358" type="qcurve" smooth="yes"/>
      <point x="397" y="209"/>
      <point x="291" y="-39"/>
      <point x="186" y="-147" type="qcurve"/>
      <point x="172" y="-158"/>
      <point x="147" y="-154"/>
      <point x="135" y="-135"/>
      <point x="139" y="-111"/>
    </contour>
  </outline>
</glyph>
<glyph name="asterisk" format="2">
  <advance width="600"/>
  <unicode hex="002A"/>
  <outline>
    <contour>
      <point x="352" y="582" type="line"/>
      <point x="506" y="494" type="line"/>
      <point x="520" y="481"/>
      <point x="500" y="449"/>
      <point x="483" y="459" type="qcurve" smooth="yes"/>
      <point x="340" y="543" type="line"/>
      <point x="340" y="391" type="line" smooth="yes"/>
      <point x="340" y="381"/>
      <point x="328" y="371"/>
      <point x="309" y="371"/>
      <point x="295" y="381"/>
      <point x="295" y="391" type="qcurve" smooth="yes"/>
      <point x="293" y="547" type="line"/>
      <point x="156" y="467" type="line"/>
      <point x="139" y="459"/>
      <point x="123" y="492"/>
      <point x="135" y="502" type="qcurve"/>
      <point x="268" y="582" type="line"/>
      <point x="115" y="672" type="line" smooth="yes"/>
      <point x="96" y="684"/>
      <point x="117" y="717"/>
      <point x="135" y="707" type="qcurve" smooth="yes"/>
      <point x="293" y="616" type="line"/>
      <point x="293" y="662"/>
      <point x="291" y="741"/>
      <point x="291" y="786" type="qcurve"/>
      <point x="293" y="813"/>
      <point x="336" y="809"/>
      <point x="336" y="786" type="qcurve" smooth="yes"/>
      <point x="338" y="621" type="line"/>
      <point x="477" y="700" type="line"/>
      <point x="504" y="713"/>
      <point x="520" y="676"/>
      <point x="498" y="666" type="qcurve"/>
    </contour>
  </outline>
</glyph>
<glyph name="plus" format="2">
  <advance width="635"/>
  <unicode hex="002B"/>
  <outline>
    <contour>
      <point x="295" y="440" type="line"/>
      <point x="295" y="482"/>
      <point x="294" y="560"/>
      <point x="295" y="600" type="qcurve"/>
      <point x="299" y="616"/>
      <point x="320" y="616" type="qcurve" smooth="yes"/>
      <point x="342" y="616"/>
      <point x="342" y="600" type="qcurve" smooth="yes"/>
      <point x="342" y="589"/>
      <point x="339" y="544"/>
      <point x="338" y="495"/>
      <point x="338" y="450"/>
      <point x="340" y="440" type="qcurve"/>
      <point x="374" y="440"/>
      <point x="408" y="439"/>
      <point x="433" y="440"/>
      <point x="460" y="444"/>
      <point x="489" y="449" type="qcurve"/>
      <point x="506" y="453"/>
      <point x="516" y="430"/>
      <point x="514" y="418" type="qcurve"/>
      <point x="510" y="408"/>
      <point x="465" y="400"/>
      <point x="409" y="399"/>
      <point x="355" y="401"/>
      <point x="342" y="401" type="qcurve"/>
      <point x="342" y="389"/>
      <point x="341" y="345"/>
      <point x="340" y="297"/>
      <point x="338" y="253"/>
      <point x="337" y="241" type="qcurve"/>
      <point x="337" y="230"/>
      <point x="326" y="218"/>
      <point x="316" y="219" type="qcurve" smooth="yes"/>
      <point x="297" y="220"/>
      <point x="297" y="244" type="qcurve" smooth="yes"/>
      <point x="297" y="397" type="line"/>
      <point x="127" y="403" type="line"/>
      <point x="111" y="406"/>
      <point x="111" y="426" type="qcurve" smooth="yes"/>
      <point x="111" y="446"/>
      <point x="127" y="446" type="qcurve" smooth="yes"/>
    </contour>
  </outline>
</glyph>
<glyph name="comma" format="2">
  <advance width="352"/>
  <unicode hex="002C"/>
  <outline>
    <contour>
      <point x="61" y="-78" type="qcurve"/>
      <point x="139" y="-90"/>
      <point x="189" y="-55" type="qcurve" smooth="yes"/>
      <point x="240" y="-21"/>
      <point x="246" y="39" type="qcurve"/>
      <point x="236" y="23"/>
      <point x="193" y="12"/>
      <point x="170" y="23" type="qcurve"/>
      <point x="156" y="28"/>
      <point x="137" y="48"/>
      <point x="126" y="74"/>
      <point x="124" y="104"/>
      <point x="129" y="119" type="qcurve" smooth="yes"/>
      <point x="134" y="133"/>
      <point x="156" y="155"/>
      <point x="184" y="167"/>
      <point x="217" y="167"/>
      <point x="233" y="159" type="qcurve" smooth="yes"/>
      <point x="250" y="150"/>
      <point x="273" y="115"/>
      <point x="282" y="69"/>
      <point x="275" y="17"/>
      <point x="262" y="-8" type="qcurve"/>
      <point x="247" y="-43"/>
      <point x="198" y="-87"/>
      <point x="142" y="-108"/>
      <point x="87" y="-109"/>
      <point x="66" y="-102" type="qcurve" smooth="yes"/>
      <point x="49" y="-96"/>
      <point x="51" y="-78"/>
    </contour>
    <contour>
      <point x="162" y="111" type="qcurve" smooth="yes"/>
      <point x="154" y="94"/>
      <point x="168" y="55"/>
      <point x="182" y="51" type="qcurve"/>
      <point x="199" y="45"/>
      <point x="236" y="61"/>
      <point x="244" y="78" type="qcurve"/>
      <point x="249" y="94"/>
      <point x="231" y="122"/>
      <point x="202" y="136"/>
      <point x="171" y="129"/>
    </contour>
  </outline>
</glyph>
<glyph name="hyphen" format="2">
  <advance width="594"/>
  <unicode hex="002D"/>
  <outline>
    <contour>
      <point x="286" y="450" type="line"/>
      <point x="452" y="456"/>
      <point x="480" y="461" type="qcurve"/>
      <point x="497" y="465"/>
      <point x="507" y="442"/>
      <point x="505" y="430" type="qcurve"/>
      <point x="501" y="420"/>
      <point x="456" y="413"/>
      <point x="268" y="407"/>
      <point x="118" y="415" type="qcurve"/>
      <point x="102" y="418"/>
      <point x="102" y="458"/>
      <point x="118" y="458" type="qcurve" smooth="yes"/>
    </contour>
  </outline>
</glyph>
<glyph name="period" format="2">
  <advance width="352"/>
  <unicode hex="002E"/>
  <outline>
    <contour>
      <point x="123" y="80" type="qcurve" smooth="yes"/>
      <point x="126" y="88"/>
      <point x="140" y="102"/>
      <point x="158" y="111"/>
      <point x="177" y="114"/>
      <point x="184" y="111" type="qcurve"/>
      <point x="207" y="104"/>
      <point x="227" y="61"/>
      <point x="221" y="45" type="qcurve"/>
      <point x="215" y="23"/>
      <point x="172" y="2"/>
      <point x="150" y="10" type="qcurve"/>
      <point x="133" y="14"/>
      <point x="115" y="57"/>
    </contour>
  </outline>
</glyph>
<glyph name="slash" format="2">
  <advance width="604"/>
  <unicode hex="002F"/>
  <outline>
    <contour>
      <point x="154" y="-6" type="line"/>
      <point x="145" y="-18"/>
      <point x="127" y="-27"/>
      <point x="111" y="-25"/>
      <point x="104" y="-8"/>
      <point x="109" y="4" type="qcurve"/>
      <point x="430" y="993" type="line"/>
      <point x="434" y="1008"/>
      <point x="453" y="1016"/>
      <point x="469" y="1008"/>
      <point x="475" y="989"/>
      <point x="469" y="975" type="qcurve"/>
    </contour>
  </outline>
</glyph>
<glyph name="zero" format="2">
  <advance width="717"/>
  <unicode hex="0030"/>
  <outline>
    <contour>
      <point x="668" y="371" type="qcurve" smooth="yes"/>
      <point x="668" y="305"/>
      <point x="629" y="178"/>
      <point x="551" y="78"/>
      <point x="430" y="14"/>
      <point x="348" y="14" type="qcurve" smooth="yes"/>
      <point x="264" y="14"/>
      <point x="147" y="80"/>
      <point x="74" y="184"/>
      <point x="39" y="311"/>
      <point x="39" y="371" type="qcurve" smooth="yes"/>
      <point x="39" y="428"/>
      <point x="70" y="569"/>
      <point x="141" y="694"/>
      <point x="262" y="778"/>
      <point x="352" y="778" type="qcurve" smooth="yes"/>
      <point x="442" y="778"/>
      <point x="563" y="696"/>
      <point x="637" y="575"/>
      <point x="668" y="432"/>
    </contour>
    <contour>
      <point x="614" y="371" type="qcurve" smooth="yes"/>
      <point x="614" y="438"/>
      <point x="586" y="565"/>
      <point x="522" y="664"/>
      <point x="424" y="723"/>
      <point x="354" y="723" type="qcurve" smooth="yes"/>
      <point x="283" y="723"/>
      <point x="184" y="662"/>
      <point x="123" y="561"/>
      <point x="96" y="434"/>
      <point x="96" y="371" type="qcurve" smooth="yes"/>
      <point x="96" y="309"/>
      <point x="123" y="199"/>
      <point x="184" y="115"/>
      <point x="279" y="68"/>
      <point x="346" y="68" type="qcurve" smooth="yes"/>
      <point x="416" y="68"/>
      <point x="518" y="115"/>
      <point x="584" y="197"/>
      <point x="614" y="307"/>
    </contour>
  </outline>
</glyph>
<glyph name="one" format="2">
  <advance width="528"/>
  <unicode hex="0031"/>
  <outline>
    <contour>
      <point x="315" y="707" type="line"/>
      <point x="305" y="684"/>
      <point x="260" y="629"/>
      <point x="238" y="604" type="qcurve" smooth="yes"/>
      <point x="211" y="575"/>
      <point x="180" y="547" type="qcurve"/>
      <point x="170" y="541"/>
      <point x="152" y="547"/>
      <point x="139" y="559"/>
      <point x="141" y="580"/>
      <point x="152" y="590" type="qcurve" smooth="yes"/>
      <point x="209" y="643"/>
      <point x="276" y="735"/>
      <point x="305" y="788" type="qcurve"/>
      <point x="309" y="797"/>
      <point x="328" y="793"/>
      <point x="348" y="778"/>
      <point x="365" y="760"/>
      <point x="367" y="754" type="qcurve"/>
      <point x="375" y="33" type="line" smooth="yes"/>
      <point x="375" y="23"/>
      <point x="356" y="14"/>
      <point x="334" y="12"/>
      <point x="315" y="20"/>
      <point x="315" y="31" type="qcurve" smooth="yes"/>
      <point x="319" y="303" type="line"/>
    </contour>
  </outline>
</glyph>
<glyph name="two" format="2">
  <advance width="653"/>
  <unicode hex="0032"/>
  <outline>
    <contour>
      <point x="145" y="51" type="qcurve"/>
      <point x="209" y="55"/>
      <point x="307" y="58"/>
      <point x="396" y="56"/>
      <point x="490" y="51"/>
      <point x="551" y="47" type="qcurve"/>
      <point x="562" y="45"/>
      <point x="570" y="31"/>
      <point x="567" y="15"/>
      <point x="557" y="2"/>
      <point x="551" y="2" type="qcurve"/>
      <point x="534" y="4"/>
      <point x="478" y="7"/>
      <point x="407" y="9"/>
      <point x="328" y="10"/>
      <point x="289" y="10" type="qcurve" smooth="yes"/>
      <point x="243" y="10"/>
      <point x="143" y="8"/>
      <point x="88" y="6" type="qcurve" smooth="yes"/>
      <point x="80" y="6"/>
      <point x="80" y="12" type="qcurve"/>
      <point x="88" y="90"/>
      <point x="217" y="266"/>
      <point x="354" y="350" type="qcurve" smooth="yes"/>
      <point x="392" y="374"/>
      <point x="450" y="434"/>
      <point x="490" y="501"/>
      <point x="510" y="571"/>
      <point x="510" y="606" type="qcurve" smooth="yes"/>
      <point x="510" y="676"/>
      <point x="463" y="732" type="qcurve" smooth="yes"/>
      <point x="416" y="788"/>
      <point x="319" y="788" type="qcurve" smooth="yes"/>
      <point x="272" y="788"/>
      <point x="205" y="760"/>
      <point x="160" y="710"/>
      <point x="136" y="640"/>
      <point x="133" y="598" type="qcurve"/>
      <point x="131" y="586"/>
      <point x="110" y="586" type="qcurve" smooth="yes"/>
      <point x="90" y="586"/>
      <point x="90" y="612" type="qcurve" smooth="yes"/>
      <point x="90" y="656"/>
      <point x="125" y="735"/>
      <point x="186" y="795"/>
      <point x="268" y="831"/>
      <point x="315" y="831" type="qcurve" smooth="yes"/>
      <point x="376" y="831"/>
      <point x="467" y="794"/>
      <point x="527" y="732"/>
      <point x="557" y="649"/>
      <point x="557" y="604" type="qcurve" smooth="yes"/>
      <point x="557" y="565"/>
      <point x="536" y="486"/>
      <point x="493" y="411"/>
      <point x="428" y="345"/>
      <point x="385" y="319" type="qcurve" smooth="yes"/>
      <point x="334" y="289"/>
      <point x="246" y="219"/>
      <point x="182" y="147"/>
      <point x="145" y="79"/>
    </contour>
  </outline>
</glyph>
<glyph name="three" format="2">
  <advance width="678"/>
  <unicode hex="0033"/>
  <outline>
    <contour>
      <point x="158" y="543" type="line"/>
      <point x="143" y="598"/>
      <point x="168" y="696"/>
      <point x="233" y="766"/>
      <point x="330" y="807"/>
      <point x="385" y="807" type="qcurve" smooth="yes"/>
      <point x="428" y="807"/>
      <point x="510" y="778"/>
      <point x="571" y="725"/>
      <point x="610" y="649"/>
      <point x="610" y="604" type="qcurve" smooth="yes"/>
      <point x="610" y="555"/>
      <point x="557" y="446"/>
      <point x="481" y="426" type="qcurve"/>
      <point x="524" y="416"/>
      <point x="580" y="371"/>
      <point x="612" y="309"/>
      <point x="627" y="242"/>
      <point x="627" y="211" type="qcurve" smooth="yes"/>
      <point x="627" y="182"/>
      <point x="602" y="109"/>
      <point x="543" y="43"/>
      <point x="446" y="0"/>
      <point x="375" y="0" type="qcurve" smooth="yes"/>
      <point x="309" y="0"/>
      <point x="195" y="25"/>
      <point x="106" y="90"/>
      <point x="55" y="201"/>
      <point x="55" y="287" type="qcurve" smooth="yes"/>
      <point x="55" y="319"/>
      <point x="76" y="319" type="qcurve" smooth="yes"/>
      <point x="98" y="319"/>
      <point x="98" y="297" type="qcurve" smooth="yes"/>
      <point x="98" y="223"/>
      <point x="143" y="125"/>
      <point x="217" y="66"/>
      <point x="313" y="41"/>
      <point x="365" y="41" type="qcurve" smooth="yes"/>
      <point x="426" y="41"/>
      <point x="512" y="74"/>
      <point x="563" y="123"/>
      <point x="586" y="180"/>
      <point x="586" y="205" type="qcurve" smooth="yes"/>
      <point x="586" y="309"/>
      <point x="465" y="401"/>
      <point x="371" y="401" type="qcurve" smooth="yes"/>
      <point x="354" y="401"/>
      <point x="344" y="436"/>
      <point x="362" y="440" type="qcurve"/>
      <point x="473" y="453"/>
      <point x="567" y="547"/>
      <point x="567" y="616" type="qcurve" smooth="yes"/>
      <point x="567" y="643"/>
      <point x="545" y="694"/>
      <point x="500" y="737"/>
      <point x="432" y="764"/>
      <point x="387" y="764" type="qcurve" smooth="yes"/>
      <point x="342" y="764"/>
      <point x="264" y="733"/>
      <point x="211" y="678"/>
      <point x="188" y="600"/>
      <point x="199" y="551" type="qcurve"/>
      <point x="197" y="535"/>
      <point x="164" y="524"/>
      <point x="160" y="541" type="qcurve"/>
    </contour>
  </outline>
</glyph>
<glyph name="four" format="2">
  <advance width="653"/>
  <unicode hex="0034"/>
  <outline>
    <contour>
      <point x="389" y="788" type="qcurve" smooth="yes"/>
      <point x="373" y="771"/>
      <point x="331" y="718" type="qcurve" smooth="yes"/>
      <point x="289" y="665"/>
      <point x="241" y="598" type="qcurve" smooth="yes"/>
      <point x="217" y="564"/>
      <point x="169" y="494"/>
      <point x="145" y="459" type="qcurve" smooth="yes"/>
      <point x="122" y="424"/>
      <point x="85" y="362"/>
      <point x="72" y="336" type="qcurve"/>
      <point x="63" y="323"/>
      <point x="109" y="316" type="qcurve" smooth="yes"/>
      <point x="132" y="312"/>
      <point x="188" y="308"/>
      <point x="220" y="306" type="qcurve" smooth="yes"/>
      <point x="284" y="303"/>
      <point x="349" y="303" type="qcurve" smooth="yes"/>
      <point x="381" y="303"/>
      <point x="428" y="305"/>
      <point x="442" y="307" type="qcurve"/>
      <point x="455" y="608" type="line" smooth="yes"/>
      <point x="455" y="630"/>
      <point x="476" y="629" type="qcurve" smooth="yes"/>
      <point x="498" y="628"/>
      <point x="498" y="604" type="qcurve"/>
      <point x="487" y="319" type="line"/>
      <point x="547" y="326"/>
      <point x="621" y="338"/>
      <point x="623" y="338" type="qcurve"/>
      <point x="631" y="340"/>
      <point x="644" y="334"/>
      <point x="651" y="323"/>
      <point x="652" y="309"/>
      <point x="647" y="303" type="qcurve"/>
      <point x="647" y="301"/>
      <point x="635" y="299"/>
      <point x="600" y="293"/>
      <point x="536" y="283"/>
      <point x="483" y="274" type="qcurve"/>
      <point x="475" y="25" type="line"/>
      <point x="475" y="6"/>
      <point x="453" y="6" type="qcurve" smooth="yes"/>
      <point x="432" y="6"/>
      <point x="432" y="29" type="qcurve" smooth="yes"/>
      <point x="440" y="264" type="line"/>
      <point x="408" y="262"/>
      <point x="315" y="260"/>
      <point x="215" y="262"/>
      <point x="119" y="270"/>
      <point x="47" y="286"/>
      <point x="12" y="310"/>
      <point x="23" y="328" type="qcurve"/>
      <point x="40" y="371"/>
      <point x="105" y="486"/>
      <point x="192" y="615"/>
      <point x="297" y="753"/>
      <point x="356" y="819" type="qcurve"/>
      <point x="364" y="826"/>
      <point x="382" y="824"/>
      <point x="394" y="813"/>
      <point x="396" y="796"/>
    </contour>
  </outline>
</glyph>
<glyph name="five" format="2">
  <advance width="686"/>
  <unicode hex="0035"/>
  <outline>
    <contour>
      <point x="129" y="457" type="qcurve"/>
      <point x="135" y="584"/>
      <point x="143" y="727"/>
      <point x="147" y="797"/>
      <point x="150" y="815"/>
      <point x="150" y="817" type="qcurve"/>
      <point x="152" y="819"/>
      <point x="219" y="815"/>
      <point x="330" y="811"/>
      <point x="473" y="811"/>
      <point x="553" y="817" type="qcurve" smooth="yes"/>
      <point x="571" y="819"/>
      <point x="569" y="780"/>
      <point x="553" y="776" type="qcurve"/>
      <point x="465" y="766"/>
      <point x="281" y="762"/>
      <point x="195" y="766" type="qcurve"/>
      <point x="184" y="528" type="line"/>
      <point x="260" y="541"/>
      <point x="324" y="541" type="qcurve" smooth="yes"/>
      <point x="403" y="543"/>
      <point x="514" y="498"/>
      <point x="582" y="422"/>
      <point x="612" y="317"/>
      <point x="612" y="258" type="qcurve"/>
      <point x="610" y="129"/>
      <point x="449" y="2"/>
      <point x="336" y="0" type="qcurve" smooth="yes"/>
      <point x="289" y="-2"/>
      <point x="188" y="18"/>
      <point x="109" y="76"/>
      <point x="66" y="178"/>
      <point x="78" y="260" type="qcurve" smooth="yes"/>
      <point x="80" y="272"/>
      <point x="96" y="283"/>
      <point x="115" y="281"/>
      <point x="127" y="268"/>
      <point x="127" y="256" type="qcurve"/>
      <point x="121" y="190"/>
      <point x="154" y="104"/>
      <point x="213" y="55"/>
      <point x="291" y="37"/>
      <point x="332" y="39" type="qcurve" smooth="yes"/>
      <point x="377" y="41"/>
      <point x="465" y="70"/>
      <point x="532" y="125"/>
      <point x="573" y="207"/>
      <point x="573" y="260" type="qcurve" smooth="yes"/>
      <point x="573" y="365"/>
      <point x="446" y="500"/>
      <point x="336" y="500" type="qcurve" smooth="yes"/>
      <point x="289" y="500"/>
      <point x="188" y="479"/>
    </contour>
  </outline>
</glyph>
<glyph name="six" format="2">
  <advance width="711"/>
  <unicode hex="0036"/>
  <outline>
    <contour>
      <point x="578" y="621" type="qcurve" smooth="yes"/>
      <point x="559" y="668"/>
      <point x="516" y="719"/>
      <point x="444" y="760"/>
      <point x="391" y="760" type="qcurve" smooth="yes"/>
      <point x="305" y="760"/>
      <point x="188" y="674"/>
      <point x="121" y="541"/>
      <point x="96" y="383"/>
      <point x="102" y="311" type="qcurve"/>
      <point x="119" y="365"/>
      <point x="182" y="426"/>
      <point x="258" y="457"/>
      <point x="336" y="465"/>
      <point x="367" y="465" type="qcurve" smooth="yes"/>
      <point x="436" y="465"/>
      <point x="535" y="416"/>
      <point x="596" y="344"/>
      <point x="623" y="262"/>
      <point x="623" y="229" type="qcurve" smooth="yes"/>
      <point x="623" y="135"/>
      <point x="504" y="2"/>
      <point x="367" y="0" type="qcurve" smooth="yes"/>
      <point x="209" y="-2"/>
      <point x="59" y="178"/>
      <point x="59" y="369" type="qcurve" smooth="yes"/>
      <point x="59" y="459"/>
      <point x="102" y="616"/>
      <point x="184" y="733"/>
      <point x="301" y="801"/>
      <point x="375" y="801" type="qcurve" smooth="yes"/>
      <point x="426" y="801"/>
      <point x="500" y="784"/>
      <point x="557" y="743"/>
      <point x="602" y="674"/>
      <point x="625" y="623" type="qcurve"/>
      <point x="625" y="602"/>
      <point x="586" y="602"/>
    </contour>
    <contour>
      <point x="129" y="250" type="qcurve" smooth="yes"/>
      <point x="129" y="162"/>
      <point x="246" y="37"/>
      <point x="367" y="41" type="qcurve" smooth="yes"/>
      <point x="430" y="43"/>
      <point x="514" y="78"/>
      <point x="563" y="131"/>
      <point x="584" y="193"/>
      <point x="584" y="221" type="qcurve" smooth="yes"/>
      <point x="584" y="248"/>
      <point x="565" y="319"/>
      <point x="518" y="385"/>
      <point x="434" y="428"/>
      <point x="367" y="428" type="qcurve" smooth="yes"/>
      <point x="266" y="428"/>
      <point x="129" y="336"/>
    </contour>
  </outline>
</glyph>
<glyph name="seven" format="2">
  <advance width="653"/>
  <unicode hex="0037"/>
  <outline>
    <contour>
      <point x="299" y="414" type="qcurve" smooth="yes"/>
      <point x="319" y="416"/>
      <point x="348" y="422"/>
      <point x="373" y="426"/>
      <point x="401" y="430"/>
      <point x="426" y="434" type="qcurve"/>
      <point x="434" y="469"/>
      <point x="465" y="596"/>
      <point x="465" y="653" type="qcurve" smooth="yes"/>
      <point x="465" y="729"/>
      <point x="367" y="776"/>
      <point x="291" y="776" type="qcurve" smooth="yes"/>
      <point x="260" y="776"/>
      <point x="197" y="766"/>
      <point x="137" y="754"/>
      <point x="88" y="743"/>
      <point x="70" y="743" type="qcurve" smooth="yes"/>
      <point x="53" y="743"/>
      <point x="39" y="756"/>
      <point x="39" y="762" type="qcurve" smooth="yes"/>
      <point x="39" y="772"/>
      <point x="98" y="795"/>
      <point x="182" y="813"/>
      <point x="270" y="825"/>
      <point x="299" y="825" type="qcurve" smooth="yes"/>
      <point x="342" y="825"/>
      <point x="418" y="809"/>
      <point x="477" y="772"/>
      <point x="512" y="709"/>
      <point x="512" y="664" type="qcurve" smooth="yes"/>
      <point x="512" y="627"/>
      <point x="487" y="500"/>
      <point x="471" y="432" type="qcurve"/>
      <point x="520" y="432"/>
      <point x="571" y="434"/>
      <point x="580" y="426" type="qcurve"/>
      <point x="586" y="420"/>
      <point x="586" y="395"/>
      <point x="565" y="391" type="qcurve"/>
      <point x="549" y="387"/>
      <point x="510" y="387"/>
      <point x="455" y="385" type="qcurve"/>
      <point x="444" y="348"/>
      <point x="410" y="233"/>
      <point x="369" y="119"/>
      <point x="326" y="25"/>
      <point x="307" y="8" type="qcurve" smooth="yes"/>
      <point x="295" y="-2"/>
      <point x="270" y="14"/>
      <point x="279" y="25" type="qcurve"/>
      <point x="293" y="45"/>
      <point x="319" y="94"/>
      <point x="350" y="170"/>
      <point x="389" y="291"/>
      <point x="414" y="385" type="qcurve"/>
      <point x="385" y="383"/>
      <point x="346" y="379"/>
      <point x="322" y="375"/>
      <point x="303" y="371"/>
      <point x="295" y="371" type="qcurve"/>
      <point x="283" y="369"/>
      <point x="268" y="381"/>
      <point x="268" y="395"/>
      <point x="283" y="412"/>
    </contour>
  </outline>
</glyph>
<glyph name="eight" format="2">
  <advance width="700"/>
  <unicode hex="0038"/>
  <outline>
    <contour>
      <point x="469" y="500" type="qcurve"/>
      <point x="543" y="467"/>
      <point x="653" y="344"/>
      <point x="653" y="248" type="qcurve" smooth="yes"/>
      <point x="653" y="186"/>
      <point x="606" y="94"/>
      <point x="524" y="31"/>
      <point x="414" y="0"/>
      <point x="352" y="0" type="qcurve" smooth="yes"/>
      <point x="289" y="0"/>
      <point x="174" y="35"/>
      <point x="88" y="100"/>
      <point x="39" y="197"/>
      <point x="39" y="260" type="qcurve" smooth="yes"/>
      <point x="39" y="348"/>
      <point x="154" y="463"/>
      <point x="236" y="496" type="qcurve"/>
      <point x="205" y="524"/>
      <point x="172" y="600"/>
      <point x="172" y="641" type="qcurve" smooth="yes"/>
      <point x="172" y="684"/>
      <point x="205" y="748"/>
      <point x="256" y="791"/>
      <point x="319" y="813"/>
      <point x="352" y="813" type="qcurve" smooth="yes"/>
      <point x="422" y="813"/>
      <point x="524" y="727"/>
      <point x="524" y="649" type="qcurve" smooth="yes"/>
      <point x="524" y="602"/>
      <point x="502" y="537"/>
    </contour>
    <contour>
      <point x="356" y="467" type="qcurve" smooth="yes"/>
      <point x="297" y="467"/>
      <point x="197" y="434"/>
      <point x="123" y="379"/>
      <point x="82" y="305"/>
      <point x="82" y="264" type="qcurve" smooth="yes"/>
      <point x="82" y="221"/>
      <point x="115" y="141"/>
      <point x="182" y="80"/>
      <point x="285" y="43"/>
      <point x="352" y="43" type="qcurve" smooth="yes"/>
      <point x="422" y="43"/>
      <point x="520" y="78"/>
      <point x="582" y="137"/>
      <point x="610" y="209"/>
      <point x="610" y="246" type="qcurve" smooth="yes"/>
      <point x="610" y="291"/>
      <point x="573" y="373"/>
      <point x="508" y="432"/>
      <point x="414" y="467"/>
    </contour>
    <contour>
      <point x="481" y="647" type="line"/>
      <point x="481" y="649" type="line" smooth="yes"/>
      <point x="481" y="696"/>
      <point x="416" y="770"/>
      <point x="356" y="770" type="qcurve" smooth="yes"/>
      <point x="293" y="770"/>
      <point x="215" y="694"/>
      <point x="215" y="641" type="qcurve" smooth="yes"/>
      <point x="215" y="578"/>
      <point x="297" y="510"/>
      <point x="356" y="510" type="qcurve" smooth="yes"/>
      <point x="403" y="510"/>
      <point x="479" y="573"/>
      <point x="481" y="649" type="qcurve"/>
    </contour>
  </outline>
</glyph>
<glyph name="nine" format="2">
  <advance width="688"/>
  <unicode hex="0039"/>
  <outline>
    <contour>
      <point x="94" y="250" type="qcurve"/>
      <point x="98" y="209"/>
      <point x="131" y="135"/>
      <point x="190" y="76"/>
      <point x="276" y="41"/>
      <point x="336" y="41" type="qcurve" smooth="yes"/>
      <point x="467" y="41"/>
      <point x="604" y="283"/>
      <point x="604" y="494" type="qcurve"/>
      <point x="586" y="440"/>
      <point x="526" y="371"/>
      <point x="453" y="332"/>
      <point x="377" y="315"/>
      <point x="344" y="315" type="qcurve" smooth="yes"/>
      <point x="197" y="315"/>
      <point x="78" y="459"/>
      <point x="78" y="573" type="qcurve" smooth="yes"/>
      <point x="78" y="674"/>
      <point x="211" y="815"/>
      <point x="340" y="815" type="qcurve" smooth="yes"/>
      <point x="475" y="815"/>
      <point x="643" y="631"/>
      <point x="643" y="457" type="qcurve" smooth="yes"/>
      <point x="643" y="360"/>
      <point x="606" y="195"/>
      <point x="532" y="72"/>
      <point x="418" y="2"/>
      <point x="340" y="2" type="qcurve" smooth="yes"/>
      <point x="268" y="2"/>
      <point x="162" y="43"/>
      <point x="90" y="111"/>
      <point x="53" y="197"/>
      <point x="53" y="244" type="qcurve" smooth="yes"/>
      <point x="53" y="264"/>
      <point x="90" y="274"/>
    </contour>
    <contour>
      <point x="559" y="637" type="qcurve"/>
      <point x="530" y="696"/>
      <point x="436" y="772"/>
      <point x="340" y="772" type="qcurve" smooth="yes"/>
      <point x="281" y="772"/>
      <point x="197" y="735"/>
      <point x="143" y="678"/>
      <point x="121" y="608"/>
      <point x="121" y="575" type="qcurve" smooth="yes"/>
      <point x="121" y="539"/>
      <point x="141" y="461"/>
      <point x="193" y="397"/>
      <point x="279" y="358"/>
      <point x="344" y="358" type="qcurve" smooth="yes"/>
      <point x="387" y="358"/>
      <point x="469" y="391"/>
      <point x="535" y="446"/>
      <point x="573" y="522"/>
      <point x="573" y="565" type="qcurve" smooth="yes"/>
      <point x="573" y="602"/>
    </contour>
  </outline>
</glyph>
<glyph name="colon" format="2">
  <advance width="352"/>
  <unicode hex="003A"/>
  <outline>
    <contour>
      <point x="96" y="440" type="qcurve" smooth="yes"/>
      <point x="96" y="471"/>
      <point x="143" y="518"/>
      <point x="174" y="518" type="qcurve" smooth="yes"/>
      <point x="207" y="518"/>
      <point x="254" y="471"/>
      <point x="254" y="440" type="qcurve" smooth="yes"/>
      <point x="254" y="424"/>
      <point x="241" y="395"/>
      <point x="220" y="373"/>
      <point x="190" y="360"/>
      <point x="174" y="360" type="qcurve" smooth="yes"/>
      <point x="159" y="360"/>
      <point x="130" y="373"/>
      <point x="109" y="395"/>
      <point x="96" y="424"/>
    </contour>
    <contour>
      <point x="133" y="442" type="qcurve" smooth="yes"/>
      <point x="133" y="426"/>
      <point x="160" y="397"/>
      <point x="172" y="397" type="qcurve" smooth="yes"/>
      <point x="188" y="397"/>
      <point x="217" y="426"/>
      <point x="217" y="442" type="qcurve" smooth="yes"/>
      <point x="217" y="455"/>
      <point x="188" y="481"/>
      <point x="172" y="481" type="qcurve" smooth="yes"/>
      <point x="160" y="481"/>
      <point x="133" y="455"/>
    </contour>
    <contour>
      <point x="111" y="131" type="qcurve" smooth="yes"/>
      <point x="111" y="146"/>
      <point x="124" y="175"/>
      <point x="145" y="196"/>
      <point x="173" y="209"/>
      <point x="188" y="209" type="qcurve" smooth="yes"/>
      <point x="221" y="209"/>
      <point x="268" y="162"/>
      <point x="268" y="131" type="qcurve" smooth="yes"/>
      <point x="268" y="98"/>
      <point x="221" y="51"/>
      <point x="188" y="51" type="qcurve" smooth="yes"/>
      <point x="158" y="51"/>
      <point x="111" y="98"/>
    </contour>
    <contour>
      <point x="147" y="133" type="qcurve" smooth="yes"/>
      <point x="147" y="117"/>
      <point x="174" y="88"/>
      <point x="186" y="88" type="qcurve" smooth="yes"/>
      <point x="203" y="88"/>
      <point x="231" y="117"/>
      <point x="231" y="133" type="qcurve" smooth="yes"/>
      <point x="231" y="145"/>
      <point x="203" y="172"/>
      <point x="186" y="172" type="qcurve" smooth="yes"/>
      <point x="174" y="172"/>
      <point x="147" y="145"/>
    </contour>
  </outline>
</glyph>
<glyph name="semicolon" format="2">
  <advance width="352"/>
  <unicode hex="003B"/>
  <outline>
    <contour>
      <point x="123" y="-76" type="qcurve"/>
      <point x="201" y="-59"/>
      <point x="266" y="43"/>
      <point x="250" y="100" type="qcurve"/>
      <point x="246" y="82"/>
      <point x="211" y="57"/>
      <point x="186" y="57" type="qcurve" smooth="yes"/>
      <point x="158" y="57"/>
      <point x="113" y="100"/>
      <point x="113" y="131" type="qcurve" smooth="yes"/>
      <point x="113" y="160"/>
      <point x="156" y="205"/>
      <point x="190" y="205" type="qcurve" smooth="yes"/>
      <point x="223" y="205"/>
      <point x="285" y="141"/>
      <point x="283" y="63" type="qcurve" smooth="yes"/>
      <point x="279" y="-16"/>
      <point x="182" y="-90"/>
      <point x="135" y="-98" type="qcurve"/>
      <point x="119" y="-98"/>
      <point x="113" y="-80"/>
    </contour>
    <contour>
      <point x="115" y="463" type="qcurve" smooth="yes"/>
      <point x="115" y="494"/>
      <point x="162" y="541"/>
      <point x="193" y="541" type="qcurve" smooth="yes"/>
      <point x="225" y="541"/>
      <point x="272" y="494"/>
      <point x="272" y="463" type="qcurve" smooth="yes"/>
      <point x="272" y="430"/>
      <point x="225" y="383"/>
      <point x="193" y="383" type="qcurve" smooth="yes"/>
      <point x="162" y="383"/>
      <point x="115" y="430"/>
    </contour>
    <contour>
      <point x="145" y="135" type="qcurve" smooth="yes"/>
      <point x="145" y="117"/>
      <point x="172" y="88"/>
      <point x="186" y="88" type="qcurve" smooth="yes"/>
      <point x="205" y="88"/>
      <point x="233" y="117"/>
      <point x="233" y="135" type="qcurve" smooth="yes"/>
      <point x="233" y="150"/>
      <point x="205" y="176"/>
      <point x="186" y="176" type="qcurve" smooth="yes"/>
      <point x="172" y="176"/>
      <point x="145" y="150"/>
    </contour>
    <contour>
      <point x="152" y="465" type="qcurve" smooth="yes"/>
      <point x="152" y="449"/>
      <point x="178" y="420"/>
      <point x="190" y="420" type="qcurve" smooth="yes"/>
      <point x="207" y="420"/>
      <point x="236" y="449"/>
      <point x="236" y="465" type="qcurve" smooth="yes"/>
      <point x="236" y="477"/>
      <point x="207" y="504"/>
      <point x="190" y="504" type="qcurve" smooth="yes"/>
      <point x="178" y="504"/>
      <point x="152" y="477"/>
    </contour>
  </outline>
</glyph>
<glyph name="less" format="2">
  <advance width="786"/>
  <unicode hex="003C"/>
  <outline>
    <contour>
      <point x="664" y="123" type="qcurve" smooth="yes"/>
      <point x="676" y="117"/>
      <point x="686" y="92"/>
      <point x="678" y="76"/>
      <point x="647" y="70"/>
      <point x="616" y="82" type="qcurve" smooth="yes"/>
      <point x="582" y="94"/>
      <point x="477" y="127"/>
      <point x="365" y="162"/>
      <point x="254" y="201"/>
      <point x="164" y="242"/>
      <point x="109" y="285"/>
      <point x="109" y="307" type="qcurve" smooth="yes"/>
      <point x="109" y="332"/>
      <point x="186" y="383"/>
      <point x="305" y="432"/>
      <point x="446" y="479"/>
      <point x="569" y="514"/>
      <point x="657" y="535"/>
      <point x="664" y="537" type="qcurve"/>
      <point x="700" y="537"/>
      <point x="692" y="504"/>
      <point x="666" y="496" type="qcurve" smooth="yes"/>
      <point x="653" y="492"/>
      <point x="569" y="469"/>
      <point x="457" y="434"/>
      <point x="332" y="393"/>
      <point x="225" y="354"/>
      <point x="158" y="319"/>
      <point x="158" y="307" type="qcurve" smooth="yes"/>
      <point x="158" y="293"/>
      <point x="229" y="256"/>
      <point x="336" y="217"/>
      <point x="463" y="180"/>
      <point x="573" y="150"/>
      <point x="655" y="127"/>
    </contour>
  </outline>
</glyph>
<glyph name="equal" format="2">
  <advance width="635"/>
  <unicode hex="003D"/>
  <outline>
    <contour>
      <point x="80" y="459" type="line"/>
      <point x="68" y="461"/>
      <point x="53" y="479"/>
      <point x="55" y="498"/>
      <point x="74" y="510"/>
      <point x="94" y="508" type="qcurve"/>
      <point x="539" y="512" type="line" smooth="yes"/>
      <point x="551" y="512"/>
      <point x="563" y="498"/>
      <point x="565" y="479"/>
      <point x="551" y="463"/>
      <point x="535" y="463" type="qcurve" smooth="yes"/>
    </contour>
    <contour>
      <point x="80" y="309" type="line"/>
      <point x="68" y="311"/>
      <point x="53" y="330"/>
      <point x="55" y="348"/>
      <point x="74" y="360"/>
      <point x="94" y="358" type="qcurve"/>
      <point x="543" y="371" type="line" smooth="yes"/>
      <point x="555" y="371"/>
      <point x="567" y="356"/>
      <point x="569" y="338"/>
      <point x="555" y="322"/>
      <point x="539" y="322" type="qcurve" smooth="yes"/>
    </contour>
  </outline>
</glyph>
<glyph name="greater" format="2">
  <advance width="786"/>
  <unicode hex="003E"/>
  <outline>
    <contour>
      <point x="137" y="123" type="qcurve" smooth="yes"/>
      <point x="145" y="127"/>
      <point x="227" y="150"/>
      <point x="338" y="180"/>
      <point x="465" y="217"/>
      <point x="571" y="256"/>
      <point x="643" y="293"/>
      <point x="643" y="307" type="qcurve" smooth="yes"/>
      <point x="643" y="319"/>
      <point x="575" y="354"/>
      <point x="469" y="393"/>
      <point x="344" y="434"/>
      <point x="231" y="469"/>
      <point x="145" y="492"/>
      <point x="135" y="496" type="qcurve"/>
      <point x="109" y="504"/>
      <point x="100" y="537"/>
      <point x="137" y="537" type="qcurve"/>
      <point x="143" y="535"/>
      <point x="231" y="514"/>
      <point x="354" y="479"/>
      <point x="496" y="432"/>
      <point x="614" y="383"/>
      <point x="692" y="332"/>
      <point x="692" y="307" type="qcurve" smooth="yes"/>
      <point x="692" y="285"/>
      <point x="637" y="242"/>
      <point x="547" y="201"/>
      <point x="436" y="162"/>
      <point x="324" y="127"/>
      <point x="221" y="94"/>
      <point x="184" y="82" type="qcurve"/>
      <point x="154" y="70"/>
      <point x="123" y="76"/>
      <point x="115" y="92"/>
      <point x="125" y="117"/>
    </contour>
  </outline>
</glyph>
<glyph name="question" format="2">
  <advance width="618"/>
  <unicode hex="003F"/>
  <outline>
    <contour>
      <point x="254" y="78" type="qcurve" smooth="yes"/>
      <point x="254" y="96"/>
      <point x="283" y="125"/>
      <point x="303" y="125" type="qcurve" smooth="yes"/>
      <point x="322" y="125"/>
      <point x="350" y="96"/>
      <point x="350" y="78" type="qcurve" smooth="yes"/>
      <point x="350" y="57"/>
      <point x="322" y="29"/>
      <point x="303" y="29" type="qcurve" smooth="yes"/>
      <point x="283" y="29"/>
      <point x="254" y="57"/>
    </contour>
    <contour>
      <point x="211" y="502" type="qcurve"/>
      <point x="156" y="510"/>
      <point x="74" y="588"/>
      <point x="74" y="649" type="qcurve" smooth="yes"/>
      <point x="74" y="745"/>
      <point x="197" y="856"/>
      <point x="307" y="856" type="qcurve" smooth="yes"/>
      <point x="365" y="856"/>
      <point x="453" y="815"/>
      <point x="508" y="750"/>
      <point x="537" y="668"/>
      <point x="537" y="627" type="qcurve" smooth="yes"/>
      <point x="537" y="559"/>
      <point x="471" y="469"/>
      <point x="393" y="387"/>
      <point x="328" y="299"/>
      <point x="328" y="233" type="qcurve" smooth="yes"/>
      <point x="328" y="223"/>
      <point x="311" y="211"/>
      <point x="301" y="209" type="qcurve"/>
      <point x="285" y="215"/>
      <point x="276" y="254"/>
      <point x="287" y="301" type="qcurve" smooth="yes"/>
      <point x="299" y="354"/>
      <point x="365" y="428"/>
      <point x="434" y="496"/>
      <point x="487" y="571"/>
      <point x="487" y="627" type="qcurve" smooth="yes"/>
      <point x="487" y="696"/>
      <point x="397" y="805"/>
      <point x="309" y="805" type="qcurve" smooth="yes"/>
      <point x="209" y="805"/>
      <point x="123" y="717"/>
      <point x="123" y="649" type="qcurve" smooth="yes"/>
      <point x="123" y="610"/>
      <point x="178" y="563"/>
      <point x="211" y="553" type="qcurve"/>
      <point x="238" y="543"/>
      <point x="227" y="506"/>
    </contour>
  </outline>
</glyph>
<glyph name="at" format="2">
  <advance width="1051"/>
  <unicode hex="0040"/>
  <outline>
    <contour>
      <point x="657" y="475" type="line"/>
      <point x="653" y="539"/>
      <point x="569" y="608"/>
      <point x="524" y="612" type="qcurve" smooth="yes"/>
      <point x="475" y="614"/>
      <point x="408" y="573"/>
      <point x="365" y="514"/>
      <point x="344" y="453"/>
      <point x="342" y="434" type="qcurve" smooth="yes"/>
      <point x="340" y="403"/>
      <point x="348" y="334"/>
      <point x="381" y="272"/>
      <point x="442" y="227"/>
      <point x="492" y="223" type="qcurve" smooth="yes"/>
      <point x="541" y="219"/>
      <point x="623" y="256"/>
      <point x="639" y="297" type="qcurve"/>
      <point x="645" y="315"/>
      <point x="653" y="360"/>
      <point x="657" y="412" type="qcurve"/>
    </contour>
    <contour>
      <point x="881" y="469" type="qcurve" smooth="yes"/>
      <point x="881" y="537"/>
      <point x="829" y="653"/>
      <point x="737" y="737"/>
      <point x="608" y="784"/>
      <point x="530" y="784" type="qcurve" smooth="yes"/>
      <point x="451" y="784"/>
      <point x="313" y="727"/>
      <point x="211" y="627"/>
      <point x="154" y="489"/>
      <point x="154" y="412" type="qcurve" smooth="yes"/>
      <point x="154" y="307"/>
      <point x="254" y="141"/>
      <point x="340" y="92" type="qcurve" smooth="yes"/>
      <point x="426" y="43"/>
      <point x="553" y="43" type="qcurve" smooth="yes"/>
      <point x="571" y="43"/>
      <point x="616" y="47"/>
      <point x="662" y="55"/>
      <point x="702" y="63"/>
      <point x="715" y="68" type="qcurve"/>
      <point x="729" y="63"/>
      <point x="733" y="37"/>
      <point x="711" y="27" type="qcurve"/>
      <point x="676" y="14"/>
      <point x="594" y="2"/>
      <point x="553" y="2" type="qcurve" smooth="yes"/>
      <point x="455" y="2"/>
      <point x="291" y="63"/>
      <point x="172" y="172"/>
      <point x="106" y="324"/>
      <point x="106" y="414" type="qcurve" smooth="yes"/>
      <point x="106" y="500"/>
      <point x="172" y="651"/>
      <point x="287" y="764"/>
      <point x="444" y="827"/>
      <point x="535" y="827" type="qcurve" smooth="yes"/>
      <point x="616" y="827"/>
      <point x="760" y="772"/>
      <point x="864" y="676"/>
      <point x="924" y="545"/>
      <point x="924" y="469" type="qcurve" smooth="yes"/>
      <point x="924" y="418"/>
      <point x="899" y="303"/>
      <point x="848" y="213"/>
      <point x="768" y="166"/>
      <point x="713" y="180" type="qcurve"/>
      <point x="690" y="178"/>
      <point x="659" y="217"/>
      <point x="649" y="242" type="qcurve"/>
      <point x="627" y="207"/>
      <point x="541" y="182"/>
      <point x="492" y="186" type="qcurve" smooth="yes"/>
      <point x="426" y="190"/>
      <point x="350" y="244"/>
      <point x="311" y="319"/>
      <point x="303" y="403"/>
      <point x="305" y="438" type="qcurve" smooth="yes"/>
      <point x="307" y="465"/>
      <point x="332" y="539"/>
      <point x="383" y="604"/>
      <point x="465" y="649"/>
      <point x="524" y="645" type="qcurve" smooth="yes"/>
      <point x="571" y="641"/>
      <point x="639" y="602"/>
      <point x="670" y="559" type="qcurve"/>
      <point x="678" y="612" type="line"/>
      <point x="684" y="631"/>
      <point x="727" y="621"/>
      <point x="727" y="610" type="qcurve"/>
      <point x="719" y="588"/>
      <point x="705" y="487"/>
      <point x="700" y="434" type="qcurve" smooth="yes"/>
      <point x="692" y="371"/>
      <point x="688" y="299" type="qcurve" smooth="yes"/>
      <point x="684" y="258"/>
      <point x="711" y="221"/>
      <point x="727" y="217" type="qcurve"/>
      <point x="770" y="209"/>
      <point x="829" y="262"/>
      <point x="864" y="346"/>
      <point x="881" y="438"/>
    </contour>
  </outline>
</glyph>
<glyph name="A" format="2">
  <advance width="768"/>
  <unicode hex="0041"/>
  <outline>
    <contour>
      <point x="655" y="272" type="line"/>
      <point x="662" y="270"/>
      <point x="670" y="259"/>
      <point x="670" y="247"/>
      <point x="662" y="238"/>
      <point x="653" y="238" type="qcurve" smooth="yes"/>
      <point x="637" y="238" type="line"/>
      <point x="694" y="29" type="line"/>
      <point x="692" y="12"/>
      <point x="673" y="11" type="qcurve" smooth="yes"/>
      <point x="655" y="10"/>
      <point x="651" y="20" type="qcurve"/>
      <point x="596" y="238" type="line"/>
      <point x="203" y="238" type="line"/>
      <point x="137" y="25" type="line"/>
      <point x="132" y="16"/>
      <point x="117" y="8"/>
      <point x="102" y="9"/>
      <point x="93" y="18"/>
      <point x="94" y="27" type="qcurve"/>
      <point x="170" y="276" type="line"/>
      <point x="256" y="528" type="line" smooth="yes"/>
      <point x="280" y="601"/>
      <point x="319" y="716"/>
      <point x="354" y="796"/>
      <point x="386" y="838"/>
      <point x="403" y="838" type="qcurve" smooth="yes"/>
      <point x="436" y="838"/>
      <point x="468" y="754" type="qcurve" smooth="yes"/>
      <point x="484" y="712"/>
      <point x="524" y="597"/>
      <point x="547" y="524" type="qcurve" smooth="yes"/>
      <point x="565" y="470"/>
      <point x="606" y="342"/>
      <point x="631" y="272" type="qcurve"/>
    </contour>
    <contour>
      <point x="575" y="276" type="line"/>
      <point x="565" y="308"/>
      <point x="533" y="409"/>
      <point x="497" y="523"/>
      <point x="460" y="637"/>
      <point x="428" y="730"/>
      <point x="405" y="788"/>
      <point x="401" y="788" type="qcurve" smooth="yes"/>
      <point x="397" y="788"/>
      <point x="367" y="713"/>
      <point x="327" y="600"/>
      <point x="282" y="469"/>
      <point x="262" y="412" type="qcurve" smooth="yes"/>
      <point x="250" y="373"/>
      <point x="225" y="299"/>
      <point x="217" y="281" type="qcurve"/>
    </contour>
  </outline>
</glyph>
<glyph name="B" format="2">
  <advance width="688"/>
  <unicode hex="0042"/>
  <outline>
    <contour>
      <point x="57" y="31" type="line"/>
      <point x="35" y="35"/>
      <point x="37" y="72"/>
      <point x="57" y="76" type="qcurve"/>
      <point x="92" y="76" type="line"/>
      <point x="102" y="180"/>
      <point x="111" y="406"/>
      <point x="111" y="512" type="qcurve" smooth="yes"/>
      <point x="111" y="571"/>
      <point x="109" y="684"/>
      <point x="106" y="739" type="qcurve"/>
      <point x="100" y="739"/>
      <point x="80" y="737"/>
      <point x="74" y="737" type="qcurve"/>
      <point x="59" y="748"/>
      <point x="72" y="778"/>
      <point x="100" y="788" type="qcurve" smooth="yes"/>
      <point x="152" y="809"/>
      <point x="262" y="831"/>
      <point x="317" y="831" type="qcurve" smooth="yes"/>
      <point x="377" y="831"/>
      <point x="485" y="805"/>
      <point x="569" y="752"/>
      <point x="618" y="666"/>
      <point x="618" y="608" type="qcurve" smooth="yes"/>
      <point x="618" y="578"/>
      <point x="590" y="516"/>
      <point x="541" y="463"/>
      <point x="477" y="424"/>
      <point x="444" y="416" type="qcurve"/>
      <point x="516" y="397"/>
      <point x="610" y="285"/>
      <point x="606" y="213" type="qcurve" smooth="yes"/>
      <point x="602" y="127"/>
      <point x="502" y="49"/>
      <point x="358" y="23"/>
      <point x="199" y="31"/>
      <point x="133" y="31" type="qcurve"/>
      <point x="127" y="8"/>
      <point x="92" y="8"/>
      <point x="90" y="31" type="qcurve"/>
    </contour>
    <contour>
      <point x="152" y="770" type="line"/>
      <point x="156" y="596"/>
      <point x="154" y="248"/>
      <point x="133" y="66" type="qcurve"/>
      <point x="178" y="68"/>
      <point x="324" y="61"/>
      <point x="465" y="80"/>
      <point x="567" y="141"/>
      <point x="569" y="211" type="qcurve" smooth="yes"/>
      <point x="571" y="307"/>
      <point x="426" y="397"/>
      <point x="299" y="399" type="qcurve" smooth="yes"/>
      <point x="258" y="399" type="line" smooth="yes"/>
      <point x="231" y="399"/>
      <point x="231" y="420" type="qcurve" smooth="yes"/>
      <point x="231" y="434"/>
      <point x="246" y="438"/>
      <point x="268" y="438" type="qcurve" smooth="yes"/>
      <point x="276" y="438"/>
      <point x="295" y="438"/>
      <point x="305" y="440" type="qcurve"/>
      <point x="356" y="438"/>
      <point x="457" y="459"/>
      <point x="535" y="500"/>
      <point x="582" y="565"/>
      <point x="582" y="608" type="qcurve" smooth="yes"/>
      <point x="582" y="657"/>
      <point x="532" y="729"/>
      <point x="453" y="776"/>
      <point x="352" y="797"/>
      <point x="301" y="797" type="qcurve" smooth="yes"/>
      <point x="211" y="797"/>
      <point x="150" y="768" type="qcurve"/>
    </contour>
  </outline>
</glyph>
<glyph name="C" format="2">
  <advance width="809"/>
  <unicode hex="0043"/>
  <outline>
    <contour>
      <point x="731" y="821" type="qcurve"/>
      <point x="731" y="754" type="line" smooth="yes"/>
      <point x="731" y="725"/>
      <point x="729" y="670"/>
      <point x="727" y="653" type="qcurve"/>
      <point x="723" y="637"/>
      <point x="696" y="637"/>
      <point x="686" y="647" type="qcurve"/>
      <point x="655" y="684"/>
      <point x="600" y="737"/>
      <point x="547" y="774"/>
      <point x="489" y="795"/>
      <point x="455" y="795" type="qcurve" smooth="yes"/>
      <point x="387" y="797"/>
      <point x="258" y="741"/>
      <point x="160" y="635"/>
      <point x="100" y="481"/>
      <point x="100" y="385" type="qcurve" smooth="yes"/>
      <point x="100" y="289"/>
      <point x="162" y="158"/>
      <point x="260" y="76"/>
      <point x="381" y="41"/>
      <point x="438" y="41" type="qcurve" smooth="yes"/>
      <point x="553" y="41"/>
      <point x="707" y="154"/>
      <point x="729" y="281" type="qcurve" smooth="yes"/>
      <point x="733" y="303"/>
      <point x="776" y="301"/>
      <point x="774" y="276" type="qcurve"/>
      <point x="764" y="201"/>
      <point x="705" y="94"/>
      <point x="614" y="29"/>
      <point x="502" y="-2"/>
      <point x="438" y="-2" type="qcurve" smooth="yes"/>
      <point x="375" y="-2"/>
      <point x="242" y="37"/>
      <point x="131" y="129"/>
      <point x="59" y="274"/>
      <point x="59" y="383" type="qcurve" smooth="yes"/>
      <point x="59" y="489"/>
      <point x="125" y="659"/>
      <point x="236" y="776"/>
      <point x="379" y="838"/>
      <point x="455" y="838" type="qcurve" smooth="yes"/>
      <point x="524" y="838"/>
      <point x="639" y="768"/>
      <point x="690" y="719" type="qcurve"/>
      <point x="690" y="743"/>
      <point x="692" y="797"/>
      <point x="692" y="831"/>
      <point x="729" y="834"/>
    </contour>
  </outline>
</glyph>
<glyph name="D" format="2">
  <advance width="791"/>
  <unicode hex="0044"/>
  <outline>
    <contour>
      <point x="162" y="776" type="line"/>
      <point x="111" y="775"/>
      <point x="98" y="805"/>
      <point x="121" y="824"/>
      <point x="160" y="821" type="qcurve"/>
      <point x="162" y="838"/>
      <point x="199" y="838"/>
      <point x="203" y="821" type="qcurve"/>
      <point x="307" y="819"/>
      <point x="496" y="772"/>
      <point x="639" y="678"/>
      <point x="729" y="528"/>
      <point x="735" y="426" type="qcurve"/>
      <point x="733" y="328"/>
      <point x="653" y="170"/>
      <point x="516" y="61"/>
      <point x="326" y="4"/>
      <point x="213" y="6" type="qcurve" smooth="yes"/>
      <point x="190" y="6"/>
      <point x="143" y="8"/>
      <point x="123" y="12" type="qcurve"/>
      <point x="106" y="14"/>
      <point x="104" y="53"/>
      <point x="119" y="55" type="qcurve"/>
      <point x="184" y="47" type="line"/>
    </contour>
    <contour>
      <point x="225" y="49" type="line"/>
      <point x="317" y="45"/>
      <point x="487" y="100"/>
      <point x="614" y="203"/>
      <point x="688" y="344"/>
      <point x="684" y="424" type="qcurve" smooth="yes"/>
      <point x="680" y="524"/>
      <point x="594" y="657"/>
      <point x="459" y="739"/>
      <point x="291" y="776"/>
      <point x="203" y="778" type="qcurve"/>
    </contour>
  </outline>
</glyph>
<glyph name="E" format="2">
  <advance width="629"/>
  <unicode hex="0045"/>
  <outline>
    <contour>
      <point x="94" y="63" type="qcurve"/>
      <point x="106" y="143"/>
      <point x="115" y="319"/>
      <point x="119" y="412" type="qcurve"/>
      <point x="90" y="416" type="line"/>
      <point x="80" y="416"/>
      <point x="66" y="428"/>
      <point x="72" y="438" type="qcurve" smooth="yes"/>
      <point x="78" y="449"/>
      <point x="90" y="455"/>
      <point x="119" y="453" type="qcurve"/>
      <point x="119" y="471"/>
      <point x="123" y="537"/>
      <point x="123" y="625"/>
      <point x="121" y="727"/>
      <point x="117" y="780" type="qcurve"/>
      <point x="92" y="778"/>
      <point x="88" y="813"/>
      <point x="117" y="813" type="qcurve"/>
      <point x="176" y="817"/>
      <point x="319" y="819"/>
      <point x="453" y="817"/>
      <point x="557" y="811"/>
      <point x="575" y="807" type="qcurve" smooth="yes"/>
      <point x="590" y="803"/>
      <point x="582" y="772"/>
      <point x="565" y="770" type="qcurve"/>
      <point x="543" y="772"/>
      <point x="451" y="776"/>
      <point x="336" y="780"/>
      <point x="213" y="778"/>
      <point x="160" y="774" type="qcurve"/>
      <point x="162" y="733"/>
      <point x="162" y="625"/>
      <point x="162" y="575" type="qcurve" smooth="yes"/>
      <point x="162" y="518"/>
      <point x="160" y="457" type="qcurve"/>
      <point x="190" y="455"/>
      <point x="268" y="455"/>
      <point x="354" y="455"/>
      <point x="436" y="453"/>
      <point x="471" y="449" type="qcurve"/>
      <point x="483" y="446"/>
      <point x="489" y="412"/>
      <point x="475" y="412" type="qcurve"/>
      <point x="473" y="408"/>
      <point x="403" y="412"/>
      <point x="305" y="414"/>
      <point x="199" y="416"/>
      <point x="162" y="412" type="qcurve"/>
      <point x="162" y="377"/>
      <point x="156" y="289"/>
      <point x="150" y="197"/>
      <point x="143" y="106"/>
      <point x="143" y="72" type="qcurve"/>
      <point x="201" y="68"/>
      <point x="295" y="57"/>
      <point x="389" y="51"/>
      <point x="489" y="53"/>
      <point x="551" y="63" type="qcurve"/>
      <point x="563" y="63"/>
      <point x="580" y="51"/>
      <point x="580" y="45" type="qcurve" smooth="yes"/>
      <point x="580" y="31"/>
      <point x="518" y="18"/>
      <point x="422" y="14"/>
      <point x="305" y="20"/>
      <point x="195" y="25"/>
      <point x="106" y="29"/>
      <point x="61" y="25"/>
      <point x="53" y="43"/>
      <point x="53" y="55" type="qcurve" smooth="yes"/>
      <point x="53" y="68"/>
      <point x="75" y="70"/>
    </contour>
  </outline>
</glyph>
<glyph name="F" format="2">
  <advance width="608"/>
  <unicode hex="0046"/>
  <outline>
    <contour>
      <point x="51" y="410" type="line"/>
      <point x="129" y="424" type="line"/>
      <point x="129" y="528"/>
      <point x="119" y="709"/>
      <point x="115" y="774" type="qcurve"/>
      <point x="59" y="772" type="line" smooth="yes"/>
      <point x="39" y="772"/>
      <point x="37" y="811"/>
      <point x="59" y="811" type="qcurve" smooth="yes"/>
      <point x="111" y="813" type="line"/>
      <point x="106" y="854" type="line"/>
      <point x="106" y="866"/>
      <point x="121" y="877"/>
      <point x="137" y="874"/>
      <point x="152" y="858"/>
      <point x="152" y="846" type="qcurve"/>
      <point x="158" y="819" type="line"/>
      <point x="184" y="819"/>
      <point x="319" y="825"/>
      <point x="463" y="823"/>
      <point x="573" y="807"/>
      <point x="573" y="786" type="qcurve" smooth="yes"/>
      <point x="573" y="772"/>
      <point x="555" y="764" type="qcurve"/>
      <point x="524" y="770"/>
      <point x="457" y="776"/>
      <point x="367" y="780"/>
      <point x="244" y="780"/>
      <point x="158" y="778" type="qcurve"/>
      <point x="166" y="700"/>
      <point x="174" y="524"/>
      <point x="174" y="434" type="qcurve"/>
      <point x="180" y="434"/>
      <point x="233" y="438"/>
      <point x="305" y="440"/>
      <point x="387" y="442"/>
      <point x="455" y="436"/>
      <point x="500" y="422"/>
      <point x="500" y="410" type="qcurve" smooth="yes"/>
      <point x="500" y="389"/>
      <point x="481" y="389" type="qcurve"/>
      <point x="408" y="395"/>
      <point x="260" y="401"/>
      <point x="174" y="391" type="qcurve"/>
      <point x="174" y="317"/>
      <point x="174" y="180"/>
      <point x="168" y="74"/>
      <point x="158" y="8"/>
      <point x="145" y="8" type="qcurve" smooth="yes"/>
      <point x="135" y="8"/>
      <point x="117" y="8"/>
      <point x="115" y="20" type="qcurve"/>
      <point x="127" y="129"/>
      <point x="129" y="299"/>
      <point x="129" y="391" type="qcurve"/>
      <point x="106" y="383"/>
      <point x="68" y="369"/>
      <point x="57" y="369" type="qcurve" smooth="yes"/>
      <point x="41" y="369"/>
      <point x="41" y="406"/>
      <point x="53" y="410" type="qcurve"/>
    </contour>
  </outline>
</glyph>
<glyph name="G" format="2">
  <advance width="858"/>
  <unicode hex="0047"/>
  <outline>
    <contour>
      <point x="772" y="393" type="qcurve" smooth="yes"/>
      <point x="791" y="391"/>
      <point x="786" y="358"/>
      <point x="772" y="358" type="qcurve" smooth="yes"/>
      <point x="741" y="358" type="line"/>
      <point x="743" y="299"/>
      <point x="717" y="172"/>
      <point x="649" y="70"/>
      <point x="530" y="4"/>
      <point x="442" y="4" type="qcurve" smooth="yes"/>
      <point x="350" y="4"/>
      <point x="209" y="72"/>
      <point x="111" y="184"/>
      <point x="59" y="330"/>
      <point x="59" y="410" type="qcurve" smooth="yes"/>
      <point x="59" y="487"/>
      <point x="111" y="631"/>
      <point x="207" y="741"/>
      <point x="340" y="807"/>
      <point x="420" y="809" type="qcurve" smooth="yes"/>
      <point x="504" y="811"/>
      <point x="635" y="768"/>
      <point x="707" y="692" type="qcurve"/>
      <point x="717" y="694"/>
      <point x="719" y="721"/>
      <point x="715" y="754" type="qcurve" smooth="yes"/>
      <point x="713" y="770"/>
      <point x="748" y="770"/>
      <point x="748" y="758" type="qcurve"/>
      <point x="754" y="719"/>
      <point x="741" y="651"/>
      <point x="721" y="653" type="qcurve"/>
      <point x="694" y="649"/>
      <point x="653" y="682"/>
      <point x="631" y="702" type="qcurve" smooth="yes"/>
      <point x="596" y="733"/>
      <point x="508" y="766"/>
      <point x="418" y="764" type="qcurve" smooth="yes"/>
      <point x="354" y="764"/>
      <point x="242" y="711"/>
      <point x="158" y="616"/>
      <point x="109" y="485"/>
      <point x="109" y="410" type="qcurve" smooth="yes"/>
      <point x="109" y="332"/>
      <point x="154" y="201"/>
      <point x="238" y="102"/>
      <point x="362" y="47"/>
      <point x="442" y="47" type="qcurve" smooth="yes"/>
      <point x="516" y="47"/>
      <point x="614" y="94"/>
      <point x="674" y="176"/>
      <point x="696" y="287"/>
      <point x="696" y="350" type="qcurve"/>
      <point x="700" y="350"/>
      <point x="672" y="352"/>
      <point x="629" y="356" type="qcurve"/>
      <point x="616" y="358"/>
      <point x="604" y="373"/>
      <point x="606" y="387"/>
      <point x="616" y="399"/>
      <point x="627" y="399" type="qcurve"/>
      <point x="672" y="395"/>
      <point x="715" y="395"/>
      <point x="739" y="395"/>
      <point x="754" y="395"/>
    </contour>
  </outline>
</glyph>
<glyph name="H" format="2">
  <advance width="782"/>
  <unicode hex="0048"/>
  <outline>
    <contour>
      <point x="141" y="395" type="line"/>
      <point x="176" y="827" type="line"/>
      <point x="178" y="840"/>
      <point x="195" y="848"/>
      <point x="213" y="846"/>
      <point x="225" y="834"/>
      <point x="223" y="825" type="qcurve"/>
      <point x="182" y="395" type="line"/>
      <point x="618" y="389" type="line"/>
      <point x="600" y="827" type="line" smooth="yes"/>
      <point x="600" y="838"/>
      <point x="614" y="848"/>
      <point x="633" y="848"/>
      <point x="647" y="838"/>
      <point x="645" y="829" type="qcurve"/>
      <point x="662" y="389" type="line"/>
      <point x="709" y="387" type="line" smooth="yes"/>
      <point x="731" y="385"/>
      <point x="731" y="346"/>
      <point x="711" y="346" type="qcurve" smooth="yes"/>
      <point x="662" y="346" type="line"/>
      <point x="668" y="39" type="line" smooth="yes"/>
      <point x="668" y="27"/>
      <point x="655" y="12"/>
      <point x="637" y="8"/>
      <point x="623" y="14"/>
      <point x="623" y="27" type="qcurve" smooth="yes"/>
      <point x="623" y="346" type="line"/>
      <point x="174" y="354" type="line"/>
      <point x="152" y="14" type="line"/>
      <point x="147" y="0"/>
      <point x="106" y="6"/>
      <point x="111" y="20" type="qcurve"/>
      <point x="135" y="356" type="line"/>
      <point x="84" y="358" type="line"/>
      <point x="63" y="362"/>
      <point x="70" y="397"/>
      <point x="86" y="397" type="qcurve" smooth="yes"/>
    </contour>
  </outline>
</glyph>
<glyph name="I" format="2">
  <advance width="455"/>
  <unicode hex="0049"/>
  <outline>
    <contour>
      <point x="213" y="53" type="qcurve"/>
      <point x="215" y="78"/>
      <point x="221" y="193"/>
      <point x="225" y="338"/>
      <point x="231" y="500"/>
      <point x="236" y="647"/>
      <point x="238" y="762"/>
      <point x="238" y="786" type="qcurve"/>
      <point x="215" y="788"/>
      <point x="182" y="788"/>
      <point x="145" y="788"/>
      <point x="98" y="786"/>
      <point x="63" y="784" type="qcurve"/>
      <point x="45" y="782"/>
      <point x="27" y="799"/>
      <point x="31" y="809" type="qcurve"/>
      <point x="33" y="819"/>
      <point x="133" y="829"/>
      <point x="260" y="834"/>
      <point x="385" y="829"/>
      <point x="414" y="825" type="qcurve"/>
      <point x="434" y="821"/>
      <point x="422" y="786"/>
      <point x="410" y="786" type="qcurve"/>
      <point x="356" y="791"/>
      <point x="309" y="791"/>
      <point x="279" y="788" type="qcurve"/>
      <point x="279" y="764"/>
      <point x="276" y="651"/>
      <point x="272" y="504"/>
      <point x="266" y="340"/>
      <point x="262" y="193"/>
      <point x="256" y="78"/>
      <point x="254" y="53" type="qcurve"/>
      <point x="276" y="49"/>
      <point x="332" y="45"/>
      <point x="354" y="45" type="qcurve"/>
      <point x="381" y="43"/>
      <point x="408" y="45" type="qcurve"/>
      <point x="430" y="43"/>
      <point x="426" y="6"/>
      <point x="408" y="6" type="qcurve" smooth="yes"/>
      <point x="51" y="12" type="line"/>
      <point x="33" y="18"/>
      <point x="41" y="51"/>
      <point x="51" y="51" type="qcurve"/>
      <point x="86" y="49"/>
      <point x="117" y="49" type="qcurve" smooth="yes"/>
      <point x="143" y="49"/>
      <point x="197" y="49"/>
    </contour>
  </outline>
</glyph>
<glyph name="J" format="2">
  <advance width="575"/>
  <unicode hex="004A"/>
  <outline>
    <contour>
      <point x="496" y="784" type="qcurve"/>
      <point x="492" y="717"/>
      <point x="489" y="598"/>
      <point x="489" y="483"/>
      <point x="492" y="369"/>
      <point x="489" y="305" type="qcurve" smooth="yes"/>
      <point x="487" y="223"/>
      <point x="449" y="109"/>
      <point x="387" y="35"/>
      <point x="307" y="2"/>
      <point x="268" y="2" type="qcurve" smooth="yes"/>
      <point x="231" y="2"/>
      <point x="145" y="23"/>
      <point x="72" y="86"/>
      <point x="27" y="201"/>
      <point x="29" y="295" type="qcurve" smooth="yes"/>
      <point x="29" y="322"/>
      <point x="68" y="317"/>
      <point x="68" y="295" type="qcurve" smooth="yes"/>
      <point x="68" y="209"/>
      <point x="106" y="106"/>
      <point x="168" y="55"/>
      <point x="236" y="41"/>
      <point x="264" y="41" type="qcurve" smooth="yes"/>
      <point x="297" y="41"/>
      <point x="358" y="70"/>
      <point x="410" y="131"/>
      <point x="442" y="231"/>
      <point x="446" y="303" type="qcurve" smooth="yes"/>
      <point x="451" y="373"/>
      <point x="451" y="494"/>
      <point x="449" y="608"/>
      <point x="446" y="723"/>
      <point x="451" y="784" type="qcurve"/>
      <point x="408" y="784"/>
      <point x="360" y="782" type="qcurve"/>
      <point x="340" y="780"/>
      <point x="334" y="807"/>
      <point x="342" y="815" type="qcurve" smooth="yes"/>
      <point x="348" y="821"/>
      <point x="406" y="825"/>
      <point x="477" y="825"/>
      <point x="551" y="823"/>
      <point x="571" y="821" type="qcurve" smooth="yes"/>
      <point x="594" y="819"/>
      <point x="602" y="807"/>
      <point x="598" y="797" type="qcurve"/>
      <point x="594" y="784"/>
      <point x="543" y="786"/>
    </contour>
  </outline>
</glyph>
<glyph name="K" format="2">
  <advance width="688"/>
  <unicode hex="004B"/>
  <outline>
    <contour>
      <point x="203" y="453" type="qcurve"/>
      <point x="207" y="434"/>
      <point x="285" y="346"/>
      <point x="408" y="236"/>
      <point x="561" y="113"/>
      <point x="643" y="57" type="qcurve" smooth="yes"/>
      <point x="651" y="51"/>
      <point x="651" y="35"/>
      <point x="643" y="20"/>
      <point x="625" y="14"/>
      <point x="616" y="23" type="qcurve"/>
      <point x="532" y="82"/>
      <point x="403" y="180"/>
      <point x="297" y="274"/>
      <point x="205" y="373"/>
      <point x="156" y="430" type="qcurve"/>
      <point x="150" y="45" type="line"/>
      <point x="147" y="31"/>
      <point x="131" y="16"/>
      <point x="115" y="18"/>
      <point x="100" y="33"/>
      <point x="102" y="47" type="qcurve"/>
      <point x="104" y="170"/>
      <point x="109" y="373"/>
      <point x="109" y="557"/>
      <point x="109" y="729"/>
      <point x="106" y="819" type="qcurve" smooth="yes"/>
      <point x="106" y="827"/>
      <point x="121" y="836"/>
      <point x="137" y="834"/>
      <point x="152" y="823"/>
      <point x="152" y="815" type="qcurve"/>
      <point x="150" y="717"/>
      <point x="152" y="559"/>
      <point x="156" y="481" type="qcurve"/>
      <point x="272" y="557"/>
      <point x="373" y="625" type="qcurve" smooth="yes"/>
      <point x="416" y="653"/>
      <point x="502" y="713"/>
      <point x="575" y="766"/>
      <point x="633" y="809"/>
      <point x="647" y="823" type="qcurve"/>
      <point x="666" y="834"/>
      <point x="682" y="795"/>
      <point x="672" y="786" type="qcurve" smooth="yes"/>
      <point x="655" y="770"/>
      <point x="600" y="725"/>
      <point x="526" y="674"/>
      <point x="444" y="614"/>
      <point x="406" y="588" type="qcurve" smooth="yes"/>
      <point x="311" y="522"/>
    </contour>
  </outline>
</glyph>
<glyph name="L" format="2">
  <advance width="592"/>
  <unicode hex="004C"/>
  <outline>
    <contour>
      <point x="113" y="203" type="qcurve" smooth="yes"/>
      <point x="111" y="172"/>
      <point x="119" y="117"/>
      <point x="152" y="74"/>
      <point x="213" y="53"/>
      <point x="266" y="57" type="qcurve" smooth="yes"/>
      <point x="324" y="61"/>
      <point x="444" y="80"/>
      <point x="520" y="90" type="qcurve"/>
      <point x="530" y="92"/>
      <point x="547" y="82"/>
      <point x="553" y="63"/>
      <point x="543" y="45"/>
      <point x="528" y="43" type="qcurve" smooth="yes"/>
      <point x="487" y="37"/>
      <point x="426" y="27"/>
      <point x="369" y="18"/>
      <point x="307" y="14"/>
      <point x="270" y="14" type="qcurve" smooth="yes"/>
      <point x="217" y="14"/>
      <point x="141" y="23"/>
      <point x="94" y="61"/>
      <point x="72" y="147"/>
      <point x="72" y="227" type="qcurve" smooth="yes"/>
      <point x="76" y="358"/>
      <point x="90" y="575"/>
      <point x="100" y="655" type="qcurve" smooth="yes"/>
      <point x="111" y="748"/>
      <point x="123" y="823" type="qcurve"/>
      <point x="125" y="831"/>
      <point x="139" y="842"/>
      <point x="158" y="840"/>
      <point x="170" y="827"/>
      <point x="168" y="817" type="qcurve" smooth="yes"/>
      <point x="139" y="664"/>
      <point x="121" y="348"/>
    </contour>
  </outline>
</glyph>
<glyph name="M" format="2">
  <advance width="956"/>
  <unicode hex="004D"/>
  <outline>
    <contour>
      <point x="834" y="27" type="qcurve"/>
      <point x="836" y="10"/>
      <point x="823" y="0"/>
      <point x="813" y="0" type="qcurve" smooth="yes"/>
      <point x="803" y="0"/>
      <point x="788" y="6" type="qcurve"/>
      <point x="786" y="57"/>
      <point x="780" y="215"/>
      <point x="774" y="391"/>
      <point x="764" y="567"/>
      <point x="752" y="709"/>
      <point x="739" y="795"/>
      <point x="733" y="795" type="qcurve"/>
      <point x="694" y="788"/>
      <point x="614" y="686"/>
      <point x="545" y="543"/>
      <point x="496" y="381"/>
      <point x="489" y="315" type="qcurve" smooth="yes"/>
      <point x="487" y="293"/>
      <point x="455" y="293"/>
      <point x="451" y="309" type="qcurve"/>
      <point x="440" y="369"/>
      <point x="393" y="537"/>
      <point x="330" y="690"/>
      <point x="258" y="797"/>
      <point x="223" y="797" type="qcurve" smooth="yes"/>
      <point x="211" y="797"/>
      <point x="186" y="672"/>
      <point x="168" y="457"/>
      <point x="156" y="174"/>
      <point x="156" y="18" type="qcurve"/>
      <point x="150" y="6"/>
      <point x="121" y="6"/>
      <point x="111" y="14" type="qcurve"/>
      <point x="113" y="426"/>
      <point x="158" y="842"/>
      <point x="217" y="842" type="qcurve" smooth="yes"/>
      <point x="254" y="842"/>
      <point x="328" y="776"/>
      <point x="393" y="662"/>
      <point x="451" y="504"/>
      <point x="471" y="412" type="qcurve"/>
      <point x="485" y="504"/>
      <point x="547" y="662"/>
      <point x="625" y="776"/>
      <point x="711" y="842"/>
      <point x="748" y="842" type="qcurve" smooth="yes"/>
      <point x="774" y="842"/>
      <point x="801" y="723"/>
      <point x="815" y="506"/>
      <point x="823" y="207"/>
    </contour>
  </outline>
</glyph>
<glyph name="N" format="2">
  <advance width="877"/>
  <unicode hex="004E"/>
  <outline>
    <contour>
      <point x="164" y="762" type="qcurve"/>
      <point x="153" y="588"/>
      <point x="158" y="397" type="qcurve" smooth="yes"/>
      <point x="160" y="301"/>
      <point x="162" y="118"/>
      <point x="162" y="27" type="qcurve" smooth="yes"/>
      <point x="162" y="20"/>
      <point x="147" y="13"/>
      <point x="128" y="13"/>
      <point x="113" y="20"/>
      <point x="113" y="27" type="qcurve" smooth="yes"/>
      <point x="115" y="92"/>
      <point x="114" y="264"/>
      <point x="113" y="444"/>
      <point x="113" y="618"/>
      <point x="120" y="754"/>
      <point x="135" y="838"/>
      <point x="150" y="838" type="qcurve" smooth="yes"/>
      <point x="168" y="838"/>
      <point x="213" y="781" type="qcurve" smooth="yes"/>
      <point x="258" y="724"/>
      <point x="372" y="553"/>
      <point x="435" y="453" type="qcurve" smooth="yes"/>
      <point x="552" y="268" type="line" smooth="yes"/>
      <point x="579" y="225"/>
      <point x="625" y="154"/>
      <point x="645" y="125" type="qcurve" smooth="yes"/>
      <point x="684" y="68"/>
      <point x="692" y="66" type="qcurve"/>
      <point x="697" y="64"/>
      <point x="706" y="118"/>
      <point x="712" y="217"/>
      <point x="717" y="357"/>
      <point x="720" y="526"/>
      <point x="721" y="716"/>
      <point x="721" y="817" type="qcurve"/>
      <point x="726" y="840"/>
      <point x="745" y="837" type="qcurve" smooth="yes"/>
      <point x="766" y="834"/>
      <point x="766" y="813" type="qcurve" smooth="yes"/>
      <point x="766" y="546" type="line" smooth="yes"/>
      <point x="766" y="476"/>
      <point x="763" y="347"/>
      <point x="761" y="287" type="qcurve" smooth="yes"/>
      <point x="757" y="170"/>
      <point x="741" y="91" type="qcurve" smooth="yes"/>
      <point x="727" y="14"/>
      <point x="696" y="16" type="qcurve" smooth="yes"/>
      <point x="670" y="18"/>
      <point x="625" y="75" type="qcurve" smooth="yes"/>
      <point x="602" y="104"/>
      <point x="550" y="176"/>
      <point x="521" y="220" type="qcurve" smooth="yes"/>
      <point x="492" y="264"/>
      <point x="430" y="359"/>
      <point x="396" y="413" type="qcurve" smooth="yes"/>
      <point x="363" y="467"/>
      <point x="296" y="570"/>
      <point x="262" y="621" type="qcurve" smooth="yes"/>
      <point x="213" y="692" type="line" smooth="yes"/>
      <point x="204" y="706"/>
      <point x="186" y="730"/>
      <point x="178" y="741" type="qcurve" smooth="yes"/>
      <point x="170" y="752"/>
      <point x="163" y="763"/>
    </contour>
  </outline>
</glyph>
<glyph name="O" format="2">
  <advance width="922"/>
  <unicode hex="004F"/>
  <outline>
    <contour>
      <point x="850" y="389" type="qcurve" smooth="yes"/>
      <point x="846" y="289"/>
      <point x="774" y="145"/>
      <point x="659" y="55"/>
      <point x="514" y="12"/>
      <point x="438" y="12" type="qcurve" smooth="yes"/>
      <point x="373" y="12"/>
      <point x="240" y="55"/>
      <point x="133" y="147"/>
      <point x="66" y="289"/>
      <point x="66" y="387" type="qcurve" smooth="yes"/>
      <point x="66" y="487"/>
      <point x="119" y="651"/>
      <point x="217" y="766"/>
      <point x="354" y="829"/>
      <point x="440" y="829" type="qcurve" smooth="yes"/>
      <point x="526" y="829"/>
      <point x="678" y="768"/>
      <point x="791" y="653"/>
      <point x="852" y="489"/>
    </contour>
    <contour>
      <point x="805" y="389" type="qcurve"/>
      <point x="797" y="582"/>
      <point x="592" y="784"/>
      <point x="440" y="782" type="qcurve" smooth="yes"/>
      <point x="371" y="782"/>
      <point x="252" y="731"/>
      <point x="164" y="633"/>
      <point x="115" y="485"/>
      <point x="115" y="387" type="qcurve" smooth="yes"/>
      <point x="115" y="293"/>
      <point x="180" y="166"/>
      <point x="279" y="90"/>
      <point x="393" y="57"/>
      <point x="442" y="57" type="qcurve" smooth="yes"/>
      <point x="506" y="57"/>
      <point x="633" y="88"/>
      <point x="735" y="164"/>
      <point x="803" y="293"/>
    </contour>
  </outline>
</glyph>
<glyph name="P" format="2">
  <advance width="678"/>
  <unicode hex="0050"/>
  <outline>
    <contour>
      <point x="139" y="743" type="qcurve"/>
      <point x="143" y="682"/>
      <point x="152" y="489"/>
      <point x="158" y="403" type="qcurve"/>
      <point x="236" y="375"/>
      <point x="393" y="369"/>
      <point x="522" y="412"/>
      <point x="602" y="504"/>
      <point x="604" y="575" type="qcurve" smooth="yes"/>
      <point x="606" y="639"/>
      <point x="522" y="737"/>
      <point x="387" y="788"/>
      <point x="219" y="782"/>
    </contour>
    <contour>
      <point x="133" y="780" type="qcurve"/>
      <point x="207" y="817"/>
      <point x="385" y="827"/>
      <point x="541" y="776"/>
      <point x="645" y="662"/>
      <point x="643" y="573" type="qcurve" smooth="yes"/>
      <point x="641" y="487"/>
      <point x="553" y="375"/>
      <point x="414" y="324"/>
      <point x="242" y="330"/>
      <point x="156" y="362" type="qcurve"/>
      <point x="154" y="12" type="line"/>
      <point x="154" y="4"/>
      <point x="135" y="-6"/>
      <point x="117" y="-8"/>
      <point x="102" y="2"/>
      <point x="102" y="14" type="qcurve"/>
      <point x="115" y="231"/>
      <point x="100" y="602"/>
      <point x="100" y="723" type="qcurve"/>
      <point x="82" y="715" type="line"/>
      <point x="72" y="705"/>
      <point x="53" y="725"/>
      <point x="64" y="739" type="qcurve"/>
      <point x="78" y="754"/>
      <point x="88" y="760" type="qcurve" smooth="yes"/>
      <point x="94" y="764"/>
      <point x="98" y="766" type="qcurve"/>
      <point x="96" y="811" type="line"/>
      <point x="94" y="827"/>
      <point x="111" y="829"/>
      <point x="131" y="827"/>
      <point x="133" y="778"/>
    </contour>
  </outline>
</glyph>
<glyph name="Q" format="2">
  <advance width="901"/>
  <unicode hex="0051"/>
  <outline>
    <contour>
      <point x="817" y="63" type="line"/>
      <point x="827" y="51"/>
      <point x="811" y="20"/>
      <point x="795" y="27" type="qcurve"/>
      <point x="795" y="27"/>
      <point x="788" y="31"/>
      <point x="770" y="47"/>
      <point x="733" y="84"/>
      <point x="700" y="119" type="qcurve"/>
      <point x="647" y="72"/>
      <point x="508" y="18"/>
      <point x="432" y="18" type="qcurve" smooth="yes"/>
      <point x="260" y="18"/>
      <point x="68" y="227"/>
      <point x="63" y="414" type="qcurve" smooth="yes"/>
      <point x="61" y="512"/>
      <point x="129" y="670"/>
      <point x="238" y="778"/>
      <point x="379" y="834"/>
      <point x="451" y="834" type="qcurve" smooth="yes"/>
      <point x="518" y="834"/>
      <point x="655" y="778"/>
      <point x="766" y="672"/>
      <point x="834" y="514"/>
      <point x="834" y="412" type="qcurve" smooth="yes"/>
      <point x="834" y="322"/>
      <point x="788" y="203"/>
      <point x="735" y="143" type="qcurve"/>
    </contour>
    <contour>
      <point x="705" y="176" type="qcurve"/>
      <point x="748" y="227"/>
      <point x="793" y="338"/>
      <point x="788" y="416" type="qcurve" smooth="yes"/>
      <point x="782" y="498"/>
      <point x="723" y="635"/>
      <point x="629" y="733"/>
      <point x="512" y="786"/>
      <point x="451" y="786" type="qcurve" smooth="yes"/>
      <point x="391" y="786"/>
      <point x="270" y="735"/>
      <point x="172" y="637"/>
      <point x="111" y="500"/>
      <point x="111" y="414" type="qcurve" smooth="yes"/>
      <point x="111" y="334"/>
      <point x="156" y="205"/>
      <point x="242" y="113"/>
      <point x="360" y="63"/>
      <point x="432" y="63" type="qcurve" smooth="yes"/>
      <point x="496" y="63"/>
      <point x="621" y="109"/>
      <point x="668" y="154" type="qcurve"/>
      <point x="567" y="256" type="line"/>
      <point x="557" y="268"/>
      <point x="590" y="299"/>
      <point x="600" y="291" type="qcurve" smooth="yes"/>
      <point x="608" y="285"/>
      <point x="616" y="274"/>
      <point x="633" y="254"/>
      <point x="668" y="215"/>
    </contour>
  </outline>
</glyph>
<glyph name="R" format="2">
  <advance width="731"/>
  <unicode hex="0052"/>
  <outline>
    <contour>
      <point x="137" y="733" type="qcurve"/>
      <point x="141" y="672"/>
      <point x="139" y="504"/>
      <point x="150" y="418" type="qcurve"/>
      <point x="201" y="393"/>
      <point x="356" y="383"/>
      <point x="500" y="418"/>
      <point x="604" y="504"/>
      <point x="604" y="575" type="qcurve" smooth="yes"/>
      <point x="604" y="641"/>
      <point x="526" y="737"/>
      <point x="397" y="784"/>
      <point x="227" y="774"/>
    </contour>
    <contour>
      <point x="137" y="778" type="line"/>
      <point x="221" y="815"/>
      <point x="403" y="827"/>
      <point x="555" y="778"/>
      <point x="649" y="664"/>
      <point x="647" y="571" type="qcurve" smooth="yes"/>
      <point x="645" y="489"/>
      <point x="537" y="387"/>
      <point x="383" y="342"/>
      <point x="217" y="348"/>
      <point x="158" y="377" type="qcurve"/>
      <point x="621" y="55" type="line"/>
      <point x="629" y="47"/>
      <point x="627" y="31"/>
      <point x="616" y="16"/>
      <point x="598" y="12"/>
      <point x="592" y="16" type="qcurve" smooth="yes"/>
      <point x="152" y="334" type="line"/>
      <point x="152" y="287"/>
      <point x="152" y="186"/>
      <point x="152" y="96"/>
      <point x="150" y="29"/>
      <point x="147" y="14" type="qcurve"/>
      <point x="147" y="6"/>
      <point x="131" y="-4"/>
      <point x="115" y="-4"/>
      <point x="102" y="6"/>
      <point x="102" y="18" type="qcurve"/>
      <point x="115" y="236"/>
      <point x="98" y="600"/>
      <point x="98" y="721" type="qcurve"/>
      <point x="80" y="713" type="line"/>
      <point x="70" y="702"/>
      <point x="51" y="723"/>
      <point x="61" y="733" type="qcurve"/>
      <point x="76" y="752"/>
      <point x="86" y="758" type="qcurve" smooth="yes"/>
      <point x="92" y="762"/>
      <point x="96" y="764" type="qcurve"/>
      <point x="94" y="809" type="line"/>
      <point x="92" y="825"/>
      <point x="127" y="825"/>
      <point x="133" y="817" type="qcurve"/>
    </contour>
  </outline>
</glyph>
<glyph name="S" format="2">
  <advance width="621"/>
  <unicode hex="0053"/>
  <outline>
    <contour>
      <point x="500" y="610" type="qcurve" smooth="yes"/>
      <point x="498" y="641"/>
      <point x="477" y="705"/>
      <point x="434" y="756"/>
      <point x="369" y="788"/>
      <point x="322" y="788" type="qcurve" smooth="yes"/>
      <point x="221" y="791"/>
      <point x="119" y="678"/>
      <point x="123" y="598" type="qcurve" smooth="yes"/>
      <point x="125" y="573"/>
      <point x="141" y="528"/>
      <point x="186" y="485"/>
      <point x="266" y="446"/>
      <point x="330" y="428" type="qcurve" smooth="yes"/>
      <point x="406" y="408"/>
      <point x="496" y="348"/>
      <point x="541" y="281"/>
      <point x="553" y="211"/>
      <point x="551" y="180" type="qcurve" smooth="yes"/>
      <point x="549" y="152"/>
      <point x="522" y="90"/>
      <point x="471" y="39"/>
      <point x="391" y="4"/>
      <point x="336" y="2" type="qcurve" smooth="yes"/>
      <point x="274" y="0"/>
      <point x="180" y="37"/>
      <point x="113" y="104"/>
      <point x="78" y="195"/>
      <point x="78" y="246" type="qcurve"/>
      <point x="76" y="256"/>
      <point x="88" y="266"/>
      <point x="106" y="268"/>
      <point x="125" y="258"/>
      <point x="125" y="248" type="qcurve" smooth="yes"/>
      <point x="127" y="207"/>
      <point x="152" y="133"/>
      <point x="201" y="78"/>
      <point x="281" y="45"/>
      <point x="336" y="45" type="qcurve" smooth="yes"/>
      <point x="387" y="45"/>
      <point x="455" y="76"/>
      <point x="492" y="119"/>
      <point x="506" y="166"/>
      <point x="508" y="180" type="qcurve" smooth="yes"/>
      <point x="516" y="254"/>
      <point x="424" y="360"/>
      <point x="301" y="389" type="qcurve" smooth="yes"/>
      <point x="203" y="412"/>
      <point x="84" y="510"/>
      <point x="76" y="598" type="qcurve" smooth="yes"/>
      <point x="72" y="647"/>
      <point x="104" y="731"/>
      <point x="170" y="797"/>
      <point x="264" y="831"/>
      <point x="322" y="831" type="qcurve" smooth="yes"/>
      <point x="418" y="829"/>
      <point x="539" y="713"/>
      <point x="543" y="616" type="qcurve"/>
      <point x="539" y="594"/>
      <point x="502" y="590"/>
    </contour>
  </outline>
</glyph>
<glyph name="T" format="2">
  <advance width="643"/>
  <unicode hex="0054"/>
  <outline>
    <contour>
      <point x="365" y="780" type="qcurve"/>
      <point x="358" y="745"/>
      <point x="348" y="614"/>
      <point x="340" y="459"/>
      <point x="334" y="293"/>
      <point x="330" y="150"/>
      <point x="328" y="47"/>
      <point x="328" y="31" type="qcurve" smooth="yes"/>
      <point x="328" y="20"/>
      <point x="309" y="10"/>
      <point x="287" y="10"/>
      <point x="268" y="20"/>
      <point x="268" y="31" type="qcurve" smooth="yes"/>
      <point x="268" y="45"/>
      <point x="272" y="150"/>
      <point x="276" y="295"/>
      <point x="285" y="463"/>
      <point x="291" y="621"/>
      <point x="297" y="748"/>
      <point x="299" y="778" type="qcurve"/>
      <point x="256" y="778"/>
      <point x="201" y="776"/>
      <point x="154" y="772"/>
      <point x="106" y="770"/>
      <point x="70" y="768" type="qcurve"/>
      <point x="63" y="768"/>
      <point x="55" y="782"/>
      <point x="53" y="799"/>
      <point x="59" y="813"/>
      <point x="68" y="813" type="qcurve"/>
      <point x="193" y="827"/>
      <point x="467" y="827"/>
      <point x="573" y="819" type="qcurve" smooth="yes"/>
      <point x="594" y="817"/>
      <point x="590" y="772"/>
      <point x="575" y="770" type="qcurve"/>
      <point x="559" y="770"/>
      <point x="526" y="774"/>
      <point x="481" y="778"/>
      <point x="416" y="780"/>
    </contour>
  </outline>
</glyph>
<glyph name="U" format="2">
  <advance width="772"/>
  <unicode hex="0055"/>
  <outline>
    <contour>
      <point x="612" y="141" type="qcurve"/>
      <point x="590" y="82"/>
      <point x="475" y="6"/>
      <point x="373" y="4" type="qcurve" smooth="yes"/>
      <point x="293" y="2"/>
      <point x="186" y="59"/>
      <point x="121" y="147"/>
      <point x="94" y="252"/>
      <point x="94" y="295" type="qcurve" smooth="yes"/>
      <point x="96" y="414"/>
      <point x="98" y="586"/>
      <point x="100" y="709"/>
      <point x="102" y="784"/>
      <point x="102" y="807" type="qcurve" smooth="yes"/>
      <point x="102" y="815"/>
      <point x="119" y="825"/>
      <point x="139" y="823"/>
      <point x="158" y="813"/>
      <point x="158" y="805" type="qcurve"/>
      <point x="150" y="358" type="line" smooth="yes"/>
      <point x="147" y="309"/>
      <point x="164" y="203"/>
      <point x="213" y="113"/>
      <point x="305" y="53"/>
      <point x="379" y="55" type="qcurve" smooth="yes"/>
      <point x="453" y="57"/>
      <point x="543" y="113"/>
      <point x="594" y="203"/>
      <point x="612" y="313"/>
      <point x="612" y="369" type="qcurve" smooth="yes"/>
      <point x="612" y="811" type="line" smooth="yes"/>
      <point x="612" y="821"/>
      <point x="629" y="831"/>
      <point x="647" y="831"/>
      <point x="666" y="821"/>
      <point x="666" y="813" type="qcurve" smooth="yes"/>
      <point x="674" y="23" type="line" smooth="yes"/>
      <point x="674" y="12"/>
      <point x="657" y="0"/>
      <point x="637" y="-2"/>
      <point x="618" y="8"/>
      <point x="616" y="25" type="qcurve"/>
      <point x="618" y="57"/>
      <point x="618" y="84" type="qcurve" smooth="yes"/>
      <point x="618" y="106"/>
      <point x="616" y="143"/>
    </contour>
  </outline>
</glyph>
<glyph name="V" format="2">
  <advance width="780"/>
  <unicode hex="0056"/>
  <outline>
    <contour>
      <point x="358" y="76" type="line"/>
      <point x="416" y="72" type="line"/>
      <point x="633" y="815" type="line"/>
      <point x="635" y="825"/>
      <point x="655" y="831"/>
      <point x="676" y="827"/>
      <point x="688" y="813"/>
      <point x="686" y="805" type="qcurve" smooth="yes"/>
      <point x="633" y="610"/>
      <point x="588" y="451" type="qcurve" smooth="yes"/>
      <point x="569" y="383"/>
      <point x="528" y="248"/>
      <point x="496" y="135"/>
      <point x="469" y="55"/>
      <point x="463" y="41" type="qcurve"/>
      <point x="457" y="23"/>
      <point x="414" y="2"/>
      <point x="365" y="0"/>
      <point x="324" y="18"/>
      <point x="317" y="41" type="qcurve"/>
      <point x="309" y="53"/>
      <point x="283" y="131"/>
      <point x="246" y="246"/>
      <point x="205" y="381"/>
      <point x="184" y="451" type="qcurve" smooth="yes"/>
      <point x="135" y="612"/>
      <point x="80" y="813" type="qcurve"/>
      <point x="80" y="821"/>
      <point x="96" y="831"/>
      <point x="117" y="831"/>
      <point x="137" y="821"/>
      <point x="139" y="813" type="qcurve" smooth="yes"/>
    </contour>
  </outline>
</glyph>
<glyph name="W" format="2">
  <advance width="1053"/>
  <unicode hex="0057"/>
  <outline>
    <contour>
      <point x="338" y="78" type="qcurve"/>
      <point x="408" y="221"/>
      <point x="473" y="375"/>
      <point x="504" y="444"/>
      <point x="516" y="457"/>
      <point x="532" y="459" type="qcurve"/>
      <point x="547" y="459"/>
      <point x="565" y="442"/>
      <point x="604" y="371"/>
      <point x="676" y="217"/>
      <point x="741" y="80" type="qcurve"/>
      <point x="762" y="176"/>
      <point x="786" y="291" type="qcurve" smooth="yes"/>
      <point x="809" y="389"/>
      <point x="868" y="655"/>
      <point x="909" y="811" type="qcurve"/>
      <point x="911" y="821"/>
      <point x="930" y="827"/>
      <point x="950" y="821"/>
      <point x="965" y="807"/>
      <point x="963" y="799" type="qcurve" smooth="yes"/>
      <point x="930" y="678"/>
      <point x="899" y="551" type="qcurve" smooth="yes"/>
      <point x="872" y="440"/>
      <point x="811" y="170"/>
      <point x="786" y="35" type="qcurve" smooth="yes"/>
      <point x="782" y="18"/>
      <point x="762" y="6"/>
      <point x="737" y="8"/>
      <point x="715" y="25"/>
      <point x="711" y="37" type="qcurve"/>
      <point x="535" y="389" type="line"/>
      <point x="518" y="354"/>
      <point x="469" y="252"/>
      <point x="420" y="147"/>
      <point x="377" y="57"/>
      <point x="369" y="37" type="qcurve" smooth="yes"/>
      <point x="358" y="6"/>
      <point x="305" y="4"/>
      <point x="295" y="29" type="qcurve"/>
      <point x="260" y="186"/>
      <point x="188" y="467"/>
      <point x="160" y="571" type="qcurve" smooth="yes"/>
      <point x="125" y="694"/>
      <point x="92" y="799" type="qcurve"/>
      <point x="88" y="809"/>
      <point x="100" y="825"/>
      <point x="119" y="829"/>
      <point x="139" y="819"/>
      <point x="145" y="805" type="qcurve"/>
      <point x="188" y="680"/>
      <point x="260" y="422"/>
      <point x="285" y="317" type="qcurve" smooth="yes"/>
      <point x="313" y="193"/>
    </contour>
  </outline>
</glyph>
<glyph name="X" format="2">
  <advance width="784"/>
  <unicode hex="0058"/>
  <outline>
    <contour>
      <point x="346" y="428" type="line"/>
      <point x="283" y="520"/>
      <point x="145" y="719"/>
      <point x="84" y="811" type="qcurve"/>
      <point x="80" y="821"/>
      <point x="88" y="836"/>
      <point x="104" y="842"/>
      <point x="125" y="840"/>
      <point x="131" y="834" type="qcurve"/>
      <point x="190" y="748"/>
      <point x="324" y="561"/>
      <point x="383" y="473" type="qcurve"/>
      <point x="449" y="559"/>
      <point x="586" y="743"/>
      <point x="651" y="829" type="qcurve"/>
      <point x="657" y="838"/>
      <point x="678" y="838"/>
      <point x="694" y="827"/>
      <point x="702" y="811"/>
      <point x="696" y="803" type="qcurve" smooth="yes"/>
      <point x="418" y="428" type="line"/>
      <point x="705" y="35" type="line" smooth="yes"/>
      <point x="709" y="29"/>
      <point x="698" y="16"/>
      <point x="680" y="10"/>
      <point x="657" y="10"/>
      <point x="651" y="16" type="qcurve"/>
      <point x="381" y="385" type="line"/>
      <point x="127" y="25" type="line"/>
      <point x="119" y="16"/>
      <point x="98" y="14"/>
      <point x="80" y="25"/>
      <point x="72" y="39"/>
      <point x="78" y="45" type="qcurve"/>
      <point x="76" y="45" type="line"/>
    </contour>
  </outline>
</glyph>
<glyph name="Y" format="2">
  <advance width="770"/>
  <unicode hex="0059"/>
  <outline>
    <contour>
      <point x="416" y="31" type="line" smooth="yes"/>
      <point x="416" y="18"/>
      <point x="397" y="6"/>
      <point x="377" y="6"/>
      <point x="358" y="16"/>
      <point x="358" y="27" type="qcurve" smooth="yes"/>
      <point x="354" y="389" type="line"/>
      <point x="326" y="397"/>
      <point x="248" y="498"/>
      <point x="170" y="629"/>
      <point x="104" y="766"/>
      <point x="88" y="815" type="qcurve"/>
      <point x="86" y="823"/>
      <point x="100" y="834"/>
      <point x="121" y="836"/>
      <point x="139" y="829"/>
      <point x="143" y="821" type="qcurve"/>
      <point x="156" y="778"/>
      <point x="217" y="647"/>
      <point x="287" y="522"/>
      <point x="358" y="434"/>
      <point x="383" y="434" type="qcurve" smooth="yes"/>
      <point x="406" y="434"/>
      <point x="469" y="514"/>
      <point x="537" y="633"/>
      <point x="600" y="766"/>
      <point x="625" y="819" type="qcurve" smooth="yes"/>
      <point x="629" y="827"/>
      <point x="649" y="834"/>
      <point x="670" y="829"/>
      <point x="684" y="815"/>
      <point x="680" y="805" type="qcurve"/>
      <point x="651" y="743"/>
      <point x="580" y="600"/>
      <point x="506" y="475"/>
      <point x="434" y="389"/>
      <point x="410" y="387" type="qcurve"/>
    </contour>
  </outline>
</glyph>
<glyph name="Z" format="2">
  <advance width="768"/>
  <unicode hex="005A"/>
  <outline>
    <contour>
      <point x="106" y="66" type="qcurve" smooth="yes"/>
      <point x="113" y="66"/>
      <point x="141" y="66"/>
      <point x="160" y="68" type="qcurve"/>
      <point x="201" y="70"/>
      <point x="324" y="76"/>
      <point x="395" y="76" type="qcurve" smooth="yes"/>
      <point x="467" y="76"/>
      <point x="610" y="66"/>
      <point x="676" y="55" type="qcurve"/>
      <point x="692" y="51"/>
      <point x="690" y="16"/>
      <point x="670" y="18" type="qcurve" smooth="yes"/>
      <point x="596" y="29"/>
      <point x="485" y="35"/>
      <point x="438" y="35" type="qcurve" smooth="yes"/>
      <point x="401" y="35"/>
      <point x="338" y="33"/>
      <point x="303" y="31" type="qcurve" smooth="yes"/>
      <point x="260" y="29"/>
      <point x="164" y="23"/>
      <point x="100" y="25" type="qcurve" smooth="yes"/>
      <point x="92" y="25"/>
      <point x="70" y="29"/>
      <point x="55" y="41"/>
      <point x="51" y="61"/>
      <point x="59" y="76" type="qcurve"/>
      <point x="80" y="106"/>
      <point x="150" y="195"/>
      <point x="238" y="293"/>
      <point x="334" y="395"/>
      <point x="381" y="442" type="qcurve" smooth="yes"/>
      <point x="422" y="485"/>
      <point x="504" y="573"/>
      <point x="582" y="659"/>
      <point x="647" y="739"/>
      <point x="672" y="774" type="qcurve"/>
      <point x="625" y="770"/>
      <point x="522" y="760"/>
      <point x="463" y="760" type="qcurve" smooth="yes"/>
      <point x="403" y="760"/>
      <point x="283" y="764"/>
      <point x="184" y="770"/>
      <point x="119" y="778"/>
      <point x="115" y="784" type="qcurve"/>
      <point x="92" y="807"/>
      <point x="113" y="825"/>
      <point x="139" y="821" type="qcurve" smooth="yes"/>
      <point x="215" y="811"/>
      <point x="332" y="799"/>
      <point x="389" y="799" type="qcurve" smooth="yes"/>
      <point x="442" y="799"/>
      <point x="555" y="807"/>
      <point x="625" y="811" type="qcurve" smooth="yes"/>
      <point x="688" y="817" type="line" smooth="yes"/>
      <point x="705" y="819"/>
      <point x="739" y="793"/>
      <point x="729" y="770" type="qcurve"/>
      <point x="707" y="737"/>
      <point x="623" y="635"/>
      <point x="514" y="514"/>
      <point x="395" y="387"/>
      <point x="340" y="328" type="qcurve" smooth="yes"/>
      <point x="293" y="279"/>
      <point x="203" y="184"/>
      <point x="135" y="111"/>
      <point x="100" y="66"/>
    </contour>
  </outline>
</glyph>
<glyph name="bracketleft" format="2">
  <advance width="334"/>
  <unicode hex="005B"/>
  <outline>
    <contour>
      <point x="276" y="825" type="qcurve"/>
      <point x="231" y="829"/>
      <point x="172" y="831"/>
      <point x="115" y="827" type="qcurve"/>
      <point x="121" y="659"/>
      <point x="125" y="317"/>
      <point x="125" y="178" type="qcurve" smooth="yes"/>
      <point x="125" y="14"/>
      <point x="121" y="-137" type="qcurve"/>
      <point x="154" y="-141"/>
      <point x="213" y="-141"/>
      <point x="236" y="-139" type="qcurve" smooth="yes"/>
      <point x="260" y="-137"/>
      <point x="283" y="-133" type="qcurve" smooth="yes"/>
      <point x="305" y="-129"/>
      <point x="309" y="-172"/>
      <point x="285" y="-176" type="qcurve"/>
      <point x="246" y="-180"/>
      <point x="209" y="-182" type="qcurve" smooth="yes"/>
      <point x="176" y="-184"/>
      <point x="96" y="-182"/>
      <point x="61" y="-174" type="qcurve"/>
      <point x="70" y="-45"/>
      <point x="74" y="117" type="qcurve" smooth="yes"/>
      <point x="78" y="256"/>
      <point x="76" y="635"/>
      <point x="63" y="868" type="qcurve"/>
      <point x="109" y="872"/>
      <point x="186" y="874"/>
      <point x="215" y="872" type="qcurve" smooth="yes"/>
      <point x="250" y="870"/>
      <point x="276" y="866" type="qcurve"/>
      <point x="289" y="866"/>
      <point x="301" y="852"/>
      <point x="301" y="836"/>
      <point x="289" y="825"/>
    </contour>
  </outline>
</glyph>
<glyph name="backslash" format="2">
  <advance width="571"/>
  <unicode hex="005C"/>
  <outline>
    <contour>
      <point x="461" y="51" type="line"/>
      <point x="467" y="37"/>
      <point x="461" y="18"/>
      <point x="444" y="10"/>
      <point x="426" y="18"/>
      <point x="422" y="33" type="qcurve"/>
      <point x="86" y="1057" type="line" smooth="yes"/>
      <point x="82" y="1069"/>
      <point x="90" y="1087"/>
      <point x="109" y="1092"/>
      <point x="127" y="1081"/>
      <point x="131" y="1067" type="qcurve" smooth="yes"/>
    </contour>
  </outline>
</glyph>
<glyph name="bracketright" format="2">
  <advance width="334"/>
  <unicode hex="005D"/>
  <outline>
    <contour>
      <point x="45" y="825" type="qcurve"/>
      <point x="33" y="825"/>
      <point x="20" y="836"/>
      <point x="20" y="852"/>
      <point x="33" y="866"/>
      <point x="45" y="866" type="qcurve"/>
      <point x="72" y="870"/>
      <point x="106" y="872" type="qcurve" smooth="yes"/>
      <point x="135" y="874"/>
      <point x="211" y="872"/>
      <point x="258" y="868" type="qcurve"/>
      <point x="246" y="635"/>
      <point x="242" y="254"/>
      <point x="246" y="117" type="qcurve" smooth="yes"/>
      <point x="250" y="-43"/>
      <point x="260" y="-172" type="qcurve"/>
      <point x="223" y="-180"/>
      <point x="145" y="-182"/>
      <point x="113" y="-180" type="qcurve" smooth="yes"/>
      <point x="76" y="-178"/>
      <point x="37" y="-174" type="qcurve"/>
      <point x="12" y="-170"/>
      <point x="16" y="-127"/>
      <point x="39" y="-131" type="qcurve" smooth="yes"/>
      <point x="61" y="-135"/>
      <point x="86" y="-137" type="qcurve" smooth="yes"/>
      <point x="109" y="-139"/>
      <point x="166" y="-139"/>
      <point x="201" y="-135" type="qcurve"/>
      <point x="197" y="16"/>
      <point x="197" y="178" type="qcurve" smooth="yes"/>
      <point x="197" y="317"/>
      <point x="199" y="659"/>
      <point x="207" y="827" type="qcurve"/>
      <point x="150" y="831"/>
      <point x="90" y="829"/>
    </contour>
  </outline>
</glyph>
<glyph name="asciicircum" format="2">
  <advance width="717"/>
  <unicode hex="005E"/>
  <outline>
    <contour>
      <point x="573" y="268" type="qcurve"/>
      <point x="569" y="276"/>
      <point x="545" y="358"/>
      <point x="508" y="471"/>
      <point x="463" y="598"/>
      <point x="418" y="705"/>
      <point x="375" y="776"/>
      <point x="360" y="776" type="qcurve" smooth="yes"/>
      <point x="348" y="776"/>
      <point x="309" y="709"/>
      <point x="266" y="602"/>
      <point x="219" y="477"/>
      <point x="180" y="365"/>
      <point x="154" y="279"/>
      <point x="152" y="268" type="qcurve" smooth="yes"/>
      <point x="150" y="258"/>
      <point x="131" y="248"/>
      <point x="113" y="248"/>
      <point x="100" y="258"/>
      <point x="102" y="270" type="qcurve"/>
      <point x="104" y="276"/>
      <point x="129" y="365"/>
      <point x="172" y="487"/>
      <point x="223" y="629"/>
      <point x="281" y="748"/>
      <point x="336" y="825"/>
      <point x="360" y="825" type="qcurve" smooth="yes"/>
      <point x="383" y="825"/>
      <point x="430" y="766"/>
      <point x="477" y="674"/>
      <point x="522" y="559"/>
      <point x="563" y="444"/>
      <point x="596" y="344"/>
      <point x="606" y="311" type="qcurve" smooth="yes"/>
      <point x="614" y="283"/>
      <point x="610" y="254"/>
      <point x="596" y="246"/>
      <point x="578" y="256"/>
    </contour>
  </outline>
</glyph>
<glyph name="underscore" format="2">
  <advance width="1026"/>
  <unicode hex="005F"/>
  <outline>
    <contour>
      <point x="991" y="23" type="qcurve" smooth="yes"/>
      <point x="1008" y="23"/>
      <point x="1010" y="-18"/>
      <point x="989" y="-20" type="qcurve"/>
      <point x="836" y="-18"/>
      <point x="659" y="-18"/>
      <point x="545" y="-18"/>
      <point x="465" y="-20"/>
      <point x="354" y="-20"/>
      <point x="184" y="-18"/>
      <point x="37" y="-14" type="qcurve"/>
      <point x="14" y="-12"/>
      <point x="14" y="27"/>
      <point x="37" y="27" type="qcurve" smooth="yes"/>
      <point x="129" y="23"/>
      <point x="256" y="20"/>
      <point x="362" y="20"/>
      <point x="471" y="23"/>
      <point x="623" y="25"/>
      <point x="834" y="25"/>
    </contour>
  </outline>
</glyph>
<glyph name="grave" format="2">
  <advance width="369"/>
  <unicode hex="0060"/>
  <outline>
    <contour>
      <point x="303" y="606" type="qcurve" smooth="yes"/>
      <point x="317" y="592"/>
      <point x="289" y="561"/>
      <point x="268" y="580" type="qcurve" smooth="yes"/>
      <point x="63" y="782" type="line" smooth="yes"/>
      <point x="51" y="795"/>
      <point x="53" y="813"/>
      <point x="68" y="823"/>
      <point x="88" y="819"/>
      <point x="96" y="811" type="qcurve" smooth="yes"/>
      <point x="104" y="803"/>
      <point x="131" y="778"/>
      <point x="176" y="731"/>
      <point x="250" y="659"/>
    </contour>
  </outline>
</glyph>
<glyph name="a" format="2">
  <advance width="680"/>
  <unicode hex="0061"/>
  <outline>
    <contour>
      <point x="510" y="375" type="line"/>
      <point x="504" y="414"/>
      <point x="467" y="475"/>
      <point x="414" y="516"/>
      <point x="354" y="537"/>
      <point x="326" y="537" type="qcurve" smooth="yes"/>
      <point x="264" y="537"/>
      <point x="180" y="477"/>
      <point x="131" y="397"/>
      <point x="111" y="315"/>
      <point x="111" y="293" type="qcurve" smooth="yes"/>
      <point x="111" y="254"/>
      <point x="127" y="166"/>
      <point x="172" y="90"/>
      <point x="254" y="39"/>
      <point x="319" y="39" type="qcurve" smooth="yes"/>
      <point x="383" y="39"/>
      <point x="485" y="92"/>
      <point x="502" y="147" type="qcurve" smooth="yes"/>
      <point x="508" y="170"/>
      <point x="514" y="227"/>
      <point x="514" y="293" type="qcurve" smooth="yes"/>
    </contour>
    <contour>
      <point x="633" y="4" type="qcurve"/>
      <point x="575" y="-2"/>
      <point x="524" y="29"/>
      <point x="518" y="76" type="qcurve"/>
      <point x="489" y="29"/>
      <point x="387" y="-8"/>
      <point x="322" y="-8" type="qcurve" smooth="yes"/>
      <point x="238" y="-8"/>
      <point x="137" y="53"/>
      <point x="82" y="145"/>
      <point x="63" y="250"/>
      <point x="63" y="295" type="qcurve" smooth="yes"/>
      <point x="63" y="328"/>
      <point x="88" y="426"/>
      <point x="147" y="514"/>
      <point x="248" y="578"/>
      <point x="324" y="578" type="qcurve" smooth="yes"/>
      <point x="383" y="578"/>
      <point x="473" y="535"/>
      <point x="516" y="481" type="qcurve"/>
      <point x="522" y="549" type="line"/>
      <point x="524" y="561"/>
      <point x="545" y="571"/>
      <point x="565" y="569"/>
      <point x="584" y="559"/>
      <point x="584" y="553" type="qcurve"/>
      <point x="575" y="524"/>
      <point x="567" y="395"/>
      <point x="565" y="326" type="qcurve" smooth="yes"/>
      <point x="563" y="244"/>
      <point x="563" y="152" type="qcurve" smooth="yes"/>
      <point x="563" y="133"/>
      <point x="563" y="96"/>
      <point x="573" y="66"/>
      <point x="598" y="45"/>
      <point x="625" y="45" type="qcurve"/>
      <point x="647" y="37"/>
      <point x="643" y="20" type="qcurve" smooth="yes"/>
      <point x="641" y="12"/>
    </contour>
  </outline>
</glyph>
<glyph name="b" format="2">
  <advance width="680"/>
  <unicode hex="0062"/>
  <outline>
    <contour>
      <point x="109" y="223" type="qcurve"/>
      <point x="109" y="180"/>
      <point x="152" y="111"/>
      <point x="215" y="66"/>
      <point x="295" y="41"/>
      <point x="334" y="41" type="qcurve" smooth="yes"/>
      <point x="373" y="41"/>
      <point x="459" y="63"/>
      <point x="528" y="119"/>
      <point x="575" y="213"/>
      <point x="575" y="285" type="qcurve" smooth="yes"/>
      <point x="575" y="420"/>
      <point x="442" y="537"/>
      <point x="328" y="537" type="qcurve" smooth="yes"/>
      <point x="268" y="537"/>
      <point x="141" y="483"/>
      <point x="106" y="424" type="qcurve"/>
      <point x="102" y="332"/>
      <point x="106" y="279" type="qcurve"/>
      <point x="106" y="248"/>
    </contour>
    <contour>
      <point x="106" y="500" type="qcurve"/>
      <point x="160" y="559"/>
      <point x="274" y="588"/>
      <point x="328" y="588" type="qcurve" smooth="yes"/>
      <point x="459" y="588"/>
      <point x="625" y="442"/>
      <point x="625" y="285" type="qcurve" smooth="yes"/>
      <point x="625" y="195"/>
      <point x="561" y="82"/>
      <point x="471" y="18"/>
      <point x="371" y="-8"/>
      <point x="334" y="-8" type="qcurve" smooth="yes"/>
      <point x="223" y="-12"/>
      <point x="96" y="102" type="qcurve"/>
      <point x="94" y="82" type="line"/>
      <point x="90" y="72"/>
      <point x="78" y="53"/>
      <point x="72" y="45" type="qcurve"/>
      <point x="63" y="37"/>
      <point x="57" y="27" type="qcurve"/>
      <point x="47" y="16"/>
      <point x="25" y="8"/>
      <point x="6" y="14"/>
      <point x="0" y="29"/>
      <point x="6" y="41" type="qcurve"/>
      <point x="16" y="49"/>
      <point x="25" y="59" type="qcurve" smooth="yes"/>
      <point x="43" y="80"/>
      <point x="45" y="102" type="qcurve" smooth="yes"/>
      <point x="53" y="205"/>
      <point x="55" y="344" type="qcurve" smooth="yes"/>
      <point x="57" y="463"/>
      <point x="51" y="807"/>
      <point x="35" y="1030" type="qcurve"/>
      <point x="37" y="1040"/>
      <point x="53" y="1049"/>
      <point x="72" y="1049"/>
      <point x="84" y="1036"/>
      <point x="84" y="1028" type="qcurve"/>
      <point x="96" y="850"/>
      <point x="104" y="643"/>
      <point x="106" y="588" type="qcurve" smooth="yes"/>
      <point x="109" y="522"/>
    </contour>
  </outline>
</glyph>
<glyph name="c" format="2">
  <advance width="614"/>
  <unicode hex="0063"/>
  <outline>
    <contour>
      <point x="522" y="440" type="qcurve"/>
      <point x="522" y="438" type="line"/>
      <point x="494" y="498"/>
      <point x="393" y="553"/>
      <point x="332" y="553" type="qcurve" smooth="yes"/>
      <point x="270" y="553"/>
      <point x="178" y="508"/>
      <point x="117" y="432"/>
      <point x="88" y="336"/>
      <point x="88" y="287" type="qcurve" smooth="yes"/>
      <point x="88" y="240"/>
      <point x="115" y="154"/>
      <point x="170" y="88"/>
      <point x="260" y="51"/>
      <point x="324" y="51" type="qcurve" smooth="yes"/>
      <point x="389" y="51"/>
      <point x="471" y="94"/>
      <point x="520" y="150"/>
      <point x="539" y="205"/>
      <point x="543" y="215" type="qcurve"/>
      <point x="551" y="244"/>
      <point x="594" y="240"/>
      <point x="594" y="215" type="qcurve" smooth="yes"/>
      <point x="594" y="193"/>
      <point x="565" y="121"/>
      <point x="502" y="51"/>
      <point x="399" y="2"/>
      <point x="324" y="2" type="qcurve" smooth="yes"/>
      <point x="246" y="2"/>
      <point x="137" y="51"/>
      <point x="70" y="131"/>
      <point x="39" y="233"/>
      <point x="39" y="287" type="qcurve" smooth="yes"/>
      <point x="39" y="342"/>
      <point x="74" y="453"/>
      <point x="143" y="545"/>
      <point x="254" y="602"/>
      <point x="332" y="602" type="qcurve" smooth="yes"/>
      <point x="371" y="602"/>
      <point x="453" y="580"/>
      <point x="522" y="537"/>
      <point x="571" y="475"/>
      <point x="578" y="434" type="qcurve"/>
      <point x="580" y="426"/>
      <point x="563" y="416"/>
      <point x="543" y="416"/>
      <point x="524" y="428"/>
    </contour>
  </outline>
</glyph>
<glyph name="d" format="2">
  <advance width="680"/>
  <unicode hex="0064"/>
  <outline>
    <contour>
      <point x="563" y="223" type="qcurve" smooth="yes"/>
      <point x="563" y="248"/>
      <point x="565" y="279" type="qcurve"/>
      <point x="565" y="305"/>
      <point x="567" y="377"/>
      <point x="565" y="424" type="qcurve"/>
      <point x="530" y="483"/>
      <point x="403" y="537"/>
      <point x="344" y="537" type="qcurve" smooth="yes"/>
      <point x="297" y="537"/>
      <point x="209" y="508"/>
      <point x="141" y="446"/>
      <point x="100" y="352"/>
      <point x="100" y="285" type="qcurve" smooth="yes"/>
      <point x="100" y="213"/>
      <point x="154" y="121"/>
      <point x="229" y="66"/>
      <point x="311" y="43"/>
      <point x="340" y="43" type="qcurve" smooth="yes"/>
      <point x="379" y="43"/>
      <point x="457" y="66"/>
      <point x="522" y="113"/>
      <point x="563" y="180"/>
    </contour>
    <contour>
      <point x="565" y="500" type="qcurve"/>
      <point x="561" y="522"/>
      <point x="563" y="588" type="qcurve" smooth="yes"/>
      <point x="565" y="643"/>
      <point x="575" y="850"/>
      <point x="588" y="1028" type="qcurve"/>
      <point x="588" y="1036"/>
      <point x="600" y="1049"/>
      <point x="618" y="1049"/>
      <point x="635" y="1040"/>
      <point x="637" y="1030" type="qcurve"/>
      <point x="621" y="807"/>
      <point x="614" y="463"/>
      <point x="616" y="344" type="qcurve" smooth="yes"/>
      <point x="618" y="205"/>
      <point x="627" y="102" type="qcurve"/>
      <point x="627" y="90"/>
      <point x="639" y="70"/>
      <point x="647" y="59" type="qcurve" smooth="yes"/>
      <point x="655" y="49"/>
      <point x="666" y="41" type="qcurve"/>
      <point x="672" y="29"/>
      <point x="666" y="14"/>
      <point x="647" y="8"/>
      <point x="623" y="16"/>
      <point x="614" y="27" type="qcurve" smooth="yes"/>
      <point x="606" y="37"/>
      <point x="598" y="45" type="qcurve"/>
      <point x="582" y="63"/>
      <point x="578" y="82" type="qcurve"/>
      <point x="575" y="102" type="line"/>
      <point x="514" y="47"/>
      <point x="393" y="-2"/>
      <point x="340" y="-6" type="qcurve" smooth="yes"/>
      <point x="305" y="-8"/>
      <point x="207" y="16"/>
      <point x="117" y="82"/>
      <point x="51" y="195"/>
      <point x="51" y="285" type="qcurve" smooth="yes"/>
      <point x="51" y="365"/>
      <point x="102" y="479"/>
      <point x="184" y="555"/>
      <point x="289" y="590"/>
      <point x="344" y="588" type="qcurve" smooth="yes"/>
      <point x="397" y="586"/>
      <point x="512" y="559"/>
    </contour>
  </outline>
</glyph>
<glyph name="e" format="2">
  <advance width="676"/>
  <unicode hex="0065"/>
  <outline>
    <contour>
      <point x="102" y="293" type="qcurve"/>
      <point x="104" y="172"/>
      <point x="235" y="51"/>
      <point x="344" y="51" type="qcurve" smooth="yes"/>
      <point x="372" y="51"/>
      <point x="433" y="67"/>
      <point x="490" y="99"/>
      <point x="539" y="148"/>
      <point x="555" y="180" type="qcurve"/>
      <point x="561" y="187"/>
      <point x="569" y="187" type="qcurve" smooth="yes"/>
      <point x="579" y="187"/>
      <point x="596" y="171"/>
      <point x="596" y="158" type="qcurve" smooth="yes"/>
      <point x="596" y="147"/>
      <point x="590" y="137" type="qcurve" smooth="yes"/>
      <point x="573" y="106"/>
      <point x="520" y="55"/>
      <point x="455" y="19"/>
      <point x="381" y="0"/>
      <point x="344" y="0" type="qcurve" smooth="yes"/>
      <point x="267" y="0"/>
      <point x="155" y="52"/>
      <point x="83" y="137"/>
      <point x="48" y="245"/>
      <point x="48" y="301" type="qcurve" smooth="yes"/>
      <point x="48" y="357"/>
      <point x="87" y="465"/>
      <point x="162" y="550"/>
      <point x="272" y="602"/>
      <point x="342" y="602" type="qcurve" smooth="yes"/>
      <point x="405" y="602"/>
      <point x="506" y="560"/>
      <point x="576" y="496"/>
      <point x="614" y="417"/>
      <point x="614" y="381" type="qcurve" smooth="yes"/>
      <point x="614" y="345"/>
      <point x="601" y="308"/>
      <point x="581" y="308" type="qcurve" smooth="yes"/>
      <point x="460" y="308"/>
      <point x="221" y="304"/>
    </contour>
    <contour>
      <point x="102" y="344" type="qcurve"/>
      <point x="124" y="346"/>
      <point x="211" y="348"/>
      <point x="315" y="350"/>
      <point x="424" y="351"/>
      <point x="512" y="353"/>
      <point x="569" y="357"/>
      <point x="569" y="360" type="qcurve" smooth="yes"/>
      <point x="569" y="381"/>
      <point x="547" y="446"/>
      <point x="494" y="508"/>
      <point x="406" y="553"/>
      <point x="340" y="553" type="qcurve" smooth="yes"/>
      <point x="293" y="553"/>
      <point x="213" y="522"/>
      <point x="152" y="466"/>
      <point x="110" y="389"/>
    </contour>
  </outline>
</glyph>
<glyph name="f" format="2">
  <advance width="369"/>
  <unicode hex="0066"/>
  <outline>
    <contour>
      <point x="23" y="461" type="qcurve"/>
      <point x="55" y="469" type="line" smooth="yes"/>
      <point x="70" y="473"/>
      <point x="102" y="475"/>
      <point x="119" y="475" type="qcurve"/>
      <point x="121" y="530"/>
      <point x="119" y="668"/>
      <point x="143" y="788"/>
      <point x="209" y="870"/>
      <point x="281" y="870" type="qcurve" smooth="yes"/>
      <point x="311" y="870"/>
      <point x="365" y="858"/>
      <point x="403" y="821"/>
      <point x="426" y="754"/>
      <point x="426" y="698" type="qcurve" smooth="yes"/>
      <point x="426" y="672"/>
      <point x="401" y="672" type="qcurve" smooth="yes"/>
      <point x="391" y="672"/>
      <point x="373" y="684"/>
      <point x="371" y="694" type="qcurve"/>
      <point x="367" y="743"/>
      <point x="354" y="795"/>
      <point x="334" y="817"/>
      <point x="303" y="821"/>
      <point x="281" y="821" type="qcurve" smooth="yes"/>
      <point x="246" y="821"/>
      <point x="203" y="774"/>
      <point x="180" y="686"/>
      <point x="174" y="559"/>
      <point x="174" y="477" type="qcurve"/>
      <point x="231" y="477"/>
      <point x="297" y="467"/>
      <point x="297" y="444" type="qcurve" smooth="yes"/>
      <point x="297" y="426"/>
      <point x="276" y="426" type="qcurve" smooth="yes"/>
      <point x="248" y="426"/>
      <point x="227" y="430"/>
      <point x="217" y="430" type="qcurve" smooth="yes"/>
      <point x="172" y="430" type="line"/>
      <point x="184" y="25" type="line"/>
      <point x="178" y="0"/>
      <point x="156" y="0" type="qcurve" smooth="yes"/>
      <point x="145" y="0"/>
      <point x="131" y="10"/>
      <point x="131" y="20" type="qcurve" smooth="yes"/>
      <point x="117" y="426" type="line"/>
      <point x="92" y="424"/>
      <point x="70" y="422"/>
      <point x="57" y="420"/>
      <point x="43" y="418"/>
      <point x="27" y="416" type="qcurve"/>
      <point x="6" y="416"/>
      <point x="6" y="436" type="qcurve" smooth="yes"/>
      <point x="6" y="455"/>
    </contour>
  </outline>
</glyph>
<glyph name="g" format="2">
  <advance width="631"/>
  <unicode hex="0067"/>
  <outline>
    <contour>
      <point x="465" y="502" type="qcurve"/>
      <point x="438" y="543"/>
      <point x="348" y="580"/>
      <point x="295" y="580" type="qcurve" smooth="yes"/>
      <point x="248" y="580"/>
      <point x="168" y="541"/>
      <point x="113" y="477"/>
      <point x="82" y="391"/>
      <point x="82" y="346" type="qcurve" smooth="yes"/>
      <point x="84" y="276"/>
      <point x="121" y="182"/>
      <point x="180" y="127"/>
      <point x="254" y="102"/>
      <point x="295" y="102" type="qcurve" smooth="yes"/>
      <point x="334" y="102"/>
      <point x="412" y="125"/>
      <point x="469" y="162"/>
      <point x="502" y="209"/>
      <point x="500" y="233" type="qcurve" smooth="yes"/>
      <point x="498" y="252"/>
      <point x="492" y="311"/>
      <point x="483" y="385"/>
      <point x="473" y="465"/>
    </contour>
    <contour>
      <point x="518" y="145" type="qcurve"/>
      <point x="494" y="115"/>
      <point x="432" y="76"/>
      <point x="367" y="53"/>
      <point x="301" y="47"/>
      <point x="274" y="47" type="qcurve" smooth="yes"/>
      <point x="217" y="47"/>
      <point x="125" y="98"/>
      <point x="63" y="182"/>
      <point x="31" y="289"/>
      <point x="31" y="346" type="qcurve" smooth="yes"/>
      <point x="31" y="399"/>
      <point x="68" y="502"/>
      <point x="135" y="584"/>
      <point x="233" y="633"/>
      <point x="295" y="633" type="qcurve" smooth="yes"/>
      <point x="336" y="633"/>
      <point x="430" y="614"/>
      <point x="467" y="573" type="qcurve"/>
      <point x="487" y="643" type="line" smooth="yes"/>
      <point x="492" y="659"/>
      <point x="514" y="670"/>
      <point x="532" y="664"/>
      <point x="543" y="645"/>
      <point x="537" y="633" type="qcurve"/>
      <point x="516" y="565" type="line"/>
      <point x="518" y="502"/>
      <point x="541" y="315"/>
      <point x="565" y="139"/>
      <point x="584" y="12"/>
      <point x="584" y="8" type="qcurve" smooth="yes"/>
      <point x="584" y="-47"/>
      <point x="553" y="-154"/>
      <point x="487" y="-238"/>
      <point x="391" y="-291"/>
      <point x="328" y="-293" type="qcurve" smooth="yes"/>
      <point x="274" y="-295"/>
      <point x="190" y="-266"/>
      <point x="129" y="-219"/>
      <point x="92" y="-158"/>
      <point x="88" y="-123" type="qcurve"/>
      <point x="86" y="-111"/>
      <point x="102" y="-94"/>
      <point x="121" y="-88"/>
      <point x="139" y="-94"/>
      <point x="139" y="-106" type="qcurve"/>
      <point x="145" y="-176"/>
      <point x="254" y="-252"/>
      <point x="328" y="-248" type="qcurve" smooth="yes"/>
      <point x="399" y="-244"/>
      <point x="492" y="-164"/>
      <point x="537" y="-47"/>
      <point x="537" y="86"/>
    </contour>
  </outline>
</glyph>
<glyph name="h" format="2">
  <advance width="649"/>
  <unicode hex="0068"/>
  <outline>
    <contour>
      <point x="174" y="444" type="line"/>
      <point x="178" y="465"/>
      <point x="207" y="520"/>
      <point x="258" y="569"/>
      <point x="332" y="600"/>
      <point x="381" y="600" type="qcurve" smooth="yes"/>
      <point x="463" y="598"/>
      <point x="553" y="528"/>
      <point x="596" y="385"/>
      <point x="604" y="164"/>
      <point x="604" y="14" type="qcurve" smooth="yes"/>
      <point x="604" y="6"/>
      <point x="590" y="-4"/>
      <point x="571" y="-2"/>
      <point x="557" y="10"/>
      <point x="557" y="23" type="qcurve" smooth="yes"/>
      <point x="557" y="156"/>
      <point x="549" y="352"/>
      <point x="514" y="485"/>
      <point x="442" y="551"/>
      <point x="381" y="551" type="qcurve" smooth="yes"/>
      <point x="297" y="551"/>
      <point x="211" y="446"/>
      <point x="174" y="287"/>
      <point x="172" y="96"/>
      <point x="172" y="10" type="qcurve" smooth="yes"/>
      <point x="172" y="2"/>
      <point x="158" y="-2"/>
      <point x="141" y="0"/>
      <point x="127" y="8"/>
      <point x="125" y="12" type="qcurve"/>
      <point x="117" y="154"/>
      <point x="123" y="473"/>
      <point x="131" y="612" type="qcurve" smooth="yes"/>
      <point x="139" y="774"/>
      <point x="152" y="934" type="qcurve"/>
      <point x="152" y="946"/>
      <point x="168" y="954"/>
      <point x="186" y="950"/>
      <point x="203" y="938"/>
      <point x="201" y="926" type="qcurve"/>
    </contour>
  </outline>
</glyph>
<glyph name="i" format="2">
  <advance width="334"/>
  <unicode hex="0069"/>
  <outline>
    <contour>
      <point x="244" y="852" type="qcurve" smooth="yes"/>
      <point x="276" y="834"/>
      <point x="294" y="762"/>
      <point x="276" y="730" type="qcurve" smooth="yes"/>
      <point x="259" y="699"/>
      <point x="189" y="679"/>
      <point x="158" y="697" type="qcurve" smooth="yes"/>
      <point x="123" y="717"/>
      <point x="105" y="785"/>
      <point x="123" y="816" type="qcurve" smooth="yes"/>
      <point x="141" y="848"/>
      <point x="212" y="872"/>
    </contour>
    <contour>
      <point x="203" y="33" type="line"/>
      <point x="201" y="18"/>
      <point x="186" y="6"/>
      <point x="170" y="8"/>
      <point x="154" y="20"/>
      <point x="152" y="33" type="qcurve"/>
      <point x="164" y="567" type="line" smooth="yes"/>
      <point x="164" y="580"/>
      <point x="178" y="592"/>
      <point x="197" y="592"/>
      <point x="213" y="580"/>
      <point x="213" y="567" type="qcurve"/>
    </contour>
  </outline>
</glyph>
<glyph name="j" format="2">
  <advance width="334"/>
  <unicode hex="006A"/>
  <outline>
    <contour>
      <point x="221" y="27" type="line"/>
      <point x="223" y="-63"/>
      <point x="180" y="-190"/>
      <point x="109" y="-262"/>
      <point x="25" y="-285"/>
      <point x="-51" y="-256"/>
      <point x="-106" y="-180"/>
      <point x="-111" y="-119" type="qcurve"/>
      <point x="-106" y="-90"/>
      <point x="-61" y="-96"/>
      <point x="-55" y="-121" type="qcurve"/>
      <point x="-45" y="-186"/>
      <point x="29" y="-231"/>
      <point x="109" y="-195"/>
      <point x="172" y="-76"/>
      <point x="170" y="27" type="qcurve" smooth="yes"/>
      <point x="180" y="561" type="line" smooth="yes"/>
      <point x="180" y="573"/>
      <point x="197" y="586"/>
      <point x="215" y="586"/>
      <point x="231" y="573"/>
      <point x="231" y="561" type="qcurve"/>
    </contour>
    <contour>
      <point x="260" y="854" type="qcurve" smooth="yes"/>
      <point x="291" y="836"/>
      <point x="309" y="764"/>
      <point x="291" y="732" type="qcurve" smooth="yes"/>
      <point x="274" y="701"/>
      <point x="204" y="681"/>
      <point x="174" y="699" type="qcurve" smooth="yes"/>
      <point x="138" y="719"/>
      <point x="120" y="787"/>
      <point x="138" y="818" type="qcurve" smooth="yes"/>
      <point x="156" y="850"/>
      <point x="227" y="874"/>
    </contour>
  </outline>
</glyph>
<glyph name="k" format="2">
  <advance width="618"/>
  <unicode hex="006B"/>
  <outline>
    <contour>
      <point x="195" y="334" type="line"/>
      <point x="580" y="37" type="line"/>
      <point x="586" y="17"/>
      <point x="562" y="0"/>
      <point x="545" y="2" type="qcurve"/>
      <point x="493" y="41"/>
      <point x="401" y="111"/>
      <point x="313" y="177"/>
      <point x="225" y="240"/>
      <point x="179" y="271" type="qcurve"/>
      <point x="177" y="18" type="line"/>
      <point x="175" y="14"/>
      <point x="168" y="3"/>
      <point x="157" y="-4"/>
      <point x="144" y="-2"/>
      <point x="136" y="9" type="qcurve"/>
      <point x="138" y="893" type="line" smooth="yes"/>
      <point x="138" y="906"/>
      <point x="150" y="919"/>
      <point x="166" y="916"/>
      <point x="179" y="898"/>
      <point x="179" y="881" type="qcurve" smooth="yes"/>
      <point x="182" y="386" type="line"/>
      <point x="262" y="436"/>
      <point x="377" y="511"/>
      <point x="457" y="566"/>
      <point x="510" y="603"/>
      <point x="528" y="615" type="qcurve"/>
      <point x="563" y="629"/>
      <point x="587" y="606"/>
      <point x="571" y="585" type="qcurve"/>
    </contour>
  </outline>
</glyph>
<glyph name="l" format="2">
  <advance width="281"/>
  <unicode hex="006C"/>
  <outline>
    <contour>
      <point x="158" y="35" type="line"/>
      <point x="156" y="23"/>
      <point x="141" y="10"/>
      <point x="123" y="10"/>
      <point x="109" y="23"/>
      <point x="109" y="35" type="qcurve" smooth="yes"/>
      <point x="102" y="985" type="line"/>
      <point x="104" y="997"/>
      <point x="119" y="1010"/>
      <point x="137" y="1010"/>
      <point x="152" y="997"/>
      <point x="152" y="985" type="qcurve" smooth="yes"/>
    </contour>
  </outline>
</glyph>
<glyph name="m" format="2">
  <advance width="940"/>
  <unicode hex="006D"/>
  <outline>
    <contour>
      <point x="166" y="401" type="line"/>
      <point x="178" y="467"/>
      <point x="209" y="547"/>
      <point x="248" y="590"/>
      <point x="297" y="604"/>
      <point x="328" y="604" type="qcurve" smooth="yes"/>
      <point x="401" y="604"/>
      <point x="481" y="483"/>
      <point x="489" y="391" type="qcurve"/>
      <point x="502" y="483"/>
      <point x="565" y="608"/>
      <point x="643" y="608" type="qcurve" smooth="yes"/>
      <point x="729" y="608"/>
      <point x="809" y="508"/>
      <point x="838" y="342"/>
      <point x="831" y="129"/>
      <point x="831" y="18" type="qcurve" smooth="yes"/>
      <point x="831" y="2"/>
      <point x="795" y="-2"/>
      <point x="791" y="14" type="qcurve"/>
      <point x="786" y="45"/>
      <point x="791" y="154"/>
      <point x="793" y="276"/>
      <point x="786" y="401"/>
      <point x="758" y="504"/>
      <point x="696" y="569"/>
      <point x="645" y="569" type="qcurve" smooth="yes"/>
      <point x="608" y="569"/>
      <point x="561" y="496"/>
      <point x="530" y="383"/>
      <point x="518" y="246"/>
      <point x="512" y="125"/>
      <point x="514" y="31"/>
      <point x="514" y="18" type="qcurve"/>
      <point x="510" y="2"/>
      <point x="467" y="2"/>
      <point x="467" y="20" type="qcurve"/>
      <point x="465" y="37"/>
      <point x="467" y="131"/>
      <point x="465" y="252"/>
      <point x="455" y="383"/>
      <point x="424" y="494"/>
      <point x="367" y="563"/>
      <point x="322" y="563" type="qcurve" smooth="yes"/>
      <point x="283" y="563"/>
      <point x="233" y="496"/>
      <point x="201" y="393"/>
      <point x="182" y="266"/>
      <point x="174" y="147"/>
      <point x="170" y="47"/>
      <point x="168" y="23" type="qcurve"/>
      <point x="168" y="12"/>
      <point x="152" y="4"/>
      <point x="133" y="4"/>
      <point x="119" y="14"/>
      <point x="119" y="23" type="qcurve" smooth="yes"/>
      <point x="113" y="494" type="line" smooth="yes"/>
      <point x="113" y="504"/>
      <point x="109" y="514" type="qcurve"/>
      <point x="102" y="535"/>
      <point x="80" y="559" type="qcurve"/>
      <point x="74" y="567"/>
      <point x="80" y="584"/>
      <point x="96" y="592"/>
      <point x="119" y="590"/>
      <point x="129" y="580" type="qcurve"/>
      <point x="145" y="559"/>
      <point x="156" y="530" type="qcurve" smooth="yes"/>
      <point x="162" y="514"/>
      <point x="166" y="498" type="qcurve"/>
    </contour>
  </outline>
</glyph>
<glyph name="n" format="2">
  <advance width="635"/>
  <unicode hex="006E"/>
  <outline>
    <contour>
      <point x="158" y="399" type="line"/>
      <point x="168" y="461"/>
      <point x="203" y="539"/>
      <point x="252" y="582"/>
      <point x="313" y="596"/>
      <point x="348" y="596" type="qcurve" smooth="yes"/>
      <point x="453" y="596"/>
      <point x="543" y="467"/>
      <point x="543" y="319" type="qcurve" smooth="yes"/>
      <point x="543" y="23" type="line"/>
      <point x="539" y="10"/>
      <point x="498" y="8"/>
      <point x="498" y="23" type="qcurve" smooth="yes"/>
      <point x="496" y="322" type="line" smooth="yes"/>
      <point x="494" y="369"/>
      <point x="487" y="453"/>
      <point x="457" y="516"/>
      <point x="397" y="555"/>
      <point x="344" y="555" type="qcurve" smooth="yes"/>
      <point x="297" y="555"/>
      <point x="236" y="492"/>
      <point x="199" y="389"/>
      <point x="182" y="266"/>
      <point x="174" y="147"/>
      <point x="174" y="49"/>
      <point x="172" y="25" type="qcurve"/>
      <point x="172" y="14"/>
      <point x="156" y="2"/>
      <point x="137" y="2"/>
      <point x="121" y="14"/>
      <point x="121" y="27" type="qcurve" smooth="yes"/>
      <point x="109" y="485" type="line"/>
      <point x="106" y="496"/>
      <point x="102" y="508" type="qcurve"/>
      <point x="98" y="518"/>
      <point x="84" y="543"/>
      <point x="72" y="557" type="qcurve"/>
      <point x="66" y="565"/>
      <point x="72" y="582"/>
      <point x="88" y="590"/>
      <point x="111" y="588"/>
      <point x="121" y="578" type="qcurve"/>
      <point x="137" y="557"/>
      <point x="147" y="528" type="qcurve"/>
      <point x="154" y="512"/>
      <point x="158" y="496" type="qcurve"/>
    </contour>
  </outline>
</glyph>
<glyph name="o" format="2">
  <advance width="680"/>
  <unicode hex="006F"/>
  <outline>
    <contour>
      <point x="635" y="291" type="qcurve" smooth="yes"/>
      <point x="635" y="211"/>
      <point x="588" y="100"/>
      <point x="506" y="31"/>
      <point x="395" y="0"/>
      <point x="332" y="0" type="qcurve" smooth="yes"/>
      <point x="285" y="0"/>
      <point x="182" y="27"/>
      <point x="96" y="92"/>
      <point x="41" y="199"/>
      <point x="41" y="279" type="qcurve" smooth="yes"/>
      <point x="41" y="432"/>
      <point x="193" y="606"/>
      <point x="340" y="606" type="qcurve" smooth="yes"/>
      <point x="397" y="606"/>
      <point x="504" y="567"/>
      <point x="586" y="487"/>
      <point x="635" y="369"/>
    </contour>
    <contour>
      <point x="586" y="274" type="qcurve" smooth="yes"/>
      <point x="586" y="350"/>
      <point x="545" y="459"/>
      <point x="475" y="528"/>
      <point x="387" y="561"/>
      <point x="340" y="561" type="qcurve" smooth="yes"/>
      <point x="219" y="561"/>
      <point x="90" y="422"/>
      <point x="90" y="279" type="qcurve" smooth="yes"/>
      <point x="90" y="213"/>
      <point x="135" y="125"/>
      <point x="205" y="72"/>
      <point x="291" y="51"/>
      <point x="332" y="51" type="qcurve" smooth="yes"/>
      <point x="385" y="51"/>
      <point x="477" y="74"/>
      <point x="545" y="127"/>
      <point x="586" y="213"/>
    </contour>
  </outline>
</glyph>
<glyph name="p" format="2">
  <advance width="705"/>
  <unicode hex="0070"/>
  <outline>
    <contour>
      <point x="123" y="369" type="qcurve"/>
      <point x="121" y="349"/>
      <point x="121" y="305"/>
      <point x="121" y="276" type="qcurve" smooth="yes"/>
      <point x="121" y="251"/>
      <point x="122" y="194"/>
      <point x="125" y="162" type="qcurve"/>
      <point x="143" y="133"/>
      <point x="195" y="92"/>
      <point x="255" y="66"/>
      <point x="319" y="53"/>
      <point x="348" y="53" type="qcurve" smooth="yes"/>
      <point x="464" y="57"/>
      <point x="592" y="182"/>
      <point x="592" y="315" type="qcurve" smooth="yes"/>
      <point x="590" y="387"/>
      <point x="542" y="480"/>
      <point x="470" y="534"/>
      <point x="384" y="555"/>
      <point x="344" y="555" type="qcurve" smooth="yes"/>
      <point x="306" y="555"/>
      <point x="227" y="529"/>
      <point x="163" y="481"/>
      <point x="123" y="412"/>
    </contour>
    <contour>
      <point x="127" y="86" type="qcurve"/>
      <point x="124" y="57"/>
      <point x="122" y="-2"/>
      <point x="119" y="-77"/>
      <point x="115" y="-176"/>
      <point x="111" y="-244" type="qcurve"/>
      <point x="111" y="-254"/>
      <point x="96" y="-264"/>
      <point x="86" y="-264" type="qcurve" smooth="yes"/>
      <point x="78" y="-264"/>
      <point x="63" y="-255"/>
      <point x="61" y="-246" type="qcurve"/>
      <point x="69" y="-98"/>
      <point x="75" y="122"/>
      <point x="75" y="204" type="qcurve" smooth="yes"/>
      <point x="75" y="296"/>
      <point x="70" y="416"/>
      <point x="56" y="493"/>
      <point x="34" y="535"/>
      <point x="16" y="549" type="qcurve"/>
      <point x="12" y="556"/>
      <point x="12" y="562" type="qcurve" smooth="yes"/>
      <point x="12" y="579"/>
      <point x="34" y="579" type="qcurve" smooth="yes"/>
      <point x="49" y="579"/>
      <point x="94" y="541"/>
      <point x="106" y="510" type="qcurve"/>
      <point x="109" y="489" type="line"/>
      <point x="166" y="545"/>
      <point x="284" y="604"/>
      <point x="337" y="604" type="qcurve" smooth="yes"/>
      <point x="360" y="604"/>
      <point x="424" y="595"/>
      <point x="491" y="572"/>
      <point x="557" y="531"/>
      <point x="609" y="466"/>
      <point x="641" y="374"/>
      <point x="641" y="311" type="qcurve" smooth="yes"/>
      <point x="641" y="234"/>
      <point x="598" y="118"/>
      <point x="521" y="41"/>
      <point x="414" y="2"/>
      <point x="350" y="2" type="qcurve" smooth="yes"/>
      <point x="323" y="2"/>
      <point x="267" y="6"/>
      <point x="211" y="23"/>
      <point x="154" y="57"/>
    </contour>
  </outline>
</glyph>
<glyph name="q" format="2">
  <advance width="723"/>
  <unicode hex="0071"/>
  <outline>
    <contour>
      <point x="563" y="356" type="qcurve" smooth="yes"/>
      <point x="563" y="363" type="line" smooth="yes"/>
      <point x="563" y="411"/>
      <point x="519" y="482"/>
      <point x="450" y="530"/>
      <point x="365" y="554"/>
      <point x="325" y="554" type="qcurve" smooth="yes"/>
      <point x="285" y="554"/>
      <point x="202" y="530"/>
      <point x="134" y="470"/>
      <point x="91" y="370"/>
      <point x="91" y="295" type="qcurve" smooth="yes"/>
      <point x="91" y="174"/>
      <point x="225" y="52"/>
      <point x="342" y="52" type="qcurve" smooth="yes"/>
      <point x="370" y="52"/>
      <point x="430" y="64"/>
      <point x="485" y="88"/>
      <point x="533" y="125"/>
      <point x="551" y="150" type="qcurve"/>
      <point x="563" y="291"/>
    </contour>
    <contour>
      <point x="545" y="74" type="line"/>
      <point x="520" y="50"/>
      <point x="471" y="21"/>
      <point x="423" y="6"/>
      <point x="375" y="1"/>
      <point x="350" y="1" type="qcurve" smooth="yes"/>
      <point x="284" y="1"/>
      <point x="171" y="36"/>
      <point x="89" y="109"/>
      <point x="42" y="220"/>
      <point x="42" y="295" type="qcurve" smooth="yes"/>
      <point x="42" y="359"/>
      <point x="71" y="454"/>
      <point x="118" y="522"/>
      <point x="179" y="566"/>
      <point x="245" y="592"/>
      <point x="311" y="602"/>
      <point x="338" y="602" type="qcurve" smooth="yes"/>
      <point x="397" y="602"/>
      <point x="518" y="543"/>
      <point x="584" y="477" type="qcurve"/>
      <point x="586" y="496" type="line"/>
      <point x="591" y="509"/>
      <point x="609" y="534"/>
      <point x="629" y="552"/>
      <point x="649" y="563"/>
      <point x="657" y="563" type="qcurve" smooth="yes"/>
      <point x="668" y="563"/>
      <point x="683" y="553"/>
      <point x="683" y="545" type="qcurve" smooth="yes"/>
      <point x="683" y="537"/>
      <point x="670" y="522"/>
      <point x="654" y="506"/>
      <point x="638" y="486"/>
      <point x="635" y="473" type="qcurve" smooth="yes"/>
      <point x="627" y="443"/>
      <point x="612" y="350"/>
      <point x="600" y="201"/>
      <point x="593" y="-17"/>
      <point x="593" y="-171" type="qcurve" smooth="yes"/>
      <point x="593" y="-193"/>
      <point x="594" y="-239"/>
      <point x="594" y="-262" type="qcurve"/>
      <point x="592" y="-271"/>
      <point x="579" y="-279"/>
      <point x="571" y="-279" type="qcurve" smooth="yes"/>
      <point x="561" y="-279"/>
      <point x="545" y="-268"/>
      <point x="545" y="-260" type="qcurve" smooth="yes"/>
      <point x="545" y="-256" type="line"/>
    </contour>
  </outline>
</glyph>
<glyph name="r" format="2">
  <advance width="481"/>
  <unicode hex="0072"/>
  <outline>
    <contour>
      <point x="90" y="596" type="qcurve"/>
      <point x="90" y="564"/>
      <point x="96" y="459"/>
      <point x="102" y="373" type="qcurve"/>
      <point x="102" y="436"/>
      <point x="139" y="523"/>
      <point x="193" y="576"/>
      <point x="256" y="600"/>
      <point x="283" y="600" type="qcurve" smooth="yes"/>
      <point x="331" y="598"/>
      <point x="392" y="569"/>
      <point x="427" y="524"/>
      <point x="440" y="468"/>
      <point x="440" y="440" type="qcurve" smooth="yes"/>
      <point x="440" y="419"/>
      <point x="429" y="378"/>
      <point x="407" y="346"/>
      <point x="375" y="326"/>
      <point x="355" y="326" type="qcurve" smooth="yes"/>
      <point x="337" y="326"/>
      <point x="302" y="333"/>
      <point x="302" y="343" type="qcurve" smooth="yes"/>
      <point x="302" y="357"/>
      <point x="315" y="370"/>
      <point x="336" y="376"/>
      <point x="359" y="380"/>
      <point x="380" y="391"/>
      <point x="393" y="416"/>
      <point x="393" y="440" type="qcurve" smooth="yes"/>
      <point x="393" y="461"/>
      <point x="383" y="500"/>
      <point x="358" y="532"/>
      <point x="315" y="551"/>
      <point x="283" y="551" type="qcurve" smooth="yes"/>
      <point x="239" y="551"/>
      <point x="181" y="488"/>
      <point x="145" y="389"/>
      <point x="127" y="266"/>
      <point x="119" y="147"/>
      <point x="117" y="45"/>
      <point x="115" y="16" type="qcurve"/>
      <point x="115" y="4"/>
      <point x="99" y="-8"/>
      <point x="89" y="-8" type="qcurve" smooth="yes"/>
      <point x="79" y="-8"/>
      <point x="63" y="4"/>
      <point x="63" y="16" type="qcurve" smooth="yes"/>
      <point x="63" y="35"/>
      <point x="64" y="93"/>
      <point x="64" y="136" type="qcurve" smooth="yes"/>
      <point x="64" y="205"/>
      <point x="56" y="427"/>
      <point x="41" y="594" type="qcurve"/>
      <point x="41" y="605"/>
      <point x="54" y="616"/>
      <point x="62" y="616" type="qcurve" smooth="yes"/>
      <point x="71" y="616"/>
      <point x="88" y="605"/>
    </contour>
  </outline>
</glyph>
<glyph name="s" format="2">
  <advance width="475"/>
  <unicode hex="0073"/>
  <outline>
    <contour>
      <point x="375" y="430" type="line"/>
      <point x="375" y="431"/>
      <point x="375" y="444"/>
      <point x="371" y="463"/>
      <point x="363" y="486"/>
      <point x="356" y="497" type="qcurve" smooth="yes"/>
      <point x="342" y="520"/>
      <point x="279" y="559"/>
      <point x="219" y="559" type="qcurve" smooth="yes"/>
      <point x="176" y="559"/>
      <point x="125" y="531"/>
      <point x="98" y="494"/>
      <point x="90" y="456"/>
      <point x="90" y="446" type="qcurve" smooth="yes"/>
      <point x="90" y="409"/>
      <point x="141" y="367"/>
      <point x="217" y="337"/>
      <point x="305" y="310"/>
      <point x="381" y="268"/>
      <point x="432" y="200"/>
      <point x="432" y="145" type="qcurve" smooth="yes"/>
      <point x="432" y="119"/>
      <point x="408" y="66"/>
      <point x="360" y="24"/>
      <point x="289" y="-2"/>
      <point x="242" y="-2" type="qcurve" smooth="yes"/>
      <point x="198" y="-2"/>
      <point x="124" y="26"/>
      <point x="67" y="72"/>
      <point x="31" y="129"/>
      <point x="25" y="158" type="qcurve"/>
      <point x="35" y="177"/>
      <point x="54" y="182"/>
      <point x="74" y="165"/>
      <point x="95" y="131"/>
      <point x="107" y="113" type="qcurve" smooth="yes"/>
      <point x="115" y="101"/>
      <point x="137" y="77"/>
      <point x="168" y="58"/>
      <point x="212" y="47"/>
      <point x="242" y="47" type="qcurve" smooth="yes"/>
      <point x="282" y="47"/>
      <point x="336" y="68"/>
      <point x="369" y="98"/>
      <point x="383" y="132"/>
      <point x="383" y="145" type="qcurve" smooth="yes"/>
      <point x="383" y="189"/>
      <point x="332" y="241"/>
      <point x="256" y="275"/>
      <point x="168" y="301"/>
      <point x="92" y="338"/>
      <point x="41" y="397"/>
      <point x="41" y="446" type="qcurve" smooth="yes"/>
      <point x="41" y="463"/>
      <point x="55" y="518"/>
      <point x="94" y="570"/>
      <point x="163" y="608"/>
      <point x="219" y="608" type="qcurve" smooth="yes"/>
      <point x="267" y="609"/>
      <point x="343" y="584"/>
      <point x="396" y="538"/>
      <point x="424" y="474"/>
      <point x="424" y="436" type="qcurve" smooth="yes"/>
      <point x="424" y="415"/>
      <point x="401" y="413" type="qcurve" smooth="yes"/>
      <point x="380" y="412"/>
      <point x="375" y="432" type="qcurve"/>
    </contour>
  </outline>
</glyph>
<glyph name="t" format="2">
  <advance width="420"/>
  <unicode hex="0074"/>
  <outline>
    <contour>
      <point x="139" y="526" type="qcurve"/>
      <point x="147" y="584"/>
      <point x="153" y="695"/>
      <point x="158" y="785"/>
      <point x="165" y="846"/>
      <point x="174" y="852" type="qcurve"/>
      <point x="186" y="856"/>
      <point x="199" y="856" type="qcurve" smooth="yes"/>
      <point x="217" y="856"/>
      <point x="217" y="834" type="qcurve"/>
      <point x="214" y="818"/>
      <point x="208" y="774"/>
      <point x="202" y="702"/>
      <point x="195" y="596"/>
      <point x="190" y="520" type="qcurve"/>
      <point x="241" y="520"/>
      <point x="297" y="514"/>
      <point x="323" y="504"/>
      <point x="328" y="492"/>
      <point x="328" y="487" type="qcurve"/>
      <point x="326" y="477"/>
      <point x="293" y="469"/>
      <point x="250" y="468"/>
      <point x="204" y="469"/>
      <point x="190" y="467" type="qcurve"/>
      <point x="190" y="418" type="line" smooth="yes"/>
      <point x="190" y="326"/>
      <point x="194" y="194"/>
      <point x="212" y="109"/>
      <point x="250" y="68"/>
      <point x="283" y="68" type="qcurve" smooth="yes"/>
      <point x="315" y="68"/>
      <point x="344" y="119"/>
      <point x="350" y="158" type="qcurve" smooth="yes"/>
      <point x="353" y="181"/>
      <point x="370" y="181" type="qcurve" smooth="yes"/>
      <point x="381" y="181"/>
      <point x="401" y="162"/>
      <point x="403" y="145" type="qcurve"/>
      <point x="392" y="79"/>
      <point x="339" y="15"/>
      <point x="277" y="15" type="qcurve" smooth="yes"/>
      <point x="235" y="15"/>
      <point x="180" y="58"/>
      <point x="147" y="138"/>
      <point x="134" y="253"/>
      <point x="134" y="325" type="qcurve" smooth="yes"/>
      <point x="134" y="359"/>
      <point x="137" y="433"/>
      <point x="139" y="473" type="qcurve"/>
      <point x="116" y="479"/>
      <point x="74" y="486"/>
      <point x="40" y="495"/>
      <point x="20" y="507"/>
      <point x="20" y="517" type="qcurve" smooth="yes"/>
      <point x="20" y="530"/>
      <point x="44" y="540"/>
      <point x="60" y="540" type="qcurve" smooth="yes"/>
      <point x="71" y="540"/>
      <point x="96" y="536"/>
      <point x="118" y="532"/>
      <point x="135" y="527"/>
    </contour>
  </outline>
</glyph>
<glyph name="u" format="2">
  <advance width="623"/>
  <unicode hex="0075"/>
  <outline>
    <contour>
      <point x="478" y="202" type="line"/>
      <point x="468" y="139"/>
      <point x="431" y="61"/>
      <point x="379" y="17"/>
      <point x="314" y="1"/>
      <point x="276" y="2" type="qcurve" smooth="yes"/>
      <point x="224" y="3"/>
      <point x="150" y="35"/>
      <point x="104" y="101"/>
      <point x="82" y="205"/>
      <point x="82" y="279" type="qcurve" smooth="yes"/>
      <point x="82" y="575" type="line"/>
      <point x="87" y="589"/>
      <point x="109" y="589" type="qcurve" smooth="yes"/>
      <point x="127" y="589"/>
      <point x="127" y="575" type="qcurve" smooth="yes"/>
      <point x="129" y="276" type="line" smooth="yes"/>
      <point x="131" y="229"/>
      <point x="138" y="145"/>
      <point x="167" y="81"/>
      <point x="227" y="43"/>
      <point x="281" y="43" type="qcurve" smooth="yes"/>
      <point x="335" y="43"/>
      <point x="402" y="108"/>
      <point x="439" y="209"/>
      <point x="452" y="333"/>
      <point x="454" y="450"/>
      <point x="451" y="548"/>
      <point x="453" y="573" type="qcurve"/>
      <point x="453" y="584"/>
      <point x="469" y="596"/>
      <point x="478" y="596" type="qcurve" smooth="yes"/>
      <point x="488" y="596"/>
      <point x="503" y="584"/>
      <point x="504" y="571" type="qcurve"/>
      <point x="516" y="113" type="line" smooth="yes"/>
      <point x="516" y="97"/>
      <point x="536" y="57"/>
      <point x="553" y="41" type="qcurve"/>
      <point x="556" y="35"/>
      <point x="556" y="29" type="qcurve" smooth="yes"/>
      <point x="556" y="20"/>
      <point x="542" y="8"/>
      <point x="531" y="8" type="qcurve" smooth="yes"/>
      <point x="518" y="8"/>
      <point x="500" y="23"/>
      <point x="487" y="49"/>
      <point x="477" y="81"/>
      <point x="473" y="98" type="qcurve"/>
    </contour>
  </outline>
</glyph>
<glyph name="v" format="2">
  <advance width="594"/>
  <unicode hex="0076"/>
  <outline>
    <contour>
      <point x="119" y="567" type="qcurve"/>
      <point x="123" y="558"/>
      <point x="145" y="477"/>
      <point x="176" y="364"/>
      <point x="213" y="238"/>
      <point x="252" y="131"/>
      <point x="288" y="61"/>
      <point x="303" y="61" type="qcurve" smooth="yes"/>
      <point x="316" y="61"/>
      <point x="351" y="130"/>
      <point x="390" y="235"/>
      <point x="429" y="361"/>
      <point x="463" y="474"/>
      <point x="487" y="558"/>
      <point x="492" y="569" type="qcurve"/>
      <point x="497" y="584"/>
      <point x="518" y="605"/>
      <point x="529" y="605" type="qcurve" smooth="yes"/>
      <point x="537" y="605"/>
      <point x="547" y="591"/>
      <point x="547" y="575" type="qcurve"/>
      <point x="545" y="570"/>
      <point x="531" y="517"/>
      <point x="508" y="436"/>
      <point x="477" y="336"/>
      <point x="441" y="233"/>
      <point x="401" y="135"/>
      <point x="361" y="58"/>
      <point x="321" y="12"/>
      <point x="303" y="12" type="qcurve" smooth="yes"/>
      <point x="280" y="12"/>
      <point x="232" y="78"/>
      <point x="187" y="180"/>
      <point x="145" y="303"/>
      <point x="110" y="417"/>
      <point x="84" y="507"/>
      <point x="78" y="524" type="qcurve" smooth="yes"/>
      <point x="73" y="537"/>
      <point x="69" y="557"/>
      <point x="69" y="565" type="qcurve" smooth="yes"/>
      <point x="69" y="578"/>
      <point x="79" y="588"/>
      <point x="86" y="588" type="qcurve" smooth="yes"/>
      <point x="94" y="588"/>
      <point x="113" y="577"/>
    </contour>
  </outline>
</glyph>
<glyph name="w" format="2">
  <advance width="918"/>
  <unicode hex="0077"/>
  <outline>
    <contour>
      <point x="834" y="584" type="qcurve"/>
      <point x="820" y="422"/>
      <point x="780" y="200"/>
      <point x="734" y="63"/>
      <point x="687" y="4"/>
      <point x="667" y="4" type="qcurve" smooth="yes"/>
      <point x="648" y="4"/>
      <point x="591" y="61"/>
      <point x="533" y="163"/>
      <point x="480" y="303"/>
      <point x="465" y="385" type="qcurve"/>
      <point x="444" y="303"/>
      <point x="401" y="164"/>
      <point x="356" y="62"/>
      <point x="310" y="4"/>
      <point x="287" y="4" type="qcurve" smooth="yes"/>
      <point x="261" y="4"/>
      <point x="205" y="59"/>
      <point x="154" y="194"/>
      <point x="111" y="423"/>
      <point x="98" y="596" type="qcurve"/>
      <point x="103" y="600"/>
      <point x="116" y="605"/>
      <point x="122" y="605" type="qcurve" smooth="yes"/>
      <point x="132" y="605"/>
      <point x="141" y="592" type="qcurve"/>
      <point x="156" y="448"/>
      <point x="197" y="244"/>
      <point x="238" y="115"/>
      <point x="275" y="55"/>
      <point x="287" y="55" type="qcurve" smooth="yes"/>
      <point x="299" y="55"/>
      <point x="328" y="98"/>
      <point x="358" y="169"/>
      <point x="388" y="258"/>
      <point x="414" y="351"/>
      <point x="436" y="439"/>
      <point x="442" y="473" type="qcurve"/>
      <point x="446" y="489"/>
      <point x="464" y="489" type="qcurve" smooth="yes"/>
      <point x="484" y="489"/>
      <point x="485" y="467" type="qcurve" smooth="yes"/>
      <point x="486" y="434"/>
      <point x="506" y="349"/>
      <point x="536" y="260"/>
      <point x="574" y="174"/>
      <point x="614" y="107"/>
      <point x="651" y="66"/>
      <point x="666" y="66" type="qcurve" smooth="yes"/>
      <point x="675" y="66"/>
      <point x="709" y="138"/>
      <point x="745" y="276"/>
      <point x="778" y="475"/>
      <point x="786" y="602" type="qcurve"/>
      <point x="797" y="608"/>
      <point x="805" y="610" type="qcurve"/>
      <point x="813" y="610"/>
      <point x="827" y="600"/>
    </contour>
  </outline>
</glyph>
<glyph name="x" format="2">
  <advance width="586"/>
  <unicode hex="0078"/>
  <outline>
    <contour>
      <point x="496" y="14" type="line"/>
      <point x="439" y="86"/>
      <point x="338" y="211"/>
      <point x="293" y="274" type="qcurve"/>
      <point x="239" y="205"/>
      <point x="135" y="76"/>
      <point x="100" y="16" type="qcurve"/>
      <point x="91" y="4"/>
      <point x="80" y="4" type="qcurve" smooth="yes"/>
      <point x="69" y="4"/>
      <point x="58" y="16"/>
      <point x="58" y="25" type="qcurve" smooth="yes"/>
      <point x="58" y="29"/>
      <point x="72" y="56"/>
      <point x="96" y="96"/>
      <point x="130" y="147"/>
      <point x="150" y="175" type="qcurve" smooth="yes"/>
      <point x="166" y="198"/>
      <point x="200" y="242"/>
      <point x="230" y="281"/>
      <point x="254" y="313"/>
      <point x="260" y="322" type="qcurve"/>
      <point x="221" y="376"/>
      <point x="132" y="501"/>
      <point x="84" y="561" type="qcurve" smooth="yes"/>
      <point x="78" y="569"/>
      <point x="74" y="581"/>
      <point x="73" y="586" type="qcurve"/>
      <point x="73" y="594"/>
      <point x="86" y="602"/>
      <point x="95" y="602" type="qcurve" smooth="yes"/>
      <point x="115" y="602"/>
      <point x="169" y="548"/>
      <point x="225" y="473"/>
      <point x="277" y="393"/>
      <point x="295" y="367" type="qcurve"/>
      <point x="451" y="590" type="line"/>
      <point x="457" y="603"/>
      <point x="469" y="603" type="qcurve" smooth="yes"/>
      <point x="479" y="603"/>
      <point x="494" y="587"/>
      <point x="494" y="576" type="qcurve" smooth="yes"/>
      <point x="494" y="568"/>
      <point x="478" y="537"/>
      <point x="454" y="500"/>
      <point x="425" y="460"/>
      <point x="413" y="442" type="qcurve" smooth="yes"/>
      <point x="391" y="410"/>
      <point x="348" y="352"/>
      <point x="328" y="324" type="qcurve"/>
      <point x="379" y="252"/>
      <point x="483" y="113"/>
      <point x="535" y="47" type="qcurve" smooth="yes"/>
      <point x="549" y="29" type="line"/>
      <point x="547" y="13"/>
      <point x="533" y="-3"/>
      <point x="524" y="-3" type="qcurve" smooth="yes"/>
      <point x="508" y="-3"/>
      <point x="496" y="16" type="qcurve"/>
    </contour>
  </outline>
</glyph>
<glyph name="y" format="2">
  <advance width="598"/>
  <unicode hex="0079"/>
  <outline>
    <contour>
      <point x="193" y="-274" type="qcurve"/>
      <point x="225" y="-196"/>
      <point x="267" y="-89"/>
      <point x="292" y="-17"/>
      <point x="302" y="25"/>
      <point x="302" y="39" type="qcurve" smooth="yes"/>
      <point x="302" y="44"/>
      <point x="285" y="59"/>
      <point x="259" y="81"/>
      <point x="229" y="109"/>
      <point x="217" y="127" type="qcurve" smooth="yes"/>
      <point x="199" y="154"/>
      <point x="158" y="230"/>
      <point x="114" y="338"/>
      <point x="69" y="481"/>
      <point x="47" y="575" type="qcurve"/>
      <point x="52" y="596"/>
      <point x="69" y="596" type="qcurve" smooth="yes"/>
      <point x="84" y="596"/>
      <point x="92" y="578" type="qcurve"/>
      <point x="127" y="441"/>
      <point x="192" y="262"/>
      <point x="251" y="154"/>
      <point x="300" y="103"/>
      <point x="319" y="94" type="qcurve"/>
      <point x="329" y="95"/>
      <point x="357" y="145"/>
      <point x="397" y="257"/>
      <point x="448" y="442"/>
      <point x="481" y="578" type="qcurve"/>
      <point x="490" y="599"/>
      <point x="508" y="599" type="qcurve" smooth="yes"/>
      <point x="530" y="599"/>
      <point x="530" y="580" type="qcurve"/>
      <point x="507" y="463" type="line" smooth="yes"/>
      <point x="498" y="417"/>
      <point x="465" y="295"/>
      <point x="407" y="122"/>
      <point x="315" y="-115"/>
      <point x="248" y="-276" type="qcurve"/>
      <point x="232" y="-302"/>
      <point x="213" y="-302" type="qcurve" smooth="yes"/>
      <point x="202" y="-302"/>
      <point x="190" y="-291"/>
      <point x="190" y="-285" type="qcurve" smooth="yes"/>
      <point x="190" y="-280"/>
    </contour>
  </outline>
</glyph>
<glyph name="z" format="2">
  <advance width="647"/>
  <unicode hex="007A"/>
  <outline>
    <contour>
      <point x="111" y="39" type="qcurve" smooth="yes"/>
      <point x="119" y="39"/>
      <point x="159" y="41"/>
      <point x="215" y="43"/>
      <point x="284" y="45"/>
      <point x="322" y="45" type="qcurve" smooth="yes"/>
      <point x="377" y="45"/>
      <point x="491" y="39"/>
      <point x="543" y="31" type="qcurve"/>
      <point x="553" y="26"/>
      <point x="553" y="13" type="qcurve" smooth="yes"/>
      <point x="553" y="0"/>
      <point x="542" y="0" type="qcurve" smooth="yes"/>
      <point x="539" y="0" type="line"/>
      <point x="476" y="6"/>
      <point x="385" y="10"/>
      <point x="347" y="10" type="qcurve" smooth="yes"/>
      <point x="317" y="10"/>
      <point x="261" y="8"/>
      <point x="203" y="6"/>
      <point x="136" y="4"/>
      <point x="94" y="4" type="qcurve" smooth="yes"/>
      <point x="91" y="4"/>
      <point x="78" y="7"/>
      <point x="66" y="14"/>
      <point x="57" y="23"/>
      <point x="57" y="29" type="qcurve" smooth="yes"/>
      <point x="57" y="37"/>
      <point x="66" y="45" type="qcurve"/>
      <point x="223" y="225"/>
      <point x="467" y="471"/>
      <point x="543" y="551" type="qcurve"/>
      <point x="515" y="546"/>
      <point x="418" y="540"/>
      <point x="362" y="540" type="qcurve" smooth="yes"/>
      <point x="226" y="540"/>
      <point x="99" y="556"/>
      <point x="99" y="579" type="qcurve" smooth="yes"/>
      <point x="99" y="592"/>
      <point x="119" y="592" type="qcurve" smooth="yes"/>
      <point x="125" y="592" type="line"/>
      <point x="182" y="583"/>
      <point x="273" y="575"/>
      <point x="315" y="575" type="qcurve" smooth="yes"/>
      <point x="367" y="575"/>
      <point x="479" y="588"/>
      <point x="556" y="588" type="qcurve" smooth="yes"/>
      <point x="563" y="588"/>
      <point x="588" y="575"/>
      <point x="588" y="565" type="qcurve" smooth="yes"/>
      <point x="588" y="558"/>
      <point x="582" y="551" type="qcurve" smooth="yes"/>
      <point x="456" y="412"/>
      <point x="277" y="223"/>
      <point x="162" y="104"/>
      <point x="108" y="47"/>
      <point x="108" y="41" type="qcurve" smooth="yes"/>
      <point x="108" y="39"/>
    </contour>
  </outline>
</glyph>
<glyph name="braceleft" format="2">
  <advance width="426"/>
  <unicode hex="007B"/>
  <outline>
    <contour>
      <point x="360" y="893" type="qcurve"/>
      <point x="371" y="893"/>
      <point x="381" y="886"/>
      <point x="381" y="875" type="qcurve" smooth="yes"/>
      <point x="381" y="864"/>
      <point x="371" y="858"/>
      <point x="360" y="858" type="qcurve" smooth="yes"/>
      <point x="355" y="858"/>
      <point x="344" y="859"/>
      <point x="339" y="859" type="qcurve" smooth="yes"/>
      <point x="295" y="859"/>
      <point x="233" y="827"/>
      <point x="195" y="769"/>
      <point x="178" y="687"/>
      <point x="178" y="637" type="qcurve" smooth="yes"/>
      <point x="178" y="592" type="line" smooth="yes"/>
      <point x="178" y="562"/>
      <point x="173" y="490"/>
      <point x="160" y="421"/>
      <point x="136" y="363"/>
      <point x="117" y="348" type="qcurve"/>
      <point x="145" y="334"/>
      <point x="168" y="288"/>
      <point x="176" y="219"/>
      <point x="179" y="123"/>
      <point x="186" y="59" type="qcurve" smooth="yes"/>
      <point x="191" y="24"/>
      <point x="210" y="-54"/>
      <point x="244" y="-121"/>
      <point x="296" y="-165"/>
      <point x="334" y="-165" type="qcurve" smooth="yes"/>
      <point x="337" y="-165"/>
      <point x="343" y="-164"/>
      <point x="346" y="-164" type="qcurve" smooth="yes"/>
      <point x="361" y="-164"/>
      <point x="375" y="-176"/>
      <point x="375" y="-184" type="qcurve" smooth="yes"/>
      <point x="375" y="-192"/>
      <point x="359" y="-205"/>
      <point x="344" y="-205" type="qcurve" smooth="yes"/>
      <point x="295" y="-205"/>
      <point x="226" y="-165"/>
      <point x="181" y="-100"/>
      <point x="156" y="-18"/>
      <point x="144" y="68"/>
      <point x="141" y="150"/>
      <point x="141" y="182" type="qcurve" smooth="yes"/>
      <point x="141" y="194"/>
      <point x="137" y="233"/>
      <point x="127" y="272"/>
      <point x="106" y="305"/>
      <point x="90" y="311" type="qcurve"/>
      <point x="75" y="319"/>
      <point x="60" y="340"/>
      <point x="60" y="351" type="qcurve" smooth="yes"/>
      <point x="60" y="361"/>
      <point x="72" y="378"/>
      <point x="86" y="383" type="qcurve"/>
      <point x="86" y="385" type="line"/>
      <point x="106" y="385"/>
      <point x="128" y="443"/>
      <point x="139" y="527"/>
      <point x="141" y="618"/>
      <point x="141" y="651" type="qcurve" smooth="yes"/>
      <point x="141" y="684" type="line" smooth="yes"/>
      <point x="141" y="730"/>
      <point x="167" y="807"/>
      <point x="215" y="864"/>
      <point x="283" y="896"/>
      <point x="325" y="896" type="qcurve" smooth="yes"/>
      <point x="342" y="896"/>
    </contour>
  </outline>
</glyph>
<glyph name="bar" format="2">
  <advance width="285"/>
  <unicode hex="007C"/>
  <outline>
    <contour>
      <point x="121" y="1227" type="qcurve"/>
      <point x="121" y="1243"/>
      <point x="141" y="1243" type="qcurve" smooth="yes"/>
      <point x="151" y="1243"/>
      <point x="160" y="1239" type="qcurve"/>
      <point x="165" y="1222"/>
      <point x="168" y="1151"/>
      <point x="168" y="1106" type="qcurve" smooth="yes"/>
      <point x="168" y="1072"/>
      <point x="167" y="995"/>
      <point x="165" y="917"/>
      <point x="164" y="840"/>
      <point x="164" y="805" type="qcurve" smooth="yes"/>
      <point x="164" y="596" type="line" smooth="yes"/>
      <point x="164" y="534"/>
      <point x="164" y="412"/>
      <point x="163" y="350" type="qcurve" smooth="yes"/>
      <point x="160" y="125" type="line" smooth="yes"/>
      <point x="159" y="84"/>
      <point x="161" y="23"/>
      <point x="158" y="-18"/>
      <point x="147" y="-39"/>
      <point x="135" y="-39" type="qcurve"/>
      <point x="118" y="-37"/>
      <point x="118" y="-23" type="qcurve" smooth="yes"/>
      <point x="118" y="233"/>
      <point x="120" y="615"/>
      <point x="123" y="892"/>
      <point x="125" y="1076"/>
      <point x="125" y="1133" type="qcurve" smooth="yes"/>
      <point x="125" y="1168"/>
      <point x="123" y="1218"/>
    </contour>
  </outline>
</glyph>
<glyph name="braceright" format="2">
  <advance width="426"/>
  <unicode hex="007D"/>
  <outline>
    <contour>
      <point x="113" y="896" type="qcurve" smooth="yes"/>
      <point x="155" y="896"/>
      <point x="223" y="864"/>
      <point x="271" y="807"/>
      <point x="297" y="730"/>
      <point x="297" y="684" type="qcurve" smooth="yes"/>
      <point x="297" y="651" type="line" smooth="yes"/>
      <point x="297" y="618"/>
      <point x="299" y="527"/>
      <point x="309" y="443"/>
      <point x="332" y="385"/>
      <point x="352" y="385" type="qcurve"/>
      <point x="378" y="374"/>
      <point x="378" y="351" type="qcurve" smooth="yes"/>
      <point x="378" y="340"/>
      <point x="363" y="319"/>
      <point x="348" y="311" type="qcurve"/>
      <point x="331" y="305"/>
      <point x="311" y="272"/>
      <point x="301" y="233"/>
      <point x="297" y="194"/>
      <point x="297" y="182" type="qcurve" smooth="yes"/>
      <point x="297" y="151"/>
      <point x="295" y="70"/>
      <point x="282" y="-16"/>
      <point x="257" y="-100"/>
      <point x="210" y="-165"/>
      <point x="139" y="-205"/>
      <point x="88" y="-205" type="qcurve"/>
      <point x="76" y="-204"/>
      <point x="63" y="-192"/>
      <point x="63" y="-184" type="qcurve" smooth="yes"/>
      <point x="63" y="-176"/>
      <point x="77" y="-164"/>
      <point x="92" y="-164" type="qcurve" smooth="yes"/>
      <point x="95" y="-164"/>
      <point x="101" y="-165"/>
      <point x="103" y="-165" type="qcurve" smooth="yes"/>
      <point x="142" y="-165"/>
      <point x="196" y="-121"/>
      <point x="230" y="-54"/>
      <point x="249" y="25"/>
      <point x="257" y="93"/>
      <point x="258" y="140"/>
      <point x="258" y="141" type="qcurve" smooth="yes"/>
      <point x="260" y="184"/>
      <point x="264" y="251"/>
      <point x="276" y="301"/>
      <point x="299" y="336"/>
      <point x="322" y="348" type="qcurve"/>
      <point x="299" y="365"/>
      <point x="274" y="432"/>
      <point x="262" y="510"/>
      <point x="260" y="588"/>
      <point x="260" y="616" type="qcurve" smooth="yes"/>
      <point x="260" y="638" type="line" smooth="yes"/>
      <point x="260" y="688"/>
      <point x="243" y="769"/>
      <point x="205" y="827"/>
      <point x="144" y="859"/>
      <point x="99" y="859" type="qcurve" smooth="yes"/>
      <point x="93" y="859"/>
      <point x="81" y="858"/>
      <point x="75" y="858" type="qcurve" smooth="yes"/>
      <point x="57" y="858"/>
      <point x="57" y="875" type="qcurve" smooth="yes"/>
      <point x="57" y="884"/>
      <point x="70" y="893"/>
      <point x="88" y="896"/>
      <point x="107" y="896"/>
    </contour>
  </outline>
</glyph>
<glyph name="asciitilde" format="2">
  <advance width="555"/>
  <unicode hex="007E"/>
  <outline>
    <contour>
      <point x="82" y="489" type="qcurve" smooth="yes"/>
      <point x="114" y="542"/>
      <point x="181" y="542" type="qcurve" smooth="yes"/>
      <point x="201" y="542"/>
      <point x="235" y="534"/>
      <point x="272" y="523"/>
      <point x="316" y="510"/>
      <point x="345" y="505" type="qcurve" smooth="yes"/>
      <point x="350" y="504"/>
      <point x="358" y="503"/>
      <point x="363" y="503" type="qcurve" smooth="yes"/>
      <point x="375" y="503"/>
      <point x="395" y="512"/>
      <point x="413" y="523"/>
      <point x="427" y="532"/>
      <point x="433" y="532" type="qcurve" smooth="yes"/>
      <point x="441" y="532"/>
      <point x="454" y="519"/>
      <point x="454" y="514" type="qcurve" smooth="yes"/>
      <point x="454" y="509"/>
      <point x="449" y="504" type="qcurve" smooth="yes"/>
      <point x="428" y="481"/>
      <point x="381" y="463"/>
      <point x="357" y="463" type="qcurve" smooth="yes"/>
      <point x="334" y="463"/>
      <point x="288" y="476"/>
      <point x="243" y="492"/>
      <point x="198" y="505"/>
      <point x="175" y="505" type="qcurve" smooth="yes"/>
      <point x="164" y="505"/>
      <point x="143" y="492"/>
      <point x="124" y="475"/>
      <point x="105" y="462"/>
      <point x="98" y="462" type="qcurve" smooth="yes"/>
      <point x="90" y="462"/>
      <point x="79" y="475"/>
      <point x="79" y="480" type="qcurve" smooth="yes"/>
      <point x="79" y="484"/>
    </contour>
  </outline>
</glyph>
<glyph name="exclamdown" format="2">
  <advance width="317"/>
  <unicode hex="00A1"/>
  <outline>
    <contour>
      <point x="207" y="-182" type="line"/>
      <point x="205" y="-205"/>
      <point x="174" y="-227"/>
      <point x="137" y="-227"/>
      <point x="104" y="-207"/>
      <point x="104" y="-182" type="qcurve" smooth="yes"/>
      <point x="133" y="420" type="line"/>
      <point x="137" y="438"/>
      <point x="174" y="436"/>
      <point x="178" y="420" type="qcurve"/>
    </contour>
    <contour>
      <point x="211" y="555" type="qcurve"/>
      <point x="211" y="535"/>
      <point x="186" y="498"/>
      <point x="158" y="498" type="qcurve" smooth="yes"/>
      <point x="131" y="498"/>
      <point x="100" y="528"/>
      <point x="100" y="551" type="qcurve" smooth="yes"/>
      <point x="100" y="573"/>
      <point x="131" y="608"/>
      <point x="158" y="608" type="qcurve" smooth="yes"/>
      <point x="180" y="608"/>
      <point x="209" y="578"/>
    </contour>
  </outline>
</glyph>
<glyph name="cent" format="2">
  <advance width="782"/>
  <unicode hex="00A2"/>
  <outline>
    <contour>
      <point x="649" y="652" type="qcurve" smooth="yes"/>
      <point x="609" y="724"/>
      <point x="502" y="792"/>
      <point x="389" y="799"/>
      <point x="279" y="751"/>
      <point x="194" y="662"/>
      <point x="144" y="540"/>
      <point x="147" y="469" type="qcurve" smooth="yes"/>
      <point x="149" y="412"/>
      <point x="183" y="304"/>
      <point x="251" y="221"/>
      <point x="356" y="171"/>
      <point x="429" y="171" type="qcurve" smooth="yes"/>
      <point x="535" y="171"/>
      <point x="666" y="279"/>
      <point x="689" y="370" type="qcurve"/>
      <point x="693" y="391"/>
      <point x="708" y="412"/>
      <point x="722" y="412"/>
      <point x="733" y="391"/>
      <point x="732" y="372" type="qcurve" smooth="yes"/>
      <point x="731" y="346"/>
      <point x="698" y="270"/>
      <point x="629" y="196"/>
      <point x="523" y="139"/>
      <point x="450" y="132" type="qcurve"/>
      <point x="451" y="32" type="line" smooth="yes"/>
      <point x="451" y="15"/>
      <point x="437" y="-4"/>
      <point x="419" y="-6"/>
      <point x="404" y="10"/>
      <point x="403" y="28" type="qcurve" smooth="yes"/>
      <point x="399" y="130" type="line"/>
      <point x="319" y="136"/>
      <point x="207" y="198"/>
      <point x="137" y="291"/>
      <point x="104" y="408"/>
      <point x="104" y="469" type="qcurve" smooth="yes"/>
      <point x="104" y="530"/>
      <point x="138" y="652"/>
      <point x="210" y="754"/>
      <point x="322" y="825"/>
      <point x="399" y="836" type="qcurve"/>
      <point x="399" y="930" type="line" smooth="yes"/>
      <point x="399" y="948"/>
      <point x="411" y="965"/>
      <point x="426" y="965"/>
      <point x="439" y="948"/>
      <point x="439" y="930" type="qcurve" smooth="yes"/>
      <point x="439" y="836" type="line"/>
      <point x="484" y="835"/>
      <point x="530" y="817" type="qcurve" smooth="yes"/>
      <point x="549" y="809"/>
      <point x="591" y="784"/>
      <point x="634" y="745"/>
      <point x="674" y="692"/>
      <point x="692" y="657" type="qcurve"/>
      <point x="698" y="649"/>
      <point x="694" y="633"/>
      <point x="680" y="626"/>
      <point x="659" y="635"/>
    </contour>
  </outline>
</glyph>
<glyph name="sterling" format="2">
  <advance width="776"/>
  <unicode hex="00A3"/>
  <outline>
    <contour>
      <point x="662" y="106" type="qcurve" smooth="yes"/>
      <point x="643" y="59"/>
      <point x="578" y="12"/>
      <point x="514" y="8" type="qcurve" smooth="yes"/>
      <point x="467" y="6"/>
      <point x="371" y="45"/>
      <point x="276" y="74"/>
      <point x="186" y="61"/>
      <point x="147" y="10" type="qcurve" smooth="yes"/>
      <point x="137" y="-2"/>
      <point x="111" y="6"/>
      <point x="121" y="29" type="qcurve"/>
      <point x="145" y="59"/>
      <point x="219" y="106"/>
      <point x="266" y="109" type="qcurve"/>
      <point x="305" y="170"/>
      <point x="315" y="276"/>
      <point x="291" y="338" type="qcurve"/>
      <point x="156" y="338" type="line"/>
      <point x="135" y="340"/>
      <point x="127" y="373"/>
      <point x="156" y="373" type="qcurve" smooth="yes"/>
      <point x="268" y="373" type="line"/>
      <point x="227" y="444"/>
      <point x="174" y="559"/>
      <point x="174" y="612" type="qcurve" smooth="yes"/>
      <point x="174" y="657"/>
      <point x="211" y="737"/>
      <point x="272" y="797"/>
      <point x="354" y="829"/>
      <point x="401" y="829" type="qcurve" smooth="yes"/>
      <point x="498" y="829"/>
      <point x="604" y="719"/>
      <point x="614" y="627" type="qcurve" smooth="yes"/>
      <point x="616" y="604"/>
      <point x="586" y="600"/>
      <point x="582" y="629" type="qcurve"/>
      <point x="569" y="696"/>
      <point x="487" y="793"/>
      <point x="401" y="793" type="qcurve" smooth="yes"/>
      <point x="365" y="793"/>
      <point x="297" y="764"/>
      <point x="246" y="715"/>
      <point x="215" y="647"/>
      <point x="215" y="610" type="qcurve" smooth="yes"/>
      <point x="215" y="580"/>
      <point x="238" y="516"/>
      <point x="268" y="455"/>
      <point x="303" y="397"/>
      <point x="317" y="373" type="qcurve"/>
      <point x="485" y="369" type="line"/>
      <point x="520" y="371"/>
      <point x="508" y="336"/>
      <point x="485" y="334" type="qcurve"/>
      <point x="334" y="338" type="line"/>
      <point x="356" y="272"/>
      <point x="340" y="164"/>
      <point x="309" y="106" type="qcurve"/>
      <point x="360" y="94"/>
      <point x="459" y="41"/>
      <point x="512" y="39" type="qcurve" smooth="yes"/>
      <point x="561" y="37"/>
      <point x="610" y="86"/>
      <point x="629" y="115" type="qcurve"/>
      <point x="641" y="137"/>
      <point x="668" y="123"/>
    </contour>
  </outline>
</glyph>
<glyph name="currency" format="2">
  <advance width="995"/>
  <unicode hex="00A4"/>
  <outline>
    <contour>
      <point x="221" y="238" type="line"/>
      <point x="133" y="346"/>
      <point x="133" y="471" type="qcurve" smooth="yes"/>
      <point x="133" y="530"/>
      <point x="174" y="653"/>
      <point x="221" y="709" type="qcurve"/>
      <point x="139" y="793" type="line"/>
      <point x="129" y="801"/>
      <point x="131" y="821"/>
      <point x="145" y="836"/>
      <point x="164" y="838"/>
      <point x="174" y="829" type="qcurve"/>
      <point x="258" y="743" type="line"/>
      <point x="313" y="791"/>
      <point x="438" y="836"/>
      <point x="496" y="836" type="qcurve" smooth="yes"/>
      <point x="621" y="836"/>
      <point x="737" y="748" type="qcurve"/>
      <point x="754" y="764"/>
      <point x="803" y="813"/>
      <point x="821" y="829" type="qcurve"/>
      <point x="840" y="842"/>
      <point x="872" y="811"/>
      <point x="858" y="793" type="qcurve"/>
      <point x="774" y="709" type="line"/>
      <point x="819" y="657"/>
      <point x="860" y="535"/>
      <point x="860" y="471" type="qcurve" smooth="yes"/>
      <point x="860" y="412"/>
      <point x="819" y="291"/>
      <point x="774" y="238" type="qcurve"/>
      <point x="791" y="219"/>
      <point x="838" y="172"/>
      <point x="858" y="152" type="qcurve"/>
      <point x="866" y="141"/>
      <point x="862" y="121"/>
      <point x="848" y="109"/>
      <point x="827" y="106"/>
      <point x="821" y="115" type="qcurve"/>
      <point x="735" y="203" type="line"/>
      <point x="682" y="156"/>
      <point x="559" y="109"/>
      <point x="496" y="109" type="qcurve" smooth="yes"/>
      <point x="432" y="109"/>
      <point x="315" y="152"/>
      <point x="260" y="205" type="qcurve"/>
      <point x="244" y="186"/>
      <point x="195" y="139"/>
      <point x="174" y="117" type="qcurve" smooth="yes"/>
      <point x="166" y="109"/>
      <point x="145" y="111"/>
      <point x="131" y="123"/>
      <point x="129" y="141"/>
      <point x="139" y="152" type="qcurve" smooth="yes"/>
    </contour>
    <contour>
      <point x="496" y="784" type="qcurve" smooth="yes"/>
      <point x="432" y="784"/>
      <point x="319" y="735"/>
      <point x="236" y="649"/>
      <point x="186" y="535"/>
      <point x="186" y="471" type="qcurve" smooth="yes"/>
      <point x="186" y="406"/>
      <point x="236" y="293"/>
      <point x="322" y="209"/>
      <point x="434" y="160"/>
      <point x="496" y="160" type="qcurve" smooth="yes"/>
      <point x="561" y="160"/>
      <point x="674" y="211"/>
      <point x="758" y="297"/>
      <point x="807" y="410"/>
      <point x="807" y="471" type="qcurve" smooth="yes"/>
      <point x="807" y="535"/>
      <point x="758" y="647"/>
      <point x="674" y="733"/>
      <point x="559" y="784"/>
    </contour>
  </outline>
</glyph>
<glyph name="yen" format="2">
  <advance width="770"/>
  <unicode hex="00A5"/>
  <outline>
    <contour>
      <point x="680" y="539" type="line"/>
      <point x="692" y="537"/>
      <point x="705" y="525"/>
      <point x="705" y="518"/>
      <point x="692" y="505"/>
      <point x="680" y="505" type="qcurve" smooth="yes"/>
      <point x="500" y="503" type="line"/>
      <point x="479" y="457"/>
      <point x="461" y="434" type="qcurve" smooth="yes"/>
      <point x="426" y="391"/>
      <point x="401" y="391" type="qcurve"/>
      <point x="401" y="341" type="line"/>
      <point x="680" y="345" type="line"/>
      <point x="692" y="343"/>
      <point x="705" y="329"/>
      <point x="705" y="322"/>
      <point x="692" y="307"/>
      <point x="680" y="307" type="qcurve" smooth="yes"/>
      <point x="403" y="303" type="line"/>
      <point x="412" y="31" type="line" smooth="yes"/>
      <point x="412" y="18"/>
      <point x="395" y="6"/>
      <point x="377" y="6"/>
      <point x="362" y="16"/>
      <point x="362" y="27" type="qcurve" smooth="yes"/>
      <point x="362" y="303" type="line"/>
      <point x="96" y="301" type="line"/>
      <point x="84" y="303"/>
      <point x="72" y="317"/>
      <point x="72" y="325"/>
      <point x="84" y="339"/>
      <point x="96" y="339" type="qcurve" smooth="yes"/>
      <point x="362" y="341" type="line"/>
      <point x="362" y="391" type="line"/>
      <point x="334" y="397"/>
      <point x="295" y="446" type="qcurve" smooth="yes"/>
      <point x="281" y="465"/>
      <point x="264" y="501" type="qcurve"/>
      <point x="96" y="499" type="line"/>
      <point x="84" y="501"/>
      <point x="72" y="512"/>
      <point x="72" y="519"/>
      <point x="84" y="532"/>
      <point x="96" y="532" type="qcurve" smooth="yes"/>
      <point x="231" y="532" type="line"/>
      <point x="215" y="561" type="line" smooth="yes"/>
      <point x="176" y="629"/>
      <point x="109" y="768"/>
      <point x="92" y="817" type="qcurve"/>
      <point x="90" y="825"/>
      <point x="102" y="836"/>
      <point x="121" y="836"/>
      <point x="137" y="827"/>
      <point x="139" y="819" type="qcurve" smooth="yes"/>
      <point x="152" y="776"/>
      <point x="213" y="649"/>
      <point x="248" y="588" type="qcurve" smooth="yes"/>
      <point x="264" y="559"/>
      <point x="281" y="535" type="qcurve"/>
      <point x="477" y="537" type="line"/>
      <point x="487" y="551"/>
      <point x="498" y="569" type="qcurve" smooth="yes"/>
      <point x="535" y="629"/>
      <point x="606" y="762"/>
      <point x="629" y="815" type="qcurve"/>
      <point x="631" y="823"/>
      <point x="647" y="834"/>
      <point x="666" y="834"/>
      <point x="678" y="821"/>
      <point x="676" y="809" type="qcurve"/>
      <point x="647" y="748"/>
      <point x="573" y="602"/>
      <point x="535" y="539" type="qcurve"/>
      <point x="532" y="537" type="line"/>
    </contour>
    <contour>
      <point x="319" y="497" type="line"/>
      <point x="349" y="431"/>
      <point x="381" y="434" type="qcurve"/>
      <point x="408" y="425"/>
      <point x="446" y="501" type="qcurve"/>
      <point x="315" y="501" type="line"/>
    </contour>
  </outline>
</glyph>
<glyph name="brokenbar" format="2">
  <advance width="324"/>
  <unicode hex="00A6"/>
  <outline>
    <contour>
      <point x="125" y="958" type="line"/>
      <point x="127" y="971"/>
      <point x="141" y="983"/>
      <point x="160" y="983"/>
      <point x="174" y="971"/>
      <point x="174" y="958" type="qcurve" smooth="yes"/>
      <point x="184" y="492" type="line"/>
      <point x="182" y="479"/>
      <point x="168" y="467"/>
      <point x="150" y="467"/>
      <point x="135" y="479"/>
      <point x="135" y="492" type="qcurve" smooth="yes"/>
    </contour>
    <contour>
      <point x="125" y="-219" type="line"/>
      <point x="127" y="-231"/>
      <point x="141" y="-244"/>
      <point x="160" y="-244"/>
      <point x="174" y="-231"/>
      <point x="174" y="-219" type="qcurve" smooth="yes"/>
      <point x="184" y="248" type="line"/>
      <point x="182" y="260"/>
      <point x="168" y="272"/>
      <point x="150" y="272"/>
      <point x="135" y="260"/>
      <point x="135" y="248" type="qcurve"/>
    </contour>
  </outline>
</glyph>
<glyph name="section" format="2">
  <advance width="782"/>
  <unicode hex="00A7"/>
  <outline>
    <contour>
      <point x="211" y="702" type="line"/>
      <point x="197" y="723"/>
      <point x="178" y="770"/>
      <point x="176" y="799" type="qcurve" smooth="yes"/>
      <point x="172" y="842"/>
      <point x="203" y="920"/>
      <point x="266" y="979"/>
      <point x="358" y="1012"/>
      <point x="414" y="1012" type="qcurve" smooth="yes"/>
      <point x="508" y="1010"/>
      <point x="625" y="903"/>
      <point x="629" y="815" type="qcurve"/>
      <point x="625" y="793"/>
      <point x="590" y="791"/>
      <point x="588" y="809" type="qcurve" smooth="yes"/>
      <point x="586" y="838"/>
      <point x="565" y="895"/>
      <point x="524" y="942"/>
      <point x="459" y="973"/>
      <point x="414" y="973" type="qcurve" smooth="yes"/>
      <point x="315" y="975"/>
      <point x="217" y="870"/>
      <point x="221" y="799" type="qcurve" smooth="yes"/>
      <point x="223" y="776"/>
      <point x="238" y="733"/>
      <point x="281" y="692"/>
      <point x="356" y="655"/>
      <point x="418" y="639" type="qcurve"/>
      <point x="494" y="625"/>
      <point x="586" y="571"/>
      <point x="633" y="510"/>
      <point x="645" y="442"/>
      <point x="643" y="416" type="qcurve" smooth="yes"/>
      <point x="639" y="379"/>
      <point x="586" y="301"/>
      <point x="537" y="279" type="qcurve"/>
      <point x="584" y="238"/>
      <point x="608" y="145"/>
      <point x="606" y="104" type="qcurve" smooth="yes"/>
      <point x="604" y="76"/>
      <point x="578" y="14"/>
      <point x="526" y="-37"/>
      <point x="446" y="-72"/>
      <point x="391" y="-74" type="qcurve" smooth="yes"/>
      <point x="330" y="-76"/>
      <point x="236" y="-39"/>
      <point x="168" y="29"/>
      <point x="133" y="119"/>
      <point x="133" y="170" type="qcurve"/>
      <point x="131" y="180"/>
      <point x="143" y="190"/>
      <point x="162" y="193"/>
      <point x="180" y="182"/>
      <point x="180" y="172" type="qcurve" smooth="yes"/>
      <point x="182" y="131"/>
      <point x="207" y="57"/>
      <point x="256" y="2"/>
      <point x="336" y="-31"/>
      <point x="391" y="-31" type="qcurve" smooth="yes"/>
      <point x="442" y="-31"/>
      <point x="510" y="0"/>
      <point x="547" y="43"/>
      <point x="561" y="90"/>
      <point x="563" y="104" type="qcurve" smooth="yes"/>
      <point x="571" y="178"/>
      <point x="479" y="285"/>
      <point x="356" y="313" type="qcurve" smooth="yes"/>
      <point x="258" y="336"/>
      <point x="139" y="434"/>
      <point x="131" y="522" type="qcurve" smooth="yes"/>
      <point x="127" y="575"/>
      <point x="168" y="670"/>
      <point x="209" y="702" type="qcurve"/>
    </contour>
    <contour>
      <point x="395" y="606" type="qcurve" smooth="yes"/>
      <point x="348" y="616"/>
      <point x="270" y="645"/>
      <point x="242" y="668" type="qcurve"/>
      <point x="201" y="649"/>
      <point x="174" y="567"/>
      <point x="178" y="522" type="qcurve" smooth="yes"/>
      <point x="180" y="498"/>
      <point x="197" y="453"/>
      <point x="242" y="410"/>
      <point x="322" y="371"/>
      <point x="385" y="352" type="qcurve" smooth="yes"/>
      <point x="459" y="330"/>
      <point x="502" y="303" type="qcurve"/>
      <point x="555" y="324"/>
      <point x="598" y="393"/>
      <point x="602" y="416" type="qcurve"/>
      <point x="610" y="483"/>
      <point x="514" y="580"/>
    </contour>
  </outline>
</glyph>
<glyph name="dieresis" format="2">
  <advance width="442"/>
  <unicode hex="00A8"/>
  <outline>
    <contour>
      <point x="41" y="849" type="qcurve" smooth="yes"/>
      <point x="41" y="867"/>
      <point x="72" y="898"/>
      <point x="92" y="898" type="qcurve" smooth="yes"/>
      <point x="111" y="898"/>
      <point x="143" y="867"/>
      <point x="143" y="849" type="qcurve" smooth="yes"/>
      <point x="143" y="828"/>
      <point x="111" y="798"/>
      <point x="92" y="798" type="qcurve" smooth="yes"/>
      <point x="72" y="798"/>
      <point x="41" y="828"/>
    </contour>
    <contour>
      <point x="295" y="849" type="qcurve" smooth="yes"/>
      <point x="295" y="867"/>
      <point x="326" y="898"/>
      <point x="346" y="898" type="qcurve" smooth="yes"/>
      <point x="365" y="898"/>
      <point x="397" y="867"/>
      <point x="397" y="849" type="qcurve" smooth="yes"/>
      <point x="397" y="828"/>
      <point x="365" y="798"/>
      <point x="346" y="798" type="qcurve" smooth="yes"/>
      <point x="326" y="798"/>
      <point x="295" y="828"/>
    </contour>
  </outline>
</glyph>
